<svg xmlns="http://www.w3.org/2000/svg" xmlns:xlink="http://www.w3.org/1999/xlink" contentStyleType="text/css" height="1067px" preserveAspectRatio="none" style="width:1375px;height:1067px;background:#FFFFFF;" version="1.1" viewBox="0 0 1375 1067" width="1375px" zoomAndPan="magnify"><defs/><g><rect fill="none" height="26.2969" id="_title" rx="4" ry="4" style="stroke:none;stroke-width:1.0;" width="546" x="415.75" y="10"/><text fill="#000000" font-family="sans-serif" font-size="14" font-weight="bold" lengthAdjust="spacing" textLength="536" x="420.75" y="27.9951">Diagramme de séquences : soumission d'une demande - E-Services</text><rect fill="#FFFFFF" height="396.2656" style="stroke:#181818;stroke-width:1.0;" width="10" x="193.5" y="143.9063"/><rect fill="#FFFFFF" height="329.8516" style="stroke:#181818;stroke-width:1.0;" width="10" x="433.5" y="183.5156"/><rect fill="#FFFFFF" height="263.2422" style="stroke:#181818;stroke-width:1.0;" width="10" x="622.5" y="250.125"/><rect fill="#FFFFFF" height="67.6094" style="stroke:#181818;stroke-width:1.0;" width="10" x="869.5" y="370.3438"/><rect fill="#FFFFFF" height="54.8047" style="stroke:#181818;stroke-width:1.0;" width="10" x="1013" y="621.3906"/><rect fill="#FFFFFF" height="54.8047" style="stroke:#181818;stroke-width:1.0;" width="10" x="1148.5" y="743.8047"/><rect fill="#FFFFFF" height="14" style="stroke:#181818;stroke-width:1.0;" width="10" x="1303.5" y="276.9297"/><rect fill="#FFFFFF" height="14" style="stroke:#181818;stroke-width:1.0;" width="10" x="1303.5" y="397.1484"/><rect fill="#FFFFFF" height="257.6328" style="stroke:#181818;stroke-width:1.0;" width="10" x="1303.5" y="581.7813"/><rect fill="#FFFFFF" height="14" style="stroke:#181818;stroke-width:1.0;" width="10" x="1308.5" y="648.1953"/><rect fill="#FFFFFF" height="14" style="stroke:#181818;stroke-width:1.0;" width="10" x="1308.5" y="703"/><rect fill="#FFFFFF" height="14" style="stroke:#181818;stroke-width:1.0;" width="10" x="1308.5" y="770.6094"/><rect fill="none" height="474.875" rx="4" ry="4" style="stroke:#000000;stroke-width:1.5;" width="1358.5" x="10" y="452.9531"/><line style="stroke:#181818;stroke-width:0.5;stroke-dasharray:5.0,5.0;" x1="43" x2="43" y1="115.1016" y2="990.4375"/><line style="stroke:#181818;stroke-width:0.5;stroke-dasharray:5.0,5.0;" x1="198" x2="198" y1="115.1016" y2="990.4375"/><line style="stroke:#181818;stroke-width:0.5;stroke-dasharray:5.0,5.0;" x1="438.5" x2="438.5" y1="115.1016" y2="990.4375"/><line style="stroke:#181818;stroke-width:0.5;stroke-dasharray:5.0,5.0;" x1="627.5" x2="627.5" y1="115.1016" y2="990.4375"/><line style="stroke:#181818;stroke-width:0.5;stroke-dasharray:5.0,5.0;" x1="874" x2="874" y1="115.1016" y2="990.4375"/><line style="stroke:#181818;stroke-width:0.5;stroke-dasharray:5.0,5.0;" x1="1018" x2="1018" y1="115.1016" y2="990.4375"/><line style="stroke:#181818;stroke-width:0.5;stroke-dasharray:5.0,5.0;" x1="1153" x2="1153" y1="115.1016" y2="990.4375"/><line style="stroke:#181818;stroke-width:0.5;stroke-dasharray:5.0,5.0;" x1="1308.5" x2="1308.5" y1="115.1016" y2="990.4375"/><text fill="#000000" font-family="sans-serif" font-size="11" lengthAdjust="spacing" textLength="41" x="20" y="112.5073">Usager</text><ellipse cx="43.5" cy="50.7969" fill="#E2E2F0" rx="8" ry="8" style="stroke:#181818;stroke-width:0.5;"/><path d="M43.5,58.7969 L43.5,85.7969 M30.5,66.7969 L56.5,66.7969 M43.5,85.7969 L30.5,100.7969 M43.5,85.7969 L56.5,100.7969 " fill="none" style="stroke:#181818;stroke-width:0.5;"/><text fill="#000000" font-family="sans-serif" font-size="11" lengthAdjust="spacing" textLength="41" x="20" y="999.6479">Usager</text><ellipse cx="43.5" cy="1010.7422" fill="#E2E2F0" rx="8" ry="8" style="stroke:#181818;stroke-width:0.5;"/><path d="M43.5,1018.7422 L43.5,1045.7422 M30.5,1026.7422 L56.5,1026.7422 M43.5,1045.7422 L30.5,1060.7422 M43.5,1045.7422 L56.5,1060.7422 " fill="none" style="stroke:#181818;stroke-width:0.5;"/><rect fill="#E2E2F0" height="26.8047" rx="4" ry="4" style="stroke:#181818;stroke-width:0.5;" width="77" x="160" y="87.2969"/><text fill="#000000" font-family="sans-serif" font-size="11" lengthAdjust="spacing" textLength="63" x="167" y="104.5073">ClientReact</text><rect fill="#E2E2F0" height="26.8047" rx="4" ry="4" style="stroke:#181818;stroke-width:0.5;" width="77" x="160" y="989.4375"/><text fill="#000000" font-family="sans-serif" font-size="11" lengthAdjust="spacing" textLength="63" x="167" y="1006.6479">ClientReact</text><rect fill="#E2E2F0" height="26.8047" rx="4" ry="4" style="stroke:#181818;stroke-width:0.5;" width="124" x="376.5" y="87.2969"/><text fill="#000000" font-family="sans-serif" font-size="11" lengthAdjust="spacing" textLength="110" x="383.5" y="104.5073">DemandeController</text><rect fill="#E2E2F0" height="26.8047" rx="4" ry="4" style="stroke:#181818;stroke-width:0.5;" width="124" x="376.5" y="989.4375"/><text fill="#000000" font-family="sans-serif" font-size="11" lengthAdjust="spacing" textLength="110" x="383.5" y="1006.6479">DemandeController</text><rect fill="#E2E2F0" height="26.8047" rx="4" ry="4" style="stroke:#181818;stroke-width:0.5;" width="110" x="572.5" y="87.2969"/><text fill="#000000" font-family="sans-serif" font-size="11" lengthAdjust="spacing" textLength="96" x="579.5" y="104.5073">DemandeService</text><rect fill="#E2E2F0" height="26.8047" rx="4" ry="4" style="stroke:#181818;stroke-width:0.5;" width="110" x="572.5" y="989.4375"/><text fill="#000000" font-family="sans-serif" font-size="11" lengthAdjust="spacing" textLength="96" x="579.5" y="1006.6479">DemandeService</text><rect fill="#E2E2F0" height="26.8047" rx="4" ry="4" style="stroke:#181818;stroke-width:0.5;" width="135" x="807" y="87.2969"/><text fill="#000000" font-family="sans-serif" font-size="11" lengthAdjust="spacing" textLength="121" x="814" y="104.5073">PieceJointeRepository</text><rect fill="#E2E2F0" height="26.8047" rx="4" ry="4" style="stroke:#181818;stroke-width:0.5;" width="135" x="807" y="989.4375"/><text fill="#000000" font-family="sans-serif" font-size="11" lengthAdjust="spacing" textLength="121" x="814" y="1006.6479">PieceJointeRepository</text><rect fill="#E2E2F0" height="26.8047" rx="4" ry="4" style="stroke:#181818;stroke-width:0.5;" width="132" x="952" y="87.2969"/><text fill="#000000" font-family="sans-serif" font-size="11" lengthAdjust="spacing" textLength="118" x="959" y="104.5073">HistoriqueRepository</text><rect fill="#E2E2F0" height="26.8047" rx="4" ry="4" style="stroke:#181818;stroke-width:0.5;" width="132" x="952" y="989.4375"/><text fill="#000000" font-family="sans-serif" font-size="11" lengthAdjust="spacing" textLength="118" x="959" y="1006.6479">HistoriqueRepository</text><rect fill="#E2E2F0" height="26.8047" rx="4" ry="4" style="stroke:#181818;stroke-width:0.5;" width="119" x="1094" y="87.2969"/><text fill="#000000" font-family="sans-serif" font-size="11" lengthAdjust="spacing" textLength="105" x="1101" y="104.5073">NotificationService</text><rect fill="#E2E2F0" height="26.8047" rx="4" ry="4" style="stroke:#181818;stroke-width:0.5;" width="119" x="1094" y="989.4375"/><text fill="#000000" font-family="sans-serif" font-size="11" lengthAdjust="spacing" textLength="105" x="1101" y="1006.6479">NotificationService</text><text fill="#000000" font-family="sans-serif" font-size="11" lengthAdjust="spacing" textLength="94" x="1258.5" y="112.5073">BaseDeDonnees</text><path d="M1290.5,66.2969 C1290.5,56.2969 1308.5,56.2969 1308.5,56.2969 C1308.5,56.2969 1326.5,56.2969 1326.5,66.2969 L1326.5,92.2969 C1326.5,102.2969 1308.5,102.2969 1308.5,102.2969 C1308.5,102.2969 1290.5,102.2969 1290.5,92.2969 L1290.5,66.2969 " fill="#E2E2F0" style="stroke:#181818;stroke-width:1.5;"/><path d="M1290.5,66.2969 C1290.5,76.2969 1308.5,76.2969 1308.5,76.2969 C1308.5,76.2969 1326.5,76.2969 1326.5,66.2969 " fill="none" style="stroke:#181818;stroke-width:1.5;"/><text fill="#000000" font-family="sans-serif" font-size="11" lengthAdjust="spacing" textLength="94" x="1258.5" y="999.6479">BaseDeDonnees</text><path d="M1290.5,1012.2422 C1290.5,1002.2422 1308.5,1002.2422 1308.5,1002.2422 C1308.5,1002.2422 1326.5,1002.2422 1326.5,1012.2422 L1326.5,1038.2422 C1326.5,1048.2422 1308.5,1048.2422 1308.5,1048.2422 C1308.5,1048.2422 1290.5,1048.2422 1290.5,1038.2422 L1290.5,1012.2422 " fill="#E2E2F0" style="stroke:#181818;stroke-width:1.5;"/><path d="M1290.5,1012.2422 C1290.5,1022.2422 1308.5,1022.2422 1308.5,1022.2422 C1308.5,1022.2422 1326.5,1022.2422 1326.5,1012.2422 " fill="none" style="stroke:#181818;stroke-width:1.5;"/><rect fill="#FFFFFF" height="396.2656" style="stroke:#181818;stroke-width:1.0;" width="10" x="193.5" y="143.9063"/><rect fill="#FFFFFF" height="329.8516" style="stroke:#181818;stroke-width:1.0;" width="10" x="433.5" y="183.5156"/><rect fill="#FFFFFF" height="263.2422" style="stroke:#181818;stroke-width:1.0;" width="10" x="622.5" y="250.125"/><rect fill="#FFFFFF" height="67.6094" style="stroke:#181818;stroke-width:1.0;" width="10" x="869.5" y="370.3438"/><rect fill="#FFFFFF" height="54.8047" style="stroke:#181818;stroke-width:1.0;" width="10" x="1013" y="621.3906"/><rect fill="#FFFFFF" height="54.8047" style="stroke:#181818;stroke-width:1.0;" width="10" x="1148.5" y="743.8047"/><rect fill="#FFFFFF" height="14" style="stroke:#181818;stroke-width:1.0;" width="10" x="1303.5" y="276.9297"/><rect fill="#FFFFFF" height="14" style="stroke:#181818;stroke-width:1.0;" width="10" x="1303.5" y="397.1484"/><rect fill="#FFFFFF" height="257.6328" style="stroke:#181818;stroke-width:1.0;" width="10" x="1303.5" y="581.7813"/><rect fill="#FFFFFF" height="14" style="stroke:#181818;stroke-width:1.0;" width="10" x="1308.5" y="648.1953"/><rect fill="#FFFFFF" height="14" style="stroke:#181818;stroke-width:1.0;" width="10" x="1308.5" y="703"/><rect fill="#FFFFFF" height="14" style="stroke:#181818;stroke-width:1.0;" width="10" x="1308.5" y="770.6094"/><polygon fill="#181818" points="181.5,139.9063,191.5,143.9063,181.5,147.9063,185.5,143.9063" style="stroke:#181818;stroke-width:1.0;"/><line style="stroke:#181818;stroke-width:1.0;" x1="43.5" x2="187.5" y1="143.9063" y2="143.9063"/><text fill="#000000" font-family="sans-serif" font-size="11" lengthAdjust="spacing" textLength="131" x="53" y="139.312">Soumettre la demande</text><polygon fill="#181818" points="421.5,179.5156,431.5,183.5156,421.5,187.5156,425.5,183.5156" style="stroke:#181818;stroke-width:1.0;"/><line style="stroke:#181818;stroke-width:1.0;" x1="203.5" x2="427.5" y1="183.5156" y2="183.5156"/><text fill="#000000" font-family="sans-serif" font-size="11" lengthAdjust="spacing" textLength="211" x="213" y="166.1167">POST /api/demandes/{id}/soumettre</text><text fill="#000000" font-family="sans-serif" font-size="11" lengthAdjust="spacing" textLength="151" x="243" y="178.9214">(Authorization: Bearer JWT)</text><line style="stroke:#181818;stroke-width:1.0;" x1="443.5" x2="485.5" y1="210.3203" y2="210.3203"/><line style="stroke:#181818;stroke-width:1.0;" x1="485.5" x2="485.5" y1="210.3203" y2="223.3203"/><line style="stroke:#181818;stroke-width:1.0;" x1="444.5" x2="485.5" y1="223.3203" y2="223.3203"/><polygon fill="#181818" points="454.5,219.3203,444.5,223.3203,454.5,227.3203,450.5,223.3203" style="stroke:#181818;stroke-width:1.0;"/><text fill="#000000" font-family="sans-serif" font-size="11" lengthAdjust="spacing" textLength="165" x="450.5" y="205.7261">Valider jeton et autorisations</text><polygon fill="#181818" points="610.5,246.125,620.5,250.125,610.5,254.125,614.5,250.125" style="stroke:#181818;stroke-width:1.0;"/><line style="stroke:#181818;stroke-width:1.0;" x1="443.5" x2="616.5" y1="250.125" y2="250.125"/><text fill="#000000" font-family="sans-serif" font-size="11" lengthAdjust="spacing" textLength="131" x="467.5" y="245.5308">soumettre(idDemande)</text><polygon fill="#181818" points="1291.5,272.9297,1301.5,276.9297,1291.5,280.9297,1295.5,276.9297" style="stroke:#181818;stroke-width:1.0;"/><line style="stroke:#181818;stroke-width:1.0;" x1="632.5" x2="1297.5" y1="276.9297" y2="276.9297"/><text fill="#000000" font-family="sans-serif" font-size="11" lengthAdjust="spacing" textLength="192" x="872" y="272.3354">Charger Demande / EtatDemande</text><polygon fill="#181818" points="643.5,286.9297,633.5,290.9297,643.5,294.9297,639.5,290.9297" style="stroke:#181818;stroke-width:1.0;"/><line style="stroke:#181818;stroke-width:1.0;stroke-dasharray:2.0,2.0;" x1="637.5" x2="1307.5" y1="290.9297" y2="290.9297"/><line style="stroke:#181818;stroke-width:1.0;" x1="632.5" x2="674.5" y1="330.5391" y2="330.5391"/><line style="stroke:#181818;stroke-width:1.0;" x1="674.5" x2="674.5" y1="330.5391" y2="343.5391"/><line style="stroke:#181818;stroke-width:1.0;" x1="633.5" x2="674.5" y1="343.5391" y2="343.5391"/><polygon fill="#181818" points="643.5,339.5391,633.5,343.5391,643.5,347.5391,639.5,343.5391" style="stroke:#181818;stroke-width:1.0;"/><text fill="#000000" font-family="sans-serif" font-size="11" lengthAdjust="spacing" textLength="195" x="639.5" y="313.1401">Vérifier état courant = BROUILLON</text><text fill="#000000" font-family="sans-serif" font-size="11" lengthAdjust="spacing" textLength="137" x="668.5" y="325.9448">et complétude minimale</text><polygon fill="#181818" points="857.5,366.3438,867.5,370.3438,857.5,374.3438,861.5,370.3438" style="stroke:#181818;stroke-width:1.0;"/><line style="stroke:#181818;stroke-width:1.0;" x1="632.5" x2="863.5" y1="370.3438" y2="370.3438"/><text fill="#000000" font-family="sans-serif" font-size="11" lengthAdjust="spacing" textLength="218" x="642" y="365.7495">Vérifier pièces requises (règle métier)</text><polygon fill="#181818" points="1291.5,393.1484,1301.5,397.1484,1291.5,401.1484,1295.5,397.1484" style="stroke:#181818;stroke-width:1.0;"/><line style="stroke:#181818;stroke-width:1.0;" x1="879.5" x2="1297.5" y1="397.1484" y2="397.1484"/><text fill="#000000" font-family="sans-serif" font-size="11" lengthAdjust="spacing" textLength="126" x="1028.5" y="392.5542">SELECT pièces jointes</text><polygon fill="#181818" points="890.5,407.1484,880.5,411.1484,890.5,415.1484,886.5,411.1484" style="stroke:#181818;stroke-width:1.0;"/><line style="stroke:#181818;stroke-width:1.0;stroke-dasharray:2.0,2.0;" x1="884.5" x2="1307.5" y1="411.1484" y2="411.1484"/><polygon fill="#181818" points="643.5,433.9531,633.5,437.9531,643.5,441.9531,639.5,437.9531" style="stroke:#181818;stroke-width:1.0;"/><line style="stroke:#181818;stroke-width:1.0;stroke-dasharray:2.0,2.0;" x1="637.5" x2="873.5" y1="437.9531" y2="437.9531"/><text fill="#000000" font-family="sans-serif" font-size="11" lengthAdjust="spacing" textLength="44" x="731.5" y="433.3589">résultat</text><path d="M14,452.9531 L72,452.9531 L72,457.7578 L62,467.7578 L10,467.7578 L10,456.9531 A4,4 0 0 1 14,452.9531 " fill="#EEEEEE" style="stroke:#000000;stroke-width:1.5;"/><rect fill="none" height="474.875" rx="4" ry="4" style="stroke:#000000;stroke-width:1.5;" width="1358.5" x="10" y="452.9531"/><text fill="#000000" font-family="sans-serif" font-size="11" font-weight="bold" lengthAdjust="spacing" textLength="17" x="25" y="464.1636">alt</text><text fill="#000000" font-family="sans-serif" font-size="11" font-weight="bold" lengthAdjust="spacing" textLength="198" x="87" y="465.1636">[Préconditions non satisfaites]</text><polygon fill="#181818" points="454.5,482.5625,444.5,486.5625,454.5,490.5625,450.5,486.5625" style="stroke:#181818;stroke-width:1.0;"/><line style="stroke:#181818;stroke-width:1.0;stroke-dasharray:2.0,2.0;" x1="448.5" x2="621.5" y1="486.5625" y2="486.5625"/><text fill="#000000" font-family="sans-serif" font-size="11" lengthAdjust="spacing" textLength="108" x="479" y="481.9683">erreur métier (4xx)</text><polygon fill="#181818" points="214.5,509.3672,204.5,513.3672,214.5,517.3672,210.5,513.3672" style="stroke:#181818;stroke-width:1.0;"/><line style="stroke:#181818;stroke-width:1.0;stroke-dasharray:2.0,2.0;" x1="208.5" x2="437.5" y1="513.3672" y2="513.3672"/><text fill="#000000" font-family="sans-serif" font-size="11" lengthAdjust="spacing" textLength="160" x="241" y="508.7729">réponse d'erreur structurée</text><polygon fill="#181818" points="54.5,536.1719,44.5,540.1719,54.5,544.1719,50.5,540.1719" style="stroke:#181818;stroke-width:1.0;"/><line style="stroke:#181818;stroke-width:1.0;stroke-dasharray:2.0,2.0;" x1="48.5" x2="197.5" y1="540.1719" y2="540.1719"/><text fill="#000000" font-family="sans-serif" font-size="11" lengthAdjust="spacing" textLength="101" x="70.5" y="535.5776">Message d'erreur</text><line style="stroke:#000000;stroke-width:1.0;stroke-dasharray:2.0,2.0;" x1="10" x2="1368.5" y1="549.1719" y2="549.1719"/><text fill="#000000" font-family="sans-serif" font-size="11" font-weight="bold" lengthAdjust="spacing" textLength="146" x="15" y="559.3823">[Soumission acceptée]</text><polygon fill="#181818" points="1291.5,577.7813,1301.5,581.7813,1291.5,585.7813,1295.5,581.7813" style="stroke:#181818;stroke-width:1.0;"/><line style="stroke:#181818;stroke-width:1.0;" x1="627.5" x2="1297.5" y1="581.7813" y2="581.7813"/><text fill="#000000" font-family="sans-serif" font-size="11" lengthAdjust="spacing" textLength="103" x="914" y="577.187">BEGIN transaction</text><polygon fill="#181818" points="1001,617.3906,1011,621.3906,1001,625.3906,1005,621.3906" style="stroke:#181818;stroke-width:1.0;"/><line style="stroke:#181818;stroke-width:1.0;" x1="627.5" x2="1007" y1="621.3906" y2="621.3906"/><text fill="#000000" font-family="sans-serif" font-size="11" lengthAdjust="spacing" textLength="122" x="759.25" y="603.9917">enregistrerHistorique</text><text fill="#000000" font-family="sans-serif" font-size="11" lengthAdjust="spacing" textLength="134" x="753.25" y="616.7964">(BROUILLON → SOUMIS)</text><polygon fill="#181818" points="1296.5,644.1953,1306.5,648.1953,1296.5,652.1953,1300.5,648.1953" style="stroke:#181818;stroke-width:1.0;"/><line style="stroke:#181818;stroke-width:1.0;" x1="1023" x2="1302.5" y1="648.1953" y2="648.1953"/><text fill="#000000" font-family="sans-serif" font-size="11" lengthAdjust="spacing" textLength="129" x="1101.25" y="643.6011">INSERT historique_etat</text><polygon fill="#181818" points="1034,658.1953,1024,662.1953,1034,666.1953,1030,662.1953" style="stroke:#181818;stroke-width:1.0;"/><line style="stroke:#181818;stroke-width:1.0;stroke-dasharray:2.0,2.0;" x1="1028" x2="1302.5" y1="662.1953" y2="662.1953"/><polygon fill="#181818" points="638.5,672.1953,628.5,676.1953,638.5,680.1953,634.5,676.1953" style="stroke:#181818;stroke-width:1.0;"/><line style="stroke:#181818;stroke-width:1.0;stroke-dasharray:2.0,2.0;" x1="632.5" x2="1017" y1="676.1953" y2="676.1953"/><polygon fill="#181818" points="1296.5,699,1306.5,703,1296.5,707,1300.5,703" style="stroke:#181818;stroke-width:1.0;"/><line style="stroke:#181818;stroke-width:1.0;" x1="627.5" x2="1302.5" y1="703" y2="703"/><text fill="#000000" font-family="sans-serif" font-size="11" lengthAdjust="spacing" textLength="179" x="878.5" y="698.4058">UPDATE état courant = SOUMIS</text><polygon fill="#181818" points="638.5,713,628.5,717,638.5,721,634.5,717" style="stroke:#181818;stroke-width:1.0;"/><line style="stroke:#181818;stroke-width:1.0;stroke-dasharray:2.0,2.0;" x1="632.5" x2="1302.5" y1="717" y2="717"/><polygon fill="#181818" points="1136.5,739.8047,1146.5,743.8047,1136.5,747.8047,1140.5,743.8047" style="stroke:#181818;stroke-width:1.0;"/><line style="stroke:#181818;stroke-width:1.0;" x1="627.5" x2="1142.5" y1="743.8047" y2="743.8047"/><text fill="#000000" font-family="sans-serif" font-size="11" lengthAdjust="spacing" textLength="161" x="807.5" y="739.2104">créerNotifications(demande)</text><polygon fill="#181818" points="1296.5,766.6094,1306.5,770.6094,1296.5,774.6094,1300.5,770.6094" style="stroke:#181818;stroke-width:1.0;"/><line style="stroke:#181818;stroke-width:1.0;" x1="1158.5" x2="1302.5" y1="770.6094" y2="770.6094"/><text fill="#000000" font-family="sans-serif" font-size="11" lengthAdjust="spacing" textLength="121" x="1173" y="766.0151">INSERT notification(s)</text><polygon fill="#181818" points="1169.5,780.6094,1159.5,784.6094,1169.5,788.6094,1165.5,784.6094" style="stroke:#181818;stroke-width:1.0;"/><line style="stroke:#181818;stroke-width:1.0;stroke-dasharray:2.0,2.0;" x1="1163.5" x2="1302.5" y1="784.6094" y2="784.6094"/><polygon fill="#181818" points="638.5,794.6094,628.5,798.6094,638.5,802.6094,634.5,798.6094" style="stroke:#181818;stroke-width:1.0;"/><line style="stroke:#181818;stroke-width:1.0;stroke-dasharray:2.0,2.0;" x1="632.5" x2="1152.5" y1="798.6094" y2="798.6094"/><polygon fill="#181818" points="1291.5,821.4141,1301.5,825.4141,1291.5,829.4141,1295.5,825.4141" style="stroke:#181818;stroke-width:1.0;"/><line style="stroke:#181818;stroke-width:1.0;" x1="627.5" x2="1297.5" y1="825.4141" y2="825.4141"/><text fill="#000000" font-family="sans-serif" font-size="11" lengthAdjust="spacing" textLength="45" x="943" y="820.8198">COMMIT</text><polygon fill="#181818" points="638.5,835.4141,628.5,839.4141,638.5,843.4141,634.5,839.4141" style="stroke:#181818;stroke-width:1.0;"/><line style="stroke:#181818;stroke-width:1.0;stroke-dasharray:2.0,2.0;" x1="632.5" x2="1307.5" y1="839.4141" y2="839.4141"/><polygon fill="#181818" points="449.5,862.2188,439.5,866.2188,449.5,870.2188,445.5,866.2188" style="stroke:#181818;stroke-width:1.0;"/><line style="stroke:#181818;stroke-width:1.0;stroke-dasharray:2.0,2.0;" x1="443.5" x2="626.5" y1="866.2188" y2="866.2188"/><text fill="#000000" font-family="sans-serif" font-size="11" lengthAdjust="spacing" textLength="73" x="496.5" y="861.6245">DemandeDto</text><polygon fill="#181818" points="209.5,889.0234,199.5,893.0234,209.5,897.0234,205.5,893.0234" style="stroke:#181818;stroke-width:1.0;"/><line style="stroke:#181818;stroke-width:1.0;stroke-dasharray:2.0,2.0;" x1="203.5" x2="437.5" y1="893.0234" y2="893.0234"/><text fill="#000000" font-family="sans-serif" font-size="11" lengthAdjust="spacing" textLength="131" x="253" y="888.4292">200 OK + DemandeDto</text><polygon fill="#181818" points="54.5,915.8281,44.5,919.8281,54.5,923.8281,50.5,919.8281" style="stroke:#181818;stroke-width:1.0;"/><line style="stroke:#181818;stroke-width:1.0;stroke-dasharray:2.0,2.0;" x1="48.5" x2="197.5" y1="919.8281" y2="919.8281"/><text fill="#000000" font-family="sans-serif" font-size="11" lengthAdjust="spacing" textLength="73" x="84.5" y="915.2339">Confirmation</text><path d="M577,943.8281 L577,970.8281 A4,4 0 0 0 581,974.8281 L1354,974.8281 A4,4 0 0 0 1358,970.8281 L1358,949.8281 L1348,939.8281 L581,939.8281 A4,4 0 0 0 577,943.8281 " fill="#FEFFDD" style="stroke:#181818;stroke-width:0.5;"/><path d="M1348,939.8281 L1348,947.8281 A2,2 0 0 0 1350,949.8281 L1358,949.8281 L1348,939.8281 " fill="#FEFFDD" style="stroke:#181818;stroke-width:0.5;"/><text fill="#000000" font-family="sans-serif" font-size="11" lengthAdjust="spacing" textLength="298" x="814" y="955.0386">Scénario d'exception : en cas d'erreur après BEGIN,</text><text fill="#000000" font-family="sans-serif" font-size="11" lengthAdjust="spacing" textLength="257" x="814" y="967.8433">ROLLBACK et erreur structurée vers le client.</text><!--MD5=[78660d74a12785d6c8fd7e24ac566cf7]
@startuml
title Diagramme de séquences : soumission d'une demande - E-Services

skinparam defaultFontSize 11
skinparam shadowing false
skinparam roundcorner 8
skinparam sequenceMessageAlign center

actor "Usager" as U
participant "ClientReact" as CR
participant "DemandeController" as DC
participant "DemandeService" as DS
participant "PieceJointeRepository" as PJR
participant "HistoriqueRepository" as HR
participant "NotificationService" as NS
database "BaseDeDonnees" as DB

U -> CR : Soumettre la demande
activate CR

CR -> DC : POST /api/demandes/{id}/soumettre\n(Authorization: Bearer JWT)
activate DC

DC -> DC : Valider jeton et autorisations

DC -> DS : soumettre(idDemande)
activate DS

DS -> DB : Charger Demande / EtatDemande
activate DB
DB - -> DS
deactivate DB

DS -> DS : Vérifier état courant = BROUILLON\net complétude minimale

DS -> PJR : Vérifier pièces requises (règle métier)
activate PJR
PJR -> DB : SELECT pièces jointes
activate DB
DB - -> PJR
deactivate DB
PJR - -> DS : résultat
deactivate PJR

alt Préconditions non satisfaites
  DS - -> DC : erreur métier (4xx)
  DC - -> CR : réponse d'erreur structurée
  deactivate DS
  deactivate DC
  CR - -> U : Message d'erreur
  deactivate CR
else Soumission acceptée
  DS -> DB : BEGIN transaction
  activate DB

  DS -> HR : enregistrerHistorique\n(BROUILLON → SOUMIS)
  activate HR
  HR -> DB : INSERT historique_etat
  activate DB
  DB - -> HR
  deactivate DB
  HR - -> DS
  deactivate HR

  DS -> DB : UPDATE état courant = SOUMIS
  activate DB
  DB - -> DS
  deactivate DB

  DS -> NS : créerNotifications(demande)
  activate NS
  NS -> DB : INSERT notification(s)
  activate DB
  DB - -> NS
  deactivate DB
  NS - -> DS
  deactivate NS

  DS -> DB : COMMIT
  DB - -> DS
  deactivate DB

  DS - -> DC : DemandeDto
  deactivate DS

  DC - -> CR : 200 OK + DemandeDto
  deactivate DC

  CR - -> U : Confirmation
  deactivate CR
end

note over DS, DB
  Scénario d'exception : en cas d'erreur après BEGIN,
  ROLLBACK et erreur structurée vers le client.
end note
@enduml

PlantUML version 1.2022.7(Mon Aug 22 17:01:30 UTC 2022)
(GPL source distribution)
Java Runtime: OpenJDK Runtime Environment
JVM: OpenJDK 64-Bit Server VM
Default Encoding: UTF-8
Language: en
Country: null
--></g></svg>