<svg xmlns="http://www.w3.org/2000/svg" xmlns:xlink="http://www.w3.org/1999/xlink" contentStyleType="text/css" height="1177px" preserveAspectRatio="none" style="width:1462px;height:1177px;background:#FFFFFF;" version="1.1" viewBox="0 0 1462 1177" width="1462px" zoomAndPan="magnify"><defs/><g><rect fill="none" height="26.2969" id="_title" rx="4" ry="4" style="stroke:none;stroke-width:1.0;" width="546" x="459.25" y="10"/><text fill="#000000" font-family="sans-serif" font-size="14" font-weight="bold" lengthAdjust="spacing" textLength="536" x="464.25" y="27.9951">Diagramme de séquences : soumission d'une demande - E-Services</text><rect fill="#FFFFFF" height="434.6797" style="stroke:#181818;stroke-width:1.0;" width="10" x="193.5" y="143.9063"/><rect fill="#FFFFFF" height="355.4609" style="stroke:#181818;stroke-width:1.0;" width="10" x="493.5" y="196.3203"/><rect fill="#FFFFFF" height="276.0469" style="stroke:#181818;stroke-width:1.0;" width="10" x="709.5" y="275.7344"/><rect fill="#FFFFFF" height="67.6094" style="stroke:#181818;stroke-width:1.0;" width="10" x="956.5" y="395.9531"/><rect fill="#FFFFFF" height="54.8047" style="stroke:#181818;stroke-width:1.0;" width="10" x="1100" y="659.8047"/><rect fill="#FFFFFF" height="54.8047" style="stroke:#181818;stroke-width:1.0;" width="10" x="1235.5" y="782.2188"/><rect fill="#FFFFFF" height="14" style="stroke:#181818;stroke-width:1.0;" width="10" x="1390.5" y="302.5391"/><rect fill="#FFFFFF" height="14" style="stroke:#181818;stroke-width:1.0;" width="10" x="1390.5" y="422.7578"/><rect fill="#FFFFFF" height="257.6328" style="stroke:#181818;stroke-width:1.0;" width="10" x="1390.5" y="620.1953"/><rect fill="#FFFFFF" height="14" style="stroke:#181818;stroke-width:1.0;" width="10" x="1395.5" y="686.6094"/><rect fill="#FFFFFF" height="14" style="stroke:#181818;stroke-width:1.0;" width="10" x="1395.5" y="741.4141"/><rect fill="#FFFFFF" height="14" style="stroke:#181818;stroke-width:1.0;" width="10" x="1395.5" y="809.0234"/><rect fill="none" height="500.4844" rx="4" ry="4" style="stroke:#000000;stroke-width:1.5;" width="1445.5" x="10" y="478.5625"/><line style="stroke:#181818;stroke-width:0.5;stroke-dasharray:5.0,5.0;" x1="43" x2="43" y1="115.1016" y2="1100.0703"/><line style="stroke:#181818;stroke-width:0.5;stroke-dasharray:5.0,5.0;" x1="198" x2="198" y1="115.1016" y2="1100.0703"/><line style="stroke:#181818;stroke-width:0.5;stroke-dasharray:5.0,5.0;" x1="498.5" x2="498.5" y1="115.1016" y2="1100.0703"/><line style="stroke:#181818;stroke-width:0.5;stroke-dasharray:5.0,5.0;" x1="714.5" x2="714.5" y1="115.1016" y2="1100.0703"/><line style="stroke:#181818;stroke-width:0.5;stroke-dasharray:5.0,5.0;" x1="961" x2="961" y1="115.1016" y2="1100.0703"/><line style="stroke:#181818;stroke-width:0.5;stroke-dasharray:5.0,5.0;" x1="1105" x2="1105" y1="115.1016" y2="1100.0703"/><line style="stroke:#181818;stroke-width:0.5;stroke-dasharray:5.0,5.0;" x1="1240" x2="1240" y1="115.1016" y2="1100.0703"/><line style="stroke:#181818;stroke-width:0.5;stroke-dasharray:5.0,5.0;" x1="1395.5" x2="1395.5" y1="115.1016" y2="1100.0703"/><text fill="#000000" font-family="sans-serif" font-size="11" lengthAdjust="spacing" textLength="41" x="20" y="112.5073">Usager</text><ellipse cx="43.5" cy="50.7969" fill="#E2E2F0" rx="8" ry="8" style="stroke:#181818;stroke-width:0.5;"/><path d="M43.5,58.7969 L43.5,85.7969 M30.5,66.7969 L56.5,66.7969 M43.5,85.7969 L30.5,100.7969 M43.5,85.7969 L56.5,100.7969 " fill="none" style="stroke:#181818;stroke-width:0.5;"/><text fill="#000000" font-family="sans-serif" font-size="11" lengthAdjust="spacing" textLength="41" x="20" y="1109.2808">Usager</text><ellipse cx="43.5" cy="1120.375" fill="#E2E2F0" rx="8" ry="8" style="stroke:#181818;stroke-width:0.5;"/><path d="M43.5,1128.375 L43.5,1155.375 M30.5,1136.375 L56.5,1136.375 M43.5,1155.375 L30.5,1170.375 M43.5,1155.375 L56.5,1170.375 " fill="none" style="stroke:#181818;stroke-width:0.5;"/><rect fill="#E2E2F0" height="26.8047" rx="4" ry="4" style="stroke:#181818;stroke-width:0.5;" width="77" x="160" y="87.2969"/><text fill="#000000" font-family="sans-serif" font-size="11" lengthAdjust="spacing" textLength="63" x="167" y="104.5073">ClientReact</text><rect fill="#E2E2F0" height="26.8047" rx="4" ry="4" style="stroke:#181818;stroke-width:0.5;" width="77" x="160" y="1099.0703"/><text fill="#000000" font-family="sans-serif" font-size="11" lengthAdjust="spacing" textLength="63" x="167" y="1116.2808">ClientReact</text><rect fill="#E2E2F0" height="26.8047" rx="4" ry="4" style="stroke:#181818;stroke-width:0.5;" width="124" x="436.5" y="87.2969"/><text fill="#000000" font-family="sans-serif" font-size="11" lengthAdjust="spacing" textLength="110" x="443.5" y="104.5073">DemandeController</text><rect fill="#E2E2F0" height="26.8047" rx="4" ry="4" style="stroke:#181818;stroke-width:0.5;" width="124" x="436.5" y="1099.0703"/><text fill="#000000" font-family="sans-serif" font-size="11" lengthAdjust="spacing" textLength="110" x="443.5" y="1116.2808">DemandeController</text><rect fill="#E2E2F0" height="26.8047" rx="4" ry="4" style="stroke:#181818;stroke-width:0.5;" width="110" x="659.5" y="87.2969"/><text fill="#000000" font-family="sans-serif" font-size="11" lengthAdjust="spacing" textLength="96" x="666.5" y="104.5073">DemandeService</text><rect fill="#E2E2F0" height="26.8047" rx="4" ry="4" style="stroke:#181818;stroke-width:0.5;" width="110" x="659.5" y="1099.0703"/><text fill="#000000" font-family="sans-serif" font-size="11" lengthAdjust="spacing" textLength="96" x="666.5" y="1116.2808">DemandeService</text><rect fill="#E2E2F0" height="26.8047" rx="4" ry="4" style="stroke:#181818;stroke-width:0.5;" width="135" x="894" y="87.2969"/><text fill="#000000" font-family="sans-serif" font-size="11" lengthAdjust="spacing" textLength="121" x="901" y="104.5073">PieceJointeRepository</text><rect fill="#E2E2F0" height="26.8047" rx="4" ry="4" style="stroke:#181818;stroke-width:0.5;" width="135" x="894" y="1099.0703"/><text fill="#000000" font-family="sans-serif" font-size="11" lengthAdjust="spacing" textLength="121" x="901" y="1116.2808">PieceJointeRepository</text><rect fill="#E2E2F0" height="26.8047" rx="4" ry="4" style="stroke:#181818;stroke-width:0.5;" width="132" x="1039" y="87.2969"/><text fill="#000000" font-family="sans-serif" font-size="11" lengthAdjust="spacing" textLength="118" x="1046" y="104.5073">HistoriqueRepository</text><rect fill="#E2E2F0" height="26.8047" rx="4" ry="4" style="stroke:#181818;stroke-width:0.5;" width="132" x="1039" y="1099.0703"/><text fill="#000000" font-family="sans-serif" font-size="11" lengthAdjust="spacing" textLength="118" x="1046" y="1116.2808">HistoriqueRepository</text><rect fill="#E2E2F0" height="26.8047" rx="4" ry="4" style="stroke:#181818;stroke-width:0.5;" width="119" x="1181" y="87.2969"/><text fill="#000000" font-family="sans-serif" font-size="11" lengthAdjust="spacing" textLength="105" x="1188" y="104.5073">NotificationService</text><rect fill="#E2E2F0" height="26.8047" rx="4" ry="4" style="stroke:#181818;stroke-width:0.5;" width="119" x="1181" y="1099.0703"/><text fill="#000000" font-family="sans-serif" font-size="11" lengthAdjust="spacing" textLength="105" x="1188" y="1116.2808">NotificationService</text><text fill="#000000" font-family="sans-serif" font-size="11" lengthAdjust="spacing" textLength="94" x="1345.5" y="112.5073">BaseDeDonnees</text><path d="M1377.5,66.2969 C1377.5,56.2969 1395.5,56.2969 1395.5,56.2969 C1395.5,56.2969 1413.5,56.2969 1413.5,66.2969 L1413.5,92.2969 C1413.5,102.2969 1395.5,102.2969 1395.5,102.2969 C1395.5,102.2969 1377.5,102.2969 1377.5,92.2969 L1377.5,66.2969 " fill="#E2E2F0" style="stroke:#181818;stroke-width:1.5;"/><path d="M1377.5,66.2969 C1377.5,76.2969 1395.5,76.2969 1395.5,76.2969 C1395.5,76.2969 1413.5,76.2969 1413.5,66.2969 " fill="none" style="stroke:#181818;stroke-width:1.5;"/><text fill="#000000" font-family="sans-serif" font-size="11" lengthAdjust="spacing" textLength="94" x="1345.5" y="1109.2808">BaseDeDonnees</text><path d="M1377.5,1121.875 C1377.5,1111.875 1395.5,1111.875 1395.5,1111.875 C1395.5,1111.875 1413.5,1111.875 1413.5,1121.875 L1413.5,1147.875 C1413.5,1157.875 1395.5,1157.875 1395.5,1157.875 C1395.5,1157.875 1377.5,1157.875 1377.5,1147.875 L1377.5,1121.875 " fill="#E2E2F0" style="stroke:#181818;stroke-width:1.5;"/><path d="M1377.5,1121.875 C1377.5,1131.875 1395.5,1131.875 1395.5,1131.875 C1395.5,1131.875 1413.5,1131.875 1413.5,1121.875 " fill="none" style="stroke:#181818;stroke-width:1.5;"/><rect fill="#FFFFFF" height="434.6797" style="stroke:#181818;stroke-width:1.0;" width="10" x="193.5" y="143.9063"/><rect fill="#FFFFFF" height="355.4609" style="stroke:#181818;stroke-width:1.0;" width="10" x="493.5" y="196.3203"/><rect fill="#FFFFFF" height="276.0469" style="stroke:#181818;stroke-width:1.0;" width="10" x="709.5" y="275.7344"/><rect fill="#FFFFFF" height="67.6094" style="stroke:#181818;stroke-width:1.0;" width="10" x="956.5" y="395.9531"/><rect fill="#FFFFFF" height="54.8047" style="stroke:#181818;stroke-width:1.0;" width="10" x="1100" y="659.8047"/><rect fill="#FFFFFF" height="54.8047" style="stroke:#181818;stroke-width:1.0;" width="10" x="1235.5" y="782.2188"/><rect fill="#FFFFFF" height="14" style="stroke:#181818;stroke-width:1.0;" width="10" x="1390.5" y="302.5391"/><rect fill="#FFFFFF" height="14" style="stroke:#181818;stroke-width:1.0;" width="10" x="1390.5" y="422.7578"/><rect fill="#FFFFFF" height="257.6328" style="stroke:#181818;stroke-width:1.0;" width="10" x="1390.5" y="620.1953"/><rect fill="#FFFFFF" height="14" style="stroke:#181818;stroke-width:1.0;" width="10" x="1395.5" y="686.6094"/><rect fill="#FFFFFF" height="14" style="stroke:#181818;stroke-width:1.0;" width="10" x="1395.5" y="741.4141"/><rect fill="#FFFFFF" height="14" style="stroke:#181818;stroke-width:1.0;" width="10" x="1395.5" y="809.0234"/><polygon fill="#181818" points="181.5,139.9063,191.5,143.9063,181.5,147.9063,185.5,143.9063" style="stroke:#181818;stroke-width:1.0;"/><line style="stroke:#181818;stroke-width:1.0;" x1="43.5" x2="187.5" y1="143.9063" y2="143.9063"/><text fill="#000000" font-family="sans-serif" font-size="11" lengthAdjust="spacing" textLength="131" x="53" y="139.312">Soumettre la demande</text><polygon fill="#181818" points="481.5,192.3203,491.5,196.3203,481.5,200.3203,485.5,196.3203" style="stroke:#181818;stroke-width:1.0;"/><line style="stroke:#181818;stroke-width:1.0;" x1="203.5" x2="487.5" y1="196.3203" y2="196.3203"/><text fill="#000000" font-family="sans-serif" font-size="11" lengthAdjust="spacing" textLength="211" x="243" y="166.1167">POST /api/demandes/{id}/soumettre</text><text fill="#000000" font-family="sans-serif" font-size="11" font-weight="bold" lengthAdjust="spacing" textLength="44" x="213" y="178.9214">Cookie</text><text fill="#000000" font-family="sans-serif" font-size="11" lengthAdjust="spacing" textLength="223" x="261" y="178.9214">: session (httpOnly, Secure, SameSite)</text><text fill="#000000" font-family="sans-serif" font-size="11" lengthAdjust="spacing" textLength="41" x="259.5" y="191.7261">+ fetch</text><text fill="#000000" font-family="sans-serif" font-size="11" font-weight="bold" lengthAdjust="spacing" textLength="133" x="304.5" y="191.7261">credentials: 'include'</text><line style="stroke:#181818;stroke-width:1.0;" x1="503.5" x2="545.5" y1="235.9297" y2="235.9297"/><line style="stroke:#181818;stroke-width:1.0;" x1="545.5" x2="545.5" y1="235.9297" y2="248.9297"/><line style="stroke:#181818;stroke-width:1.0;" x1="504.5" x2="545.5" y1="248.9297" y2="248.9297"/><polygon fill="#181818" points="514.5,244.9297,504.5,248.9297,514.5,252.9297,510.5,248.9297" style="stroke:#181818;stroke-width:1.0;"/><text fill="#000000" font-family="sans-serif" font-size="11" lengthAdjust="spacing" textLength="160" x="510.5" y="218.5308">Valider le cookie de session</text><text fill="#000000" font-family="sans-serif" font-size="11" lengthAdjust="spacing" textLength="151" x="515" y="231.3354">charger le principal / rôles</text><polygon fill="#181818" points="697.5,271.7344,707.5,275.7344,697.5,279.7344,701.5,275.7344" style="stroke:#181818;stroke-width:1.0;"/><line style="stroke:#181818;stroke-width:1.0;" x1="503.5" x2="703.5" y1="275.7344" y2="275.7344"/><text fill="#000000" font-family="sans-serif" font-size="11" lengthAdjust="spacing" textLength="187" x="513" y="271.1401">soumettre(idDemande, principal)</text><polygon fill="#181818" points="1378.5,298.5391,1388.5,302.5391,1378.5,306.5391,1382.5,302.5391" style="stroke:#181818;stroke-width:1.0;"/><line style="stroke:#181818;stroke-width:1.0;" x1="719.5" x2="1384.5" y1="302.5391" y2="302.5391"/><text fill="#000000" font-family="sans-serif" font-size="11" lengthAdjust="spacing" textLength="192" x="959" y="297.9448">Charger Demande / EtatDemande</text><polygon fill="#181818" points="730.5,312.5391,720.5,316.5391,730.5,320.5391,726.5,316.5391" style="stroke:#181818;stroke-width:1.0;"/><line style="stroke:#181818;stroke-width:1.0;stroke-dasharray:2.0,2.0;" x1="724.5" x2="1394.5" y1="316.5391" y2="316.5391"/><line style="stroke:#181818;stroke-width:1.0;" x1="719.5" x2="761.5" y1="356.1484" y2="356.1484"/><line style="stroke:#181818;stroke-width:1.0;" x1="761.5" x2="761.5" y1="356.1484" y2="369.1484"/><line style="stroke:#181818;stroke-width:1.0;" x1="720.5" x2="761.5" y1="369.1484" y2="369.1484"/><polygon fill="#181818" points="730.5,365.1484,720.5,369.1484,730.5,373.1484,726.5,369.1484" style="stroke:#181818;stroke-width:1.0;"/><text fill="#000000" font-family="sans-serif" font-size="11" lengthAdjust="spacing" textLength="195" x="726.5" y="338.7495">Vérifier état courant = BROUILLON</text><text fill="#000000" font-family="sans-serif" font-size="11" lengthAdjust="spacing" textLength="137" x="755.5" y="351.5542">et complétude minimale</text><polygon fill="#181818" points="944.5,391.9531,954.5,395.9531,944.5,399.9531,948.5,395.9531" style="stroke:#181818;stroke-width:1.0;"/><line style="stroke:#181818;stroke-width:1.0;" x1="719.5" x2="950.5" y1="395.9531" y2="395.9531"/><text fill="#000000" font-family="sans-serif" font-size="11" lengthAdjust="spacing" textLength="218" x="729" y="391.3589">Vérifier pièces requises (règle métier)</text><polygon fill="#181818" points="1378.5,418.7578,1388.5,422.7578,1378.5,426.7578,1382.5,422.7578" style="stroke:#181818;stroke-width:1.0;"/><line style="stroke:#181818;stroke-width:1.0;" x1="966.5" x2="1384.5" y1="422.7578" y2="422.7578"/><text fill="#000000" font-family="sans-serif" font-size="11" lengthAdjust="spacing" textLength="126" x="1115.5" y="418.1636">SELECT pièces jointes</text><polygon fill="#181818" points="977.5,432.7578,967.5,436.7578,977.5,440.7578,973.5,436.7578" style="stroke:#181818;stroke-width:1.0;"/><line style="stroke:#181818;stroke-width:1.0;stroke-dasharray:2.0,2.0;" x1="971.5" x2="1394.5" y1="436.7578" y2="436.7578"/><polygon fill="#181818" points="730.5,459.5625,720.5,463.5625,730.5,467.5625,726.5,463.5625" style="stroke:#181818;stroke-width:1.0;"/><line style="stroke:#181818;stroke-width:1.0;stroke-dasharray:2.0,2.0;" x1="724.5" x2="960.5" y1="463.5625" y2="463.5625"/><text fill="#000000" font-family="sans-serif" font-size="11" lengthAdjust="spacing" textLength="44" x="818.5" y="458.9683">résultat</text><path d="M14,478.5625 L72,478.5625 L72,483.3672 L62,493.3672 L10,493.3672 L10,482.5625 A4,4 0 0 1 14,478.5625 " fill="#EEEEEE" style="stroke:#000000;stroke-width:1.5;"/><rect fill="none" height="500.4844" rx="4" ry="4" style="stroke:#000000;stroke-width:1.5;" width="1445.5" x="10" y="478.5625"/><text fill="#000000" font-family="sans-serif" font-size="11" font-weight="bold" lengthAdjust="spacing" textLength="17" x="25" y="489.7729">alt</text><text fill="#000000" font-family="sans-serif" font-size="11" font-weight="bold" lengthAdjust="spacing" textLength="198" x="87" y="490.7729">[Préconditions non satisfaites]</text><polygon fill="#181818" points="514.5,508.1719,504.5,512.1719,514.5,516.1719,510.5,512.1719" style="stroke:#181818;stroke-width:1.0;"/><line style="stroke:#181818;stroke-width:1.0;stroke-dasharray:2.0,2.0;" x1="508.5" x2="708.5" y1="512.1719" y2="512.1719"/><text fill="#000000" font-family="sans-serif" font-size="11" lengthAdjust="spacing" textLength="108" x="552.5" y="507.5776">erreur métier (4xx)</text><polygon fill="#181818" points="214.5,547.7813,204.5,551.7813,214.5,555.7813,210.5,551.7813" style="stroke:#181818;stroke-width:1.0;"/><line style="stroke:#181818;stroke-width:1.0;stroke-dasharray:2.0,2.0;" x1="208.5" x2="497.5" y1="551.7813" y2="551.7813"/><text fill="#000000" font-family="sans-serif" font-size="11" lengthAdjust="spacing" textLength="160" x="271" y="534.3823">réponse d'erreur structurée</text><text fill="#000000" font-family="sans-serif" font-size="11" lengthAdjust="spacing" textLength="240" x="231" y="547.187">(sans changer le cookie si session valide)</text><polygon fill="#181818" points="54.5,574.5859,44.5,578.5859,54.5,582.5859,50.5,578.5859" style="stroke:#181818;stroke-width:1.0;"/><line style="stroke:#181818;stroke-width:1.0;stroke-dasharray:2.0,2.0;" x1="48.5" x2="197.5" y1="578.5859" y2="578.5859"/><text fill="#000000" font-family="sans-serif" font-size="11" lengthAdjust="spacing" textLength="101" x="70.5" y="573.9917">Message d'erreur</text><line style="stroke:#000000;stroke-width:1.0;stroke-dasharray:2.0,2.0;" x1="10" x2="1455.5" y1="587.5859" y2="587.5859"/><text fill="#000000" font-family="sans-serif" font-size="11" font-weight="bold" lengthAdjust="spacing" textLength="146" x="15" y="597.7964">[Soumission acceptée]</text><polygon fill="#181818" points="1378.5,616.1953,1388.5,620.1953,1378.5,624.1953,1382.5,620.1953" style="stroke:#181818;stroke-width:1.0;"/><line style="stroke:#181818;stroke-width:1.0;" x1="714.5" x2="1384.5" y1="620.1953" y2="620.1953"/><text fill="#000000" font-family="sans-serif" font-size="11" lengthAdjust="spacing" textLength="103" x="1001" y="615.6011">BEGIN transaction</text><polygon fill="#181818" points="1088,655.8047,1098,659.8047,1088,663.8047,1092,659.8047" style="stroke:#181818;stroke-width:1.0;"/><line style="stroke:#181818;stroke-width:1.0;" x1="714.5" x2="1094" y1="659.8047" y2="659.8047"/><text fill="#000000" font-family="sans-serif" font-size="11" lengthAdjust="spacing" textLength="122" x="846.25" y="642.4058">enregistrerHistorique</text><text fill="#000000" font-family="sans-serif" font-size="11" lengthAdjust="spacing" textLength="134" x="840.25" y="655.2104">(BROUILLON → SOUMIS)</text><polygon fill="#181818" points="1383.5,682.6094,1393.5,686.6094,1383.5,690.6094,1387.5,686.6094" style="stroke:#181818;stroke-width:1.0;"/><line style="stroke:#181818;stroke-width:1.0;" x1="1110" x2="1389.5" y1="686.6094" y2="686.6094"/><text fill="#000000" font-family="sans-serif" font-size="11" lengthAdjust="spacing" textLength="129" x="1188.25" y="682.0151">INSERT historique_etat</text><polygon fill="#181818" points="1121,696.6094,1111,700.6094,1121,704.6094,1117,700.6094" style="stroke:#181818;stroke-width:1.0;"/><line style="stroke:#181818;stroke-width:1.0;stroke-dasharray:2.0,2.0;" x1="1115" x2="1389.5" y1="700.6094" y2="700.6094"/><polygon fill="#181818" points="725.5,710.6094,715.5,714.6094,725.5,718.6094,721.5,714.6094" style="stroke:#181818;stroke-width:1.0;"/><line style="stroke:#181818;stroke-width:1.0;stroke-dasharray:2.0,2.0;" x1="719.5" x2="1104" y1="714.6094" y2="714.6094"/><polygon fill="#181818" points="1383.5,737.4141,1393.5,741.4141,1383.5,745.4141,1387.5,741.4141" style="stroke:#181818;stroke-width:1.0;"/><line style="stroke:#181818;stroke-width:1.0;" x1="714.5" x2="1389.5" y1="741.4141" y2="741.4141"/><text fill="#000000" font-family="sans-serif" font-size="11" lengthAdjust="spacing" textLength="179" x="965.5" y="736.8198">UPDATE état courant = SOUMIS</text><polygon fill="#181818" points="725.5,751.4141,715.5,755.4141,725.5,759.4141,721.5,755.4141" style="stroke:#181818;stroke-width:1.0;"/><line style="stroke:#181818;stroke-width:1.0;stroke-dasharray:2.0,2.0;" x1="719.5" x2="1389.5" y1="755.4141" y2="755.4141"/><polygon fill="#181818" points="1223.5,778.2188,1233.5,782.2188,1223.5,786.2188,1227.5,782.2188" style="stroke:#181818;stroke-width:1.0;"/><line style="stroke:#181818;stroke-width:1.0;" x1="714.5" x2="1229.5" y1="782.2188" y2="782.2188"/><text fill="#000000" font-family="sans-serif" font-size="11" lengthAdjust="spacing" textLength="161" x="894.5" y="777.6245">créerNotifications(demande)</text><polygon fill="#181818" points="1383.5,805.0234,1393.5,809.0234,1383.5,813.0234,1387.5,809.0234" style="stroke:#181818;stroke-width:1.0;"/><line style="stroke:#181818;stroke-width:1.0;" x1="1245.5" x2="1389.5" y1="809.0234" y2="809.0234"/><text fill="#000000" font-family="sans-serif" font-size="11" lengthAdjust="spacing" textLength="121" x="1260" y="804.4292">INSERT notification(s)</text><polygon fill="#181818" points="1256.5,819.0234,1246.5,823.0234,1256.5,827.0234,1252.5,823.0234" style="stroke:#181818;stroke-width:1.0;"/><line style="stroke:#181818;stroke-width:1.0;stroke-dasharray:2.0,2.0;" x1="1250.5" x2="1389.5" y1="823.0234" y2="823.0234"/><polygon fill="#181818" points="725.5,833.0234,715.5,837.0234,725.5,841.0234,721.5,837.0234" style="stroke:#181818;stroke-width:1.0;"/><line style="stroke:#181818;stroke-width:1.0;stroke-dasharray:2.0,2.0;" x1="719.5" x2="1239.5" y1="837.0234" y2="837.0234"/><polygon fill="#181818" points="1378.5,859.8281,1388.5,863.8281,1378.5,867.8281,1382.5,863.8281" style="stroke:#181818;stroke-width:1.0;"/><line style="stroke:#181818;stroke-width:1.0;" x1="714.5" x2="1384.5" y1="863.8281" y2="863.8281"/><text fill="#000000" font-family="sans-serif" font-size="11" lengthAdjust="spacing" textLength="45" x="1030" y="859.2339">COMMIT</text><polygon fill="#181818" points="725.5,873.8281,715.5,877.8281,725.5,881.8281,721.5,877.8281" style="stroke:#181818;stroke-width:1.0;"/><line style="stroke:#181818;stroke-width:1.0;stroke-dasharray:2.0,2.0;" x1="719.5" x2="1394.5" y1="877.8281" y2="877.8281"/><polygon fill="#181818" points="509.5,900.6328,499.5,904.6328,509.5,908.6328,505.5,904.6328" style="stroke:#181818;stroke-width:1.0;"/><line style="stroke:#181818;stroke-width:1.0;stroke-dasharray:2.0,2.0;" x1="503.5" x2="713.5" y1="904.6328" y2="904.6328"/><text fill="#000000" font-family="sans-serif" font-size="11" lengthAdjust="spacing" textLength="73" x="570" y="900.0386">DemandeDto</text><polygon fill="#181818" points="209.5,940.2422,199.5,944.2422,209.5,948.2422,205.5,944.2422" style="stroke:#181818;stroke-width:1.0;"/><line style="stroke:#181818;stroke-width:1.0;stroke-dasharray:2.0,2.0;" x1="203.5" x2="497.5" y1="944.2422" y2="944.2422"/><text fill="#000000" font-family="sans-serif" font-size="11" lengthAdjust="spacing" textLength="131" x="283" y="926.8433">200 OK + DemandeDto</text><text fill="#000000" font-family="sans-serif" font-size="11" lengthAdjust="spacing" textLength="214" x="241.5" y="939.6479">(session inchangée, cookie inchangé)</text><polygon fill="#181818" points="54.5,967.0469,44.5,971.0469,54.5,975.0469,50.5,971.0469" style="stroke:#181818;stroke-width:1.0;"/><line style="stroke:#181818;stroke-width:1.0;stroke-dasharray:2.0,2.0;" x1="48.5" x2="197.5" y1="971.0469" y2="971.0469"/><text fill="#000000" font-family="sans-serif" font-size="11" lengthAdjust="spacing" textLength="73" x="84.5" y="966.4526">Confirmation</text><path d="M140,995.0469 L140,1035.0469 A4,4 0 0 0 144,1039.0469 L553,1039.0469 A4,4 0 0 0 557,1035.0469 L557,1001.0469 L547,991.0469 L144,991.0469 A4,4 0 0 0 140,995.0469 " fill="#FEFFDD" style="stroke:#181818;stroke-width:0.5;"/><path d="M547,991.0469 L547,999.0469 A2,2 0 0 0 549,1001.0469 L557,1001.0469 L547,991.0469 " fill="#FEFFDD" style="stroke:#181818;stroke-width:0.5;"/><text fill="#000000" font-family="sans-serif" font-size="11" font-weight="bold" lengthAdjust="spacing" textLength="181" x="146" y="1006.2573">Authentification par cookies</text><text fill="#000000" font-family="sans-serif" font-size="11" lengthAdjust="spacing" textLength="211" x="331" y="1006.2573">: pas d'en-tête Authorization Bearer ;</text><text fill="#000000" font-family="sans-serif" font-size="11" lengthAdjust="spacing" textLength="357" x="146" y="1019.062">le navigateur attache le cookie de session sur chaque requête</text><text fill="#000000" font-family="sans-serif" font-size="11" lengthAdjust="spacing" textLength="280" x="146" y="1031.8667">vers l'API (même site ou CORS avec credentials).</text><path d="M664,1053.4609 L664,1080.4609 A4,4 0 0 0 668,1084.4609 L1441,1084.4609 A4,4 0 0 0 1445,1080.4609 L1445,1059.4609 L1435,1049.4609 L668,1049.4609 A4,4 0 0 0 664,1053.4609 " fill="#FEFFDD" style="stroke:#181818;stroke-width:0.5;"/><path d="M1435,1049.4609 L1435,1057.4609 A2,2 0 0 0 1437,1059.4609 L1445,1059.4609 L1435,1049.4609 " fill="#FEFFDD" style="stroke:#181818;stroke-width:0.5;"/><text fill="#000000" font-family="sans-serif" font-size="11" lengthAdjust="spacing" textLength="234" x="933" y="1064.6714">En cas d'erreur après BEGIN : ROLLBACK</text><text fill="#000000" font-family="sans-serif" font-size="11" lengthAdjust="spacing" textLength="195" x="933" y="1077.4761">et erreur structurée vers le client.</text><!--MD5=[fe064ee1c235aeb96d4ff8352d3faf44]
@startuml
title Diagramme de séquences : soumission d'une demande - E-Services

skinparam defaultFontSize 11
skinparam shadowing false
skinparam roundcorner 8
skinparam sequenceMessageAlign center

actor "Usager" as U
participant "ClientReact" as CR
participant "DemandeController" as DC
participant "DemandeService" as DS
participant "PieceJointeRepository" as PJR
participant "HistoriqueRepository" as HR
participant "NotificationService" as NS
database "BaseDeDonnees" as DB

U -> CR : Soumettre la demande
activate CR

CR -> DC : POST /api/demandes/{id}/soumettre\n**Cookie** : session (httpOnly, Secure, SameSite)\n+ fetch **credentials: 'include'**
activate DC

DC -> DC : Valider le cookie de session\ncharger le principal / rôles

DC -> DS : soumettre(idDemande, principal)
activate DS

DS -> DB : Charger Demande / EtatDemande
activate DB
DB - -> DS
deactivate DB

DS -> DS : Vérifier état courant = BROUILLON\net complétude minimale

DS -> PJR : Vérifier pièces requises (règle métier)
activate PJR
PJR -> DB : SELECT pièces jointes
activate DB
DB - -> PJR
deactivate DB
PJR - -> DS : résultat
deactivate PJR

alt Préconditions non satisfaites
  DS - -> DC : erreur métier (4xx)
  DC - -> CR : réponse d'erreur structurée\n(sans changer le cookie si session valide)
  deactivate DS
  deactivate DC
  CR - -> U : Message d'erreur
  deactivate CR
else Soumission acceptée
  DS -> DB : BEGIN transaction
  activate DB

  DS -> HR : enregistrerHistorique\n(BROUILLON → SOUMIS)
  activate HR
  HR -> DB : INSERT historique_etat
  activate DB
  DB - -> HR
  deactivate DB
  HR - -> DS
  deactivate HR

  DS -> DB : UPDATE état courant = SOUMIS
  activate DB
  DB - -> DS
  deactivate DB

  DS -> NS : créerNotifications(demande)
  activate NS
  NS -> DB : INSERT notification(s)
  activate DB
  DB - -> NS
  deactivate DB
  NS - -> DS
  deactivate NS

  DS -> DB : COMMIT
  DB - -> DS
  deactivate DB

  DS - -> DC : DemandeDto
  deactivate DS

  DC - -> CR : 200 OK + DemandeDto\n(session inchangée, cookie inchangé)
  deactivate DC

  CR - -> U : Confirmation
  deactivate CR
end

note over CR, DC
  **Authentification par cookies** : pas d'en-tête Authorization Bearer ;
  le navigateur attache le cookie de session sur chaque requête
  vers l'API (même site ou CORS avec credentials).
end note

note over DS, DB
  En cas d'erreur après BEGIN : ROLLBACK
  et erreur structurée vers le client.
end note
@enduml

PlantUML version 1.2022.7(Mon Aug 22 17:01:30 UTC 2022)
(GPL source distribution)
Java Runtime: OpenJDK Runtime Environment
JVM: OpenJDK 64-Bit Server VM
Default Encoding: UTF-8
Language: en
Country: null
--></g></svg>