<svg xmlns="http://www.w3.org/2000/svg" xmlns:xlink="http://www.w3.org/1999/xlink" contentStyleType="text/css" height="511px" preserveAspectRatio="none" style="width:1915px;height:511px;background:#FFFFFF;" version="1.1" viewBox="0 0 1915 511" width="1915px" zoomAndPan="magnify"><defs/><g><rect fill="none" height="26.2969" id="_title" rx="4" ry="4" style="stroke:none;stroke-width:1.0;" width="404" x="748.5" y="5"/><text fill="#000000" font-family="sans-serif" font-size="14" font-weight="bold" lengthAdjust="spacing" textLength="394" x="753.5" y="22.9951">Diagramme de classes (vue domaine) - E-Services</text><!--MD5=[354e8650cefe639d77b0834953981666]
class Utilisateur--><g id="elem_Utilisateur"><rect codeLine="8" fill="#F1F1F1" height="93.875" id="Utilisateur" rx="4" ry="4" style="stroke:#181818;stroke-width:0.5;" width="181" x="484.5" y="58.2969"/><ellipse cx="539" cy="73.2969" fill="#A9DCDF" rx="10" ry="10" style="stroke:#181818;stroke-width:1.0;"/><path d="M538.6094,70.375 L537.7969,73.9531 L539.4375,73.9531 L538.6094,70.375 Z M537.5625,68.7969 L539.6719,68.7969 L542.0313,77.5469 L540.2969,77.5469 L539.7656,75.3906 L537.4531,75.3906 L536.9219,77.5469 L535.1875,77.5469 L537.5625,68.7969 Z " fill="#000000"/><text fill="#000000" font-family="sans-serif" font-size="12" font-style="italic" lengthAdjust="spacing" textLength="64" x="558" y="77.4512">Utilisateur</text><line style="stroke:#181818;stroke-width:0.5;" x1="485.5" x2="664.5" y1="88.2969" y2="88.2969"/><ellipse cx="495.5" cy="100.7813" fill="none" rx="3" ry="3" style="stroke:#038048;stroke-width:1.0;"/><text fill="#000000" font-family="sans-serif" font-size="12" lengthAdjust="spacing" textLength="49" x="503.5" y="103.4355">id: UUID</text><ellipse cx="495.5" cy="114.75" fill="none" rx="3" ry="3" style="stroke:#038048;stroke-width:1.0;"/><text fill="#000000" font-family="sans-serif" font-size="12" lengthAdjust="spacing" textLength="78" x="503.5" y="117.4043">email: String</text><ellipse cx="495.5" cy="128.7188" fill="none" rx="3" ry="3" style="stroke:#038048;stroke-width:1.0;"/><text fill="#000000" font-family="sans-serif" font-size="12" lengthAdjust="spacing" textLength="156" x="503.5" y="131.373">motDePasseHash: String</text><ellipse cx="495.5" cy="142.6875" fill="none" rx="3" ry="3" style="stroke:#038048;stroke-width:1.0;"/><text fill="#000000" font-family="sans-serif" font-size="12" lengthAdjust="spacing" textLength="86" x="503.5" y="145.3418">actif: boolean</text></g><!--MD5=[ed6624c6556d5e7b1bd23032162d20b7]
class Client--><g id="elem_Client"><rect codeLine="15" fill="#F1F1F1" height="30" id="Client" rx="4" ry="4" style="stroke:#181818;stroke-width:0.5;" width="65" x="399.5" y="273.2969"/><ellipse cx="413.5" cy="288.2969" fill="#ADD1B2" rx="10" ry="10" style="stroke:#181818;stroke-width:1.0;"/><path d="M415.3281,292.5469 Q414.9219,292.75 414.4688,292.8594 Q414.0156,292.9688 413.5313,292.9688 Q411.75,292.9688 410.8125,291.8125 Q409.8906,290.6406 409.8906,288.4375 Q409.8906,286.2188 410.8125,285.0625 Q411.75,283.8906 413.5313,283.8906 Q414.0156,283.8906 414.4688,284 Q414.9375,284.0938 415.3281,284.3125 L415.3281,286.2344 Q414.8906,285.8281 414.4688,285.6406 Q414.0469,285.4375 413.6094,285.4375 Q412.6563,285.4375 412.1719,286.2031 Q411.6875,286.9531 411.6875,288.4375 Q411.6875,289.9063 412.1719,290.6563 Q412.6563,291.4063 413.6094,291.4063 Q414.0469,291.4063 414.4688,291.2188 Q414.8906,291.0313 415.3281,290.625 L415.3281,292.5469 Z " fill="#000000"/><text fill="#000000" font-family="sans-serif" font-size="12" lengthAdjust="spacing" textLength="35" x="426.5" y="292.4512">Client</text></g><!--MD5=[60ae0492841f67b63cfeabc6b596b865]
class Administrateur--><g id="elem_Administrateur"><rect codeLine="16" fill="#F1F1F1" height="30" id="Administrateur" rx="4" ry="4" style="stroke:#181818;stroke-width:0.5;" width="122" x="686" y="273.2969"/><ellipse cx="700" cy="288.2969" fill="#ADD1B2" rx="10" ry="10" style="stroke:#181818;stroke-width:1.0;"/><path d="M701.8281,292.5469 Q701.4219,292.75 700.9688,292.8594 Q700.5156,292.9688 700.0313,292.9688 Q698.25,292.9688 697.3125,291.8125 Q696.3906,290.6406 696.3906,288.4375 Q696.3906,286.2188 697.3125,285.0625 Q698.25,283.8906 700.0313,283.8906 Q700.5156,283.8906 700.9688,284 Q701.4375,284.0938 701.8281,284.3125 L701.8281,286.2344 Q701.3906,285.8281 700.9688,285.6406 Q700.5469,285.4375 700.1094,285.4375 Q699.1563,285.4375 698.6719,286.2031 Q698.1875,286.9531 698.1875,288.4375 Q698.1875,289.9063 698.6719,290.6563 Q699.1563,291.4063 700.1094,291.4063 Q700.5469,291.4063 700.9688,291.2188 Q701.3906,291.0313 701.8281,290.625 L701.8281,292.5469 Z " fill="#000000"/><text fill="#000000" font-family="sans-serif" font-size="12" lengthAdjust="spacing" textLength="92" x="713" y="292.4512">Administrateur</text></g><!--MD5=[2572a0cb61c9f4bed8c6537ddd0026d5]
class AgentAgence--><g id="elem_AgentAgence"><rect codeLine="17" fill="#F1F1F1" height="30" id="AgentAgence" rx="4" ry="4" style="stroke:#181818;stroke-width:0.5;" width="114" x="843" y="273.2969"/><ellipse cx="857" cy="288.2969" fill="#ADD1B2" rx="10" ry="10" style="stroke:#181818;stroke-width:1.0;"/><path d="M858.8281,292.5469 Q858.4219,292.75 857.9688,292.8594 Q857.5156,292.9688 857.0313,292.9688 Q855.25,292.9688 854.3125,291.8125 Q853.3906,290.6406 853.3906,288.4375 Q853.3906,286.2188 854.3125,285.0625 Q855.25,283.8906 857.0313,283.8906 Q857.5156,283.8906 857.9688,284 Q858.4375,284.0938 858.8281,284.3125 L858.8281,286.2344 Q858.3906,285.8281 857.9688,285.6406 Q857.5469,285.4375 857.1094,285.4375 Q856.1563,285.4375 855.6719,286.2031 Q855.1875,286.9531 855.1875,288.4375 Q855.1875,289.9063 855.6719,290.6563 Q856.1563,291.4063 857.1094,291.4063 Q857.5469,291.4063 857.9688,291.2188 Q858.3906,291.0313 858.8281,290.625 L858.8281,292.5469 Z " fill="#000000"/><text fill="#000000" font-family="sans-serif" font-size="12" lengthAdjust="spacing" textLength="84" x="870" y="292.4512">AgentAgence</text></g><!--MD5=[fa221b745decb5ef93860c0b8508120b]
class ResponsableAgence--><g id="elem_ResponsableAgence"><rect codeLine="18" fill="#F1F1F1" height="30" id="ResponsableAgence" rx="4" ry="4" style="stroke:#181818;stroke-width:0.5;" width="158" x="7" y="273.2969"/><ellipse cx="21" cy="288.2969" fill="#ADD1B2" rx="10" ry="10" style="stroke:#181818;stroke-width:1.0;"/><path d="M22.8281,292.5469 Q22.4219,292.75 21.9688,292.8594 Q21.5156,292.9688 21.0313,292.9688 Q19.25,292.9688 18.3125,291.8125 Q17.3906,290.6406 17.3906,288.4375 Q17.3906,286.2188 18.3125,285.0625 Q19.25,283.8906 21.0313,283.8906 Q21.5156,283.8906 21.9688,284 Q22.4375,284.0938 22.8281,284.3125 L22.8281,286.2344 Q22.3906,285.8281 21.9688,285.6406 Q21.5469,285.4375 21.1094,285.4375 Q20.1563,285.4375 19.6719,286.2031 Q19.1875,286.9531 19.1875,288.4375 Q19.1875,289.9063 19.6719,290.6563 Q20.1563,291.4063 21.1094,291.4063 Q21.5469,291.4063 21.9688,291.2188 Q22.3906,291.0313 22.8281,290.625 L22.8281,292.5469 Z " fill="#000000"/><text fill="#000000" font-family="sans-serif" font-size="12" lengthAdjust="spacing" textLength="128" x="34" y="292.4512">ResponsableAgence</text></g><!--MD5=[3b73613c2962dcea8f55380c38131379]
class ResponsableSysteme--><g id="elem_ResponsableSysteme"><rect codeLine="19" fill="#F1F1F1" height="30" id="ResponsableSysteme" rx="4" ry="4" style="stroke:#181818;stroke-width:0.5;" width="164" x="200" y="273.2969"/><ellipse cx="214" cy="288.2969" fill="#ADD1B2" rx="10" ry="10" style="stroke:#181818;stroke-width:1.0;"/><path d="M215.8281,292.5469 Q215.4219,292.75 214.9688,292.8594 Q214.5156,292.9688 214.0313,292.9688 Q212.25,292.9688 211.3125,291.8125 Q210.3906,290.6406 210.3906,288.4375 Q210.3906,286.2188 211.3125,285.0625 Q212.25,283.8906 214.0313,283.8906 Q214.5156,283.8906 214.9688,284 Q215.4375,284.0938 215.8281,284.3125 L215.8281,286.2344 Q215.3906,285.8281 214.9688,285.6406 Q214.5469,285.4375 214.1094,285.4375 Q213.1563,285.4375 212.6719,286.2031 Q212.1875,286.9531 212.1875,288.4375 Q212.1875,289.9063 212.6719,290.6563 Q213.1563,291.4063 214.1094,291.4063 Q214.5469,291.4063 214.9688,291.2188 Q215.3906,291.0313 215.8281,290.625 L215.8281,292.5469 Z " fill="#000000"/><text fill="#000000" font-family="sans-serif" font-size="12" lengthAdjust="spacing" textLength="134" x="227" y="292.4512">ResponsableSysteme</text></g><!--MD5=[ab82aa8aee48a5a6abc5058c646e92a4]
class CodeEtatDemande--><g id="elem_CodeEtatDemande"><rect codeLine="27" fill="#F1F1F1" height="121.8125" id="CodeEtatDemande" rx="4" ry="4" style="stroke:#181818;stroke-width:0.5;" width="148" x="1206" y="44.2969"/><ellipse cx="1220" cy="59.2969" fill="#EB937F" rx="10" ry="10" style="stroke:#181818;stroke-width:1.0;"/><path d="M1222.4375,63.7969 L1216.9844,63.7969 L1216.9844,55.0469 L1222.4375,55.0469 L1222.4375,56.5781 L1218.7188,56.5781 L1218.7188,58.4531 L1222.0781,58.4531 L1222.0781,59.9844 L1218.7188,59.9844 L1218.7188,62.2656 L1222.4375,62.2656 L1222.4375,63.7969 Z " fill="#000000"/><text fill="#000000" font-family="sans-serif" font-size="12" lengthAdjust="spacing" textLength="118" x="1233" y="63.4512">CodeEtatDemande</text><line style="stroke:#181818;stroke-width:0.5;" x1="1207" x2="1353" y1="74.2969" y2="74.2969"/><text fill="#000000" font-family="sans-serif" font-size="12" lengthAdjust="spacing" textLength="67" x="1212" y="89.4355">BROUILLON</text><text fill="#000000" font-family="sans-serif" font-size="12" lengthAdjust="spacing" textLength="47" x="1212" y="103.4043">SOUMIS</text><text fill="#000000" font-family="sans-serif" font-size="12" lengthAdjust="spacing" textLength="103" x="1212" y="117.373">EN_INSTRUCTION</text><text fill="#000000" font-family="sans-serif" font-size="12" lengthAdjust="spacing" textLength="134" x="1212" y="131.3418">COMPLEMENT_REQUIS</text><text fill="#000000" font-family="sans-serif" font-size="12" lengthAdjust="spacing" textLength="63" x="1212" y="145.3105">ACCEPTEE</text><text fill="#000000" font-family="sans-serif" font-size="12" lengthAdjust="spacing" textLength="56" x="1212" y="159.2793">REFUSEE</text></g><!--MD5=[56ef4a1dcc8182d6a9a3a80ed5c518a8]
class Demande--><g id="elem_Demande"><rect codeLine="36" fill="#F1F1F1" height="93.875" id="Demande" rx="4" ry="4" style="stroke:#181818;stroke-width:0.5;" width="185" x="996.5" y="241.2969"/><ellipse cx="1055" cy="256.2969" fill="#A9DCDF" rx="10" ry="10" style="stroke:#181818;stroke-width:1.0;"/><path d="M1054.6094,253.375 L1053.7969,256.9531 L1055.4375,256.9531 L1054.6094,253.375 Z M1053.5625,251.7969 L1055.6719,251.7969 L1058.0313,260.5469 L1056.2969,260.5469 L1055.7656,258.3906 L1053.4531,258.3906 L1052.9219,260.5469 L1051.1875,260.5469 L1053.5625,251.7969 Z " fill="#000000"/><text fill="#000000" font-family="sans-serif" font-size="12" font-style="italic" lengthAdjust="spacing" textLength="60" x="1074" y="260.4512">Demande</text><line style="stroke:#181818;stroke-width:0.5;" x1="997.5" x2="1180.5" y1="271.2969" y2="271.2969"/><ellipse cx="1007.5" cy="283.7813" fill="none" rx="3" ry="3" style="stroke:#038048;stroke-width:1.0;"/><text fill="#000000" font-family="sans-serif" font-size="12" lengthAdjust="spacing" textLength="49" x="1015.5" y="286.4355">id: UUID</text><ellipse cx="1007.5" cy="297.75" fill="none" rx="3" ry="3" style="stroke:#038048;stroke-width:1.0;"/><text fill="#000000" font-family="sans-serif" font-size="12" lengthAdjust="spacing" textLength="160" x="1015.5" y="300.4043">referencePublique: String</text><ellipse cx="1007.5" cy="311.7188" fill="none" rx="3" ry="3" style="stroke:#038048;stroke-width:1.0;"/><text fill="#000000" font-family="sans-serif" font-size="12" lengthAdjust="spacing" textLength="134" x="1015.5" y="314.373">dateCreation: Instant</text><ellipse cx="1007.5" cy="325.6875" fill="none" rx="3" ry="3" style="stroke:#038048;stroke-width:1.0;"/><text fill="#000000" font-family="sans-serif" font-size="12" lengthAdjust="spacing" textLength="152" x="1015.5" y="328.3418">dateSoumission: Instant</text></g><!--MD5=[9f28196cd76c23d198d4049f7fc9fd6a]
class EtatDemande--><g id="elem_EtatDemande"><rect codeLine="43" fill="#F1F1F1" height="51.9688" id="EtatDemande" rx="4" ry="4" style="stroke:#181818;stroke-width:0.5;" width="227" x="507.5" y="424.2969"/><ellipse cx="574" cy="439.2969" fill="#ADD1B2" rx="10" ry="10" style="stroke:#181818;stroke-width:1.0;"/><path d="M575.8281,443.5469 Q575.4219,443.75 574.9688,443.8594 Q574.5156,443.9688 574.0313,443.9688 Q572.25,443.9688 571.3125,442.8125 Q570.3906,441.6406 570.3906,439.4375 Q570.3906,437.2188 571.3125,436.0625 Q572.25,434.8906 574.0313,434.8906 Q574.5156,434.8906 574.9688,435 Q575.4375,435.0938 575.8281,435.3125 L575.8281,437.2344 Q575.3906,436.8281 574.9688,436.6406 Q574.5469,436.4375 574.1094,436.4375 Q573.1563,436.4375 572.6719,437.2031 Q572.1875,437.9531 572.1875,439.4375 Q572.1875,440.9063 572.6719,441.6563 Q573.1563,442.4063 574.1094,442.4063 Q574.5469,442.4063 574.9688,442.2188 Q575.3906,442.0313 575.8281,441.625 L575.8281,443.5469 Z " fill="#000000"/><text fill="#000000" font-family="sans-serif" font-size="12" lengthAdjust="spacing" textLength="86" x="593" y="443.4512">EtatDemande</text><line style="stroke:#181818;stroke-width:0.5;" x1="508.5" x2="733.5" y1="454.2969" y2="454.2969"/><ellipse cx="518.5" cy="466.7813" fill="none" rx="3" ry="3" style="stroke:#038048;stroke-width:1.0;"/><text fill="#000000" font-family="sans-serif" font-size="12" lengthAdjust="spacing" textLength="202" x="526.5" y="469.4355">etatCourant: CodeEtatDemande</text></g><!--MD5=[dbb8b4f13c7b21394f9d757e58732f45]
class Service--><g id="elem_Service"><rect codeLine="49" fill="#F1F1F1" height="107.8438" id="Service" rx="4" ry="4" style="stroke:#181818;stroke-width:0.5;" width="159" x="1011.5" y="51.2969"/><ellipse cx="1064.5" cy="66.2969" fill="#ADD1B2" rx="10" ry="10" style="stroke:#181818;stroke-width:1.0;"/><path d="M1066.3281,70.5469 Q1065.9219,70.75 1065.4688,70.8594 Q1065.0156,70.9688 1064.5313,70.9688 Q1062.75,70.9688 1061.8125,69.8125 Q1060.8906,68.6406 1060.8906,66.4375 Q1060.8906,64.2188 1061.8125,63.0625 Q1062.75,61.8906 1064.5313,61.8906 Q1065.0156,61.8906 1065.4688,62 Q1065.9375,62.0938 1066.3281,62.3125 L1066.3281,64.2344 Q1065.8906,63.8281 1065.4688,63.6406 Q1065.0469,63.4375 1064.6094,63.4375 Q1063.6563,63.4375 1063.1719,64.2031 Q1062.6875,64.9531 1062.6875,66.4375 Q1062.6875,67.9063 1063.1719,68.6563 Q1063.6563,69.4063 1064.6094,69.4063 Q1065.0469,69.4063 1065.4688,69.2188 Q1065.8906,69.0313 1066.3281,68.625 L1066.3281,70.5469 Z " fill="#000000"/><text fill="#000000" font-family="sans-serif" font-size="12" lengthAdjust="spacing" textLength="45" x="1083.5" y="70.4512">Service</text><line style="stroke:#181818;stroke-width:0.5;" x1="1012.5" x2="1169.5" y1="81.2969" y2="81.2969"/><ellipse cx="1022.5" cy="93.7813" fill="none" rx="3" ry="3" style="stroke:#038048;stroke-width:1.0;"/><text fill="#000000" font-family="sans-serif" font-size="12" lengthAdjust="spacing" textLength="49" x="1030.5" y="96.4355">id: UUID</text><ellipse cx="1022.5" cy="107.75" fill="none" rx="3" ry="3" style="stroke:#038048;stroke-width:1.0;"/><text fill="#000000" font-family="sans-serif" font-size="12" lengthAdjust="spacing" textLength="71" x="1030.5" y="110.4043">titre: String</text><ellipse cx="1022.5" cy="121.7188" fill="none" rx="3" ry="3" style="stroke:#038048;stroke-width:1.0;"/><text fill="#000000" font-family="sans-serif" font-size="12" lengthAdjust="spacing" textLength="115" x="1030.5" y="124.373">description: String</text><ellipse cx="1022.5" cy="135.6875" fill="none" rx="3" ry="3" style="stroke:#038048;stroke-width:1.0;"/><text fill="#000000" font-family="sans-serif" font-size="12" lengthAdjust="spacing" textLength="86" x="1030.5" y="138.3418">actif: boolean</text><ellipse cx="1022.5" cy="149.6563" fill="none" rx="3" ry="3" style="stroke:#038048;stroke-width:1.0;"/><text fill="#000000" font-family="sans-serif" font-size="12" lengthAdjust="spacing" textLength="134" x="1030.5" y="152.3105">delaiIndicatifJours: int</text></g><!--MD5=[63ece3bd28c2131f552e6d460240b431]
class PieceJointe--><g id="elem_PieceJointe"><rect codeLine="57" fill="#F1F1F1" height="107.8438" id="PieceJointe" rx="4" ry="4" style="stroke:#181818;stroke-width:0.5;" width="174" x="770" y="396.2969"/><ellipse cx="818.5" cy="411.2969" fill="#ADD1B2" rx="10" ry="10" style="stroke:#181818;stroke-width:1.0;"/><path d="M820.3281,415.5469 Q819.9219,415.75 819.4688,415.8594 Q819.0156,415.9688 818.5313,415.9688 Q816.75,415.9688 815.8125,414.8125 Q814.8906,413.6406 814.8906,411.4375 Q814.8906,409.2188 815.8125,408.0625 Q816.75,406.8906 818.5313,406.8906 Q819.0156,406.8906 819.4688,407 Q819.9375,407.0938 820.3281,407.3125 L820.3281,409.2344 Q819.8906,408.8281 819.4688,408.6406 Q819.0469,408.4375 818.6094,408.4375 Q817.6563,408.4375 817.1719,409.2031 Q816.6875,409.9531 816.6875,411.4375 Q816.6875,412.9063 817.1719,413.6563 Q817.6563,414.4063 818.6094,414.4063 Q819.0469,414.4063 819.4688,414.2188 Q819.8906,414.0313 820.3281,413.625 L820.3281,415.5469 Z " fill="#000000"/><text fill="#000000" font-family="sans-serif" font-size="12" lengthAdjust="spacing" textLength="69" x="837.5" y="415.4512">PieceJointe</text><line style="stroke:#181818;stroke-width:0.5;" x1="771" x2="943" y1="426.2969" y2="426.2969"/><ellipse cx="781" cy="438.7813" fill="none" rx="3" ry="3" style="stroke:#038048;stroke-width:1.0;"/><text fill="#000000" font-family="sans-serif" font-size="12" lengthAdjust="spacing" textLength="49" x="789" y="441.4355">id: UUID</text><ellipse cx="781" cy="452.75" fill="none" rx="3" ry="3" style="stroke:#038048;stroke-width:1.0;"/><text fill="#000000" font-family="sans-serif" font-size="12" lengthAdjust="spacing" textLength="113" x="789" y="455.4043">nomFichier: String</text><ellipse cx="781" cy="466.7188" fill="none" rx="3" ry="3" style="stroke:#038048;stroke-width:1.0;"/><text fill="#000000" font-family="sans-serif" font-size="12" lengthAdjust="spacing" textLength="65" x="789" y="469.373">taille: long</text><ellipse cx="781" cy="480.6875" fill="none" rx="3" ry="3" style="stroke:#038048;stroke-width:1.0;"/><text fill="#000000" font-family="sans-serif" font-size="12" lengthAdjust="spacing" textLength="104" x="789" y="483.3418">typeMime: String</text><ellipse cx="781" cy="494.6563" fill="none" rx="3" ry="3" style="stroke:#038048;stroke-width:1.0;"/><text fill="#000000" font-family="sans-serif" font-size="12" lengthAdjust="spacing" textLength="149" x="789" y="497.3105">cheminStockage: String</text></g><!--MD5=[57c8c7387907d3499d984e5c7832f7bd]
class HistoriqueEtat--><g id="elem_HistoriqueEtat"><rect codeLine="65" fill="#F1F1F1" height="93.875" id="HistoriqueEtat" rx="4" ry="4" style="stroke:#181818;stroke-width:0.5;" width="219" x="979.5" y="403.2969"/><ellipse cx="1040" cy="418.2969" fill="#ADD1B2" rx="10" ry="10" style="stroke:#181818;stroke-width:1.0;"/><path d="M1041.8281,422.5469 Q1041.4219,422.75 1040.9688,422.8594 Q1040.5156,422.9688 1040.0313,422.9688 Q1038.25,422.9688 1037.3125,421.8125 Q1036.3906,420.6406 1036.3906,418.4375 Q1036.3906,416.2188 1037.3125,415.0625 Q1038.25,413.8906 1040.0313,413.8906 Q1040.5156,413.8906 1040.9688,414 Q1041.4375,414.0938 1041.8281,414.3125 L1041.8281,416.2344 Q1041.3906,415.8281 1040.9688,415.6406 Q1040.5469,415.4375 1040.1094,415.4375 Q1039.1563,415.4375 1038.6719,416.2031 Q1038.1875,416.9531 1038.1875,418.4375 Q1038.1875,419.9063 1038.6719,420.6563 Q1039.1563,421.4063 1040.1094,421.4063 Q1040.5469,421.4063 1040.9688,421.2188 Q1041.3906,421.0313 1041.8281,420.625 L1041.8281,422.5469 Z " fill="#000000"/><text fill="#000000" font-family="sans-serif" font-size="12" lengthAdjust="spacing" textLength="90" x="1059" y="422.4512">HistoriqueEtat</text><line style="stroke:#181818;stroke-width:0.5;" x1="980.5" x2="1197.5" y1="433.2969" y2="433.2969"/><ellipse cx="990.5" cy="445.7813" fill="none" rx="3" ry="3" style="stroke:#038048;stroke-width:1.0;"/><text fill="#000000" font-family="sans-serif" font-size="12" lengthAdjust="spacing" textLength="49" x="998.5" y="448.4355">id: UUID</text><ellipse cx="990.5" cy="459.75" fill="none" rx="3" ry="3" style="stroke:#038048;stroke-width:1.0;"/><text fill="#000000" font-family="sans-serif" font-size="12" lengthAdjust="spacing" textLength="194" x="998.5" y="462.4043">ancienEtat: CodeEtatDemande</text><ellipse cx="990.5" cy="473.7188" fill="none" rx="3" ry="3" style="stroke:#038048;stroke-width:1.0;"/><text fill="#000000" font-family="sans-serif" font-size="12" lengthAdjust="spacing" textLength="193" x="998.5" y="476.373">nouvelEtat: CodeEtatDemande</text><ellipse cx="990.5" cy="487.6875" fill="none" rx="3" ry="3" style="stroke:#038048;stroke-width:1.0;"/><text fill="#000000" font-family="sans-serif" font-size="12" lengthAdjust="spacing" textLength="126" x="998.5" y="490.3418">horodatage: Instant</text></g><!--MD5=[c39d93e13c7ea6df074d806a23a70829]
class Commentaire--><g id="elem_Commentaire"><rect codeLine="72" fill="#F1F1F1" height="93.875" id="Commentaire" rx="4" ry="4" style="stroke:#181818;stroke-width:0.5;" width="151" x="1233.5" y="403.2969"/><ellipse cx="1264.6" cy="418.2969" fill="#ADD1B2" rx="10" ry="10" style="stroke:#181818;stroke-width:1.0;"/><path d="M1266.4281,422.5469 Q1266.0219,422.75 1265.5688,422.8594 Q1265.1156,422.9688 1264.6313,422.9688 Q1262.85,422.9688 1261.9125,421.8125 Q1260.9906,420.6406 1260.9906,418.4375 Q1260.9906,416.2188 1261.9125,415.0625 Q1262.85,413.8906 1264.6313,413.8906 Q1265.1156,413.8906 1265.5688,414 Q1266.0375,414.0938 1266.4281,414.3125 L1266.4281,416.2344 Q1265.9906,415.8281 1265.5688,415.6406 Q1265.1469,415.4375 1264.7094,415.4375 Q1263.7563,415.4375 1263.2719,416.2031 Q1262.7875,416.9531 1262.7875,418.4375 Q1262.7875,419.9063 1263.2719,420.6563 Q1263.7563,421.4063 1264.7094,421.4063 Q1265.1469,421.4063 1265.5688,421.2188 Q1265.9906,421.0313 1266.4281,420.625 L1266.4281,422.5469 Z " fill="#000000"/><text fill="#000000" font-family="sans-serif" font-size="12" lengthAdjust="spacing" textLength="83" x="1281.4" y="422.4512">Commentaire</text><line style="stroke:#181818;stroke-width:0.5;" x1="1234.5" x2="1383.5" y1="433.2969" y2="433.2969"/><ellipse cx="1244.5" cy="445.7813" fill="none" rx="3" ry="3" style="stroke:#038048;stroke-width:1.0;"/><text fill="#000000" font-family="sans-serif" font-size="12" lengthAdjust="spacing" textLength="49" x="1252.5" y="448.4355">id: UUID</text><ellipse cx="1244.5" cy="459.75" fill="none" rx="3" ry="3" style="stroke:#038048;stroke-width:1.0;"/><text fill="#000000" font-family="sans-serif" font-size="12" lengthAdjust="spacing" textLength="77" x="1252.5" y="462.4043">texte: String</text><ellipse cx="1244.5" cy="473.7188" fill="none" rx="3" ry="3" style="stroke:#038048;stroke-width:1.0;"/><text fill="#000000" font-family="sans-serif" font-size="12" lengthAdjust="spacing" textLength="104" x="1252.5" y="476.373">interne: boolean</text><ellipse cx="1244.5" cy="487.6875" fill="none" rx="3" ry="3" style="stroke:#038048;stroke-width:1.0;"/><text fill="#000000" font-family="sans-serif" font-size="12" lengthAdjust="spacing" textLength="126" x="1252.5" y="490.3418">horodatage: Instant</text></g><!--MD5=[76b5e19c9337179d2d7ae334371d68c8]
class Notification--><g id="elem_Notification"><rect codeLine="79" fill="#F1F1F1" height="93.875" id="Notification" rx="4" ry="4" style="stroke:#181818;stroke-width:0.5;" width="151" x="499.5" y="241.2969"/><ellipse cx="536" cy="256.2969" fill="#ADD1B2" rx="10" ry="10" style="stroke:#181818;stroke-width:1.0;"/><path d="M537.8281,260.5469 Q537.4219,260.75 536.9688,260.8594 Q536.5156,260.9688 536.0313,260.9688 Q534.25,260.9688 533.3125,259.8125 Q532.3906,258.6406 532.3906,256.4375 Q532.3906,254.2188 533.3125,253.0625 Q534.25,251.8906 536.0313,251.8906 Q536.5156,251.8906 536.9688,252 Q537.4375,252.0938 537.8281,252.3125 L537.8281,254.2344 Q537.3906,253.8281 536.9688,253.6406 Q536.5469,253.4375 536.1094,253.4375 Q535.1563,253.4375 534.6719,254.2031 Q534.1875,254.9531 534.1875,256.4375 Q534.1875,257.9063 534.6719,258.6563 Q535.1563,259.4063 536.1094,259.4063 Q536.5469,259.4063 536.9688,259.2188 Q537.3906,259.0313 537.8281,258.625 L537.8281,260.5469 Z " fill="#000000"/><text fill="#000000" font-family="sans-serif" font-size="12" lengthAdjust="spacing" textLength="71" x="554" y="260.4512">Notification</text><line style="stroke:#181818;stroke-width:0.5;" x1="500.5" x2="649.5" y1="271.2969" y2="271.2969"/><ellipse cx="510.5" cy="283.7813" fill="none" rx="3" ry="3" style="stroke:#038048;stroke-width:1.0;"/><text fill="#000000" font-family="sans-serif" font-size="12" lengthAdjust="spacing" textLength="49" x="518.5" y="286.4355">id: UUID</text><ellipse cx="510.5" cy="297.75" fill="none" rx="3" ry="3" style="stroke:#038048;stroke-width:1.0;"/><text fill="#000000" font-family="sans-serif" font-size="12" lengthAdjust="spacing" textLength="102" x="518.5" y="300.4043">message: String</text><ellipse cx="510.5" cy="311.7188" fill="none" rx="3" ry="3" style="stroke:#038048;stroke-width:1.0;"/><text fill="#000000" font-family="sans-serif" font-size="12" lengthAdjust="spacing" textLength="78" x="518.5" y="314.373">lue: boolean</text><ellipse cx="510.5" cy="325.6875" fill="none" rx="3" ry="3" style="stroke:#038048;stroke-width:1.0;"/><text fill="#000000" font-family="sans-serif" font-size="12" lengthAdjust="spacing" textLength="126" x="518.5" y="328.3418">horodatage: Instant</text></g><g id="elem_GMN831"><path d="M1420,428.2969 L1420,472.2031 A4,4 0 0 0 1424,476.2031 L1904,476.2031 A4,4 0 0 0 1908,472.2031 L1908,434.2969 L1898,424.2969 L1577.85,424.2969 L1181.7,315.0969 L1569.85,424.2969 L1424,424.2969 A4,4 0 0 0 1420,428.2969 " fill="#FEFFDD" style="stroke:#181818;stroke-width:0.5;"/><path d="M1898,424.2969 L1898,432.2969 A2,2 0 0 0 1900,434.2969 L1908,434.2969 L1898,424.2969 " fill="#FEFFDD" style="stroke:#181818;stroke-width:0.5;"/><text fill="#000000" font-family="sans-serif" font-size="12" lengthAdjust="spacing" textLength="262" x="1426" y="440.4355">Référence publique lisible + UUID interne.</text><text fill="#000000" font-family="sans-serif" font-size="12" lengthAdjust="spacing" textLength="220" x="1426" y="454.4043">Les rôles sont des sous-classes de</text><text fill="#000000" font-family="sans-serif" font-size="12" font-weight="bold" lengthAdjust="spacing" textLength="75" x="1650" y="454.4043">Utilisateur</text><text fill="#000000" font-family="sans-serif" font-size="12" lengthAdjust="spacing" textLength="4" x="1729" y="454.4043">;</text><text fill="#000000" font-family="sans-serif" font-size="12" lengthAdjust="spacing" textLength="172" x="1426" y="468.373">l'état courant est porté par</text><text fill="#000000" font-family="sans-serif" font-size="12" font-weight="bold" lengthAdjust="spacing" textLength="96" x="1602" y="468.373">EtatDemande</text><text fill="#000000" font-family="sans-serif" font-size="12" lengthAdjust="spacing" textLength="111" x="1702" y="468.373">(spécialisation de</text><text fill="#000000" font-family="sans-serif" font-size="12" font-weight="bold" lengthAdjust="spacing" textLength="67" x="1817" y="468.373">Demande</text><text fill="#000000" font-family="sans-serif" font-size="12" lengthAdjust="spacing" textLength="9" x="1884" y="468.373">).</text></g><!--MD5=[fc64f8390db3595e87e6013a3d7a1d5f]
reverse link Utilisateur to Client--><g id="link_Utilisateur_Client"><path codeLine="21" d="M526.06,168.2369 C496.44,205.7369 461.06,250.5069 443.32,272.9669 " fill="none" id="Utilisateur-backto-Client" style="stroke:#181818;stroke-width:1.0;"/><polygon fill="none" points="520.65,163.7969,538.55,152.4369,531.64,172.4669,520.65,163.7969" style="stroke:#181818;stroke-width:1.0;"/></g><!--MD5=[3fa234280cce5712ef0f94d167cbe370]
reverse link Utilisateur to Administrateur--><g id="link_Utilisateur_Administrateur"><path codeLine="22" d="M633.13,167.0469 C642.46,176.8169 652,186.8269 661,196.2969 C686.76,223.3969 716.72,255.1569 733.62,273.0869 " fill="none" id="Utilisateur-backto-Administrateur" style="stroke:#181818;stroke-width:1.0;"/><polygon fill="none" points="627.99,171.7969,619.24,152.4969,638.12,162.1269,627.99,171.7969" style="stroke:#181818;stroke-width:1.0;"/></g><!--MD5=[11237f0b3a8c616ad1f6114519a1916f]
reverse link Utilisateur to AgentAgence--><g id="link_Utilisateur_AgentAgence"><path codeLine="23" d="M681.79,161.8369 C726.68,185.6669 779.23,214.2169 826,241.2969 C843.8,251.6069 863.58,263.9469 878.2,273.2469 " fill="none" id="Utilisateur-backto-AgentAgence" style="stroke:#181818;stroke-width:1.0;"/><polygon fill="none" points="678.43,167.9769,664.03,152.4369,684.98,155.6069,678.43,167.9769" style="stroke:#181818;stroke-width:1.0;"/></g><!--MD5=[6bf4e8c876f81c5f3ddcd85233b76241]
reverse link Utilisateur to ResponsableAgence--><g id="link_Utilisateur_ResponsableAgence"><path codeLine="24" d="M464.87,140.3469 C385.37,165.8369 275.95,202.8069 182,241.2969 C158.4,250.9669 132.35,263.5769 113.34,273.1469 " fill="none" id="Utilisateur-backto-ResponsableAgence" style="stroke:#181818;stroke-width:1.0;"/><polygon fill="none" points="462.97,133.6069,484.15,134.1969,467.22,146.9469,462.97,133.6069" style="stroke:#181818;stroke-width:1.0;"/></g><!--MD5=[c94233bc9450a9d20df6cc8416338544]
reverse link Utilisateur to ResponsableSysteme--><g id="link_Utilisateur_ResponsableSysteme"><path codeLine="25" d="M483.15,163.0369 C420.71,201.6169 342.8,249.7369 304.87,273.1669 " fill="none" id="Utilisateur-backto-ResponsableSysteme" style="stroke:#181818;stroke-width:1.0;"/><polygon fill="none" points="479.61,156.9969,500.31,152.4369,486.97,168.9069,479.61,156.9969" style="stroke:#181818;stroke-width:1.0;"/></g><!--MD5=[97f1b9329aa4d22d7abeda229864042e]
reverse link Demande to EtatDemande--><g id="link_Demande_EtatDemande"><path codeLine="47" d="M977.3,334.5169 C976.53,334.7769 975.76,335.0369 975,335.2969 C878.06,368.0469 849.97,363.6269 753,396.2969 C728.54,404.5369 702.06,414.8769 679.28,424.2369 " fill="none" id="Demande-backto-EtatDemande" style="stroke:#181818;stroke-width:1.0;"/><polygon fill="none" points="975.13,327.8569,996.32,327.7269,979.84,341.0369,975.13,327.8569" style="stroke:#181818;stroke-width:1.0;"/></g><!--MD5=[01ebc780d0d95979ce8ff04263220be2]
link Utilisateur to Demande--><g id="link_Utilisateur_Demande"><path codeLine="86" d="M665.68,135.2369 C747.1,161.6169 869.66,202.3069 975,241.2969 C980.47,243.3269 986.08,245.4369 991.72,247.6069 " fill="none" id="Utilisateur-to-Demande" style="stroke:#181818;stroke-width:1.0;"/><polygon fill="#181818" points="996.47,249.4369,989.5101,242.4684,991.8044,247.6391,986.6337,249.9334,996.47,249.4369" style="stroke:#181818;stroke-width:1.0;"/><text fill="#000000" font-family="sans-serif" font-size="12" lengthAdjust="spacing" textLength="94" x="888" y="208.4355">crée / possède</text><text fill="#000000" font-family="sans-serif" font-size="12" lengthAdjust="spacing" textLength="8" x="673.5207" y="135.362">1</text><text fill="#000000" font-family="sans-serif" font-size="12" lengthAdjust="spacing" textLength="22" x="966.5435" y="244.1445">0..*</text></g><!--MD5=[bf8b1c7cda0fabc27315887dac88a661]
reverse link Service to Demande--><g id="link_Service_Demande"><path codeLine="87" d="M1090.35,164.8369 C1090.08,189.5469 1089.77,217.8969 1089.51,241.0969 " fill="none" id="Service-backto-Demande" style="stroke:#181818;stroke-width:1.0;"/><polygon fill="#181818" points="1090.41,159.6269,1086.3074,168.5806,1090.3529,164.6265,1094.3069,168.672,1090.41,159.6269" style="stroke:#181818;stroke-width:1.0;"/><text fill="#000000" font-family="sans-serif" font-size="12" lengthAdjust="spacing" textLength="59" x="1091" y="208.4355">concerne</text><text fill="#000000" font-family="sans-serif" font-size="12" lengthAdjust="spacing" textLength="8" x="1081.8506" y="178.2478">1</text><text fill="#000000" font-family="sans-serif" font-size="12" lengthAdjust="spacing" textLength="22" x="1065.7726" y="230.4321">0..*</text></g><!--MD5=[7c7054fba2fbffb768ddf745886052fc]
reverse link Demande to PieceJointe--><g id="link_Demande_PieceJointe"><path codeLine="88" d="M1011.33,342.8569 C986.41,360.0469 958.82,379.0769 933.95,396.2269 " fill="none" id="Demande-backto-PieceJointe" style="stroke:#181818;stroke-width:1.0;"/><polygon fill="#181818" points="1022.21,335.3569,1014.9998,335.4733,1012.3342,342.1737,1019.5444,342.0572,1022.21,335.3569" style="stroke:#181818;stroke-width:1.0;"/><text fill="#000000" font-family="sans-serif" font-size="12" lengthAdjust="spacing" textLength="8" x="1003.8127" y="354.4425">1</text><text fill="#000000" font-family="sans-serif" font-size="12" lengthAdjust="spacing" textLength="22" x="921.6364" y="385.5519">0..*</text></g><!--MD5=[d500999abd20f7912d77a0a2e5f47379]
reverse link Demande to HistoriqueEtat--><g id="link_Demande_HistoriqueEtat"><path codeLine="89" d="M1089,348.6669 C1089,366.6469 1089,386.1369 1089,403.1269 " fill="none" id="Demande-backto-HistoriqueEtat" style="stroke:#181818;stroke-width:1.0;"/><polygon fill="#181818" points="1089,335.5769,1085,341.5769,1089,347.5769,1093,341.5769,1089,335.5769" style="stroke:#181818;stroke-width:1.0;"/><text fill="#000000" font-family="sans-serif" font-size="12" lengthAdjust="spacing" textLength="8" x="1080.4375" y="354.3553">1</text><text fill="#000000" font-family="sans-serif" font-size="12" lengthAdjust="spacing" textLength="22" x="1065.1781" y="392.467">0..*</text></g><!--MD5=[f271522c5e8bdc912d8304dc4bfd6448]
reverse link Demande to Commentaire--><g id="link_Demande_Commentaire"><path codeLine="90" d="M1162.85,343.0069 C1189.73,362.5569 1219.85,384.4569 1245.73,403.2769 " fill="none" id="Demande-backto-Commentaire" style="stroke:#181818;stroke-width:1.0;"/><polygon fill="#181818" points="1152.34,335.3569,1154.8414,342.1202,1162.0465,342.4126,1159.5452,335.6492,1152.34,335.3569" style="stroke:#181818;stroke-width:1.0;"/><text fill="#000000" font-family="sans-serif" font-size="12" lengthAdjust="spacing" textLength="8" x="1153.0556" y="354.4425">1</text><text fill="#000000" font-family="sans-serif" font-size="12" lengthAdjust="spacing" textLength="22" x="1210.9648" y="392.3108">0..*</text></g><!--MD5=[e2dd4c8bd3f444721282ad3fff854116]
reverse link Utilisateur to Notification--><g id="link_Utilisateur_Notification"><path codeLine="91" d="M575,157.6269 C575,183.9369 575,215.7269 575,241.2369 " fill="none" id="Utilisateur-backto-Notification" style="stroke:#181818;stroke-width:1.0;"/><polygon fill="#181818" points="575,152.4369,571,161.4369,575,157.4369,579,161.4369,575,152.4369" style="stroke:#181818;stroke-width:1.0;"/><text fill="#000000" font-family="sans-serif" font-size="12" lengthAdjust="spacing" textLength="76" x="576" y="208.4355">destinataire</text><text fill="#000000" font-family="sans-serif" font-size="12" lengthAdjust="spacing" textLength="8" x="566.4375" y="171.1956">1</text><text fill="#000000" font-family="sans-serif" font-size="12" lengthAdjust="spacing" textLength="22" x="551.1781" y="230.5952">0..*</text></g><!--MD5=[b45f6f69b6a3999a399f1055e6b73fda]
@startuml
title Diagramme de classes (vue domaine) - E-Services

skinparam defaultFontSize 12
skinparam shadowing false
skinparam roundcorner 8
hide empty members

abstract class Utilisateur {
  +id: UUID
  +email: String
  +motDePasseHash: String
  +actif: boolean
}

class Client
class Administrateur
class AgentAgence
class ResponsableAgence
class ResponsableSysteme

Utilisateur <|- - Client
Utilisateur <|- - Administrateur
Utilisateur <|- - AgentAgence
Utilisateur <|- - ResponsableAgence
Utilisateur <|- - ResponsableSysteme

enum CodeEtatDemande {
  BROUILLON
  SOUMIS
  EN_INSTRUCTION
  COMPLEMENT_REQUIS
  ACCEPTEE
  REFUSEE
}

abstract class Demande {
  +id: UUID
  +referencePublique: String
  +dateCreation: Instant
  +dateSoumission: Instant
}

class EtatDemande {
  +etatCourant: CodeEtatDemande
}

Demande <|- - EtatDemande

class Service {
  +id: UUID
  +titre: String
  +description: String
  +actif: boolean
  +delaiIndicatifJours: int
}

class PieceJointe {
  +id: UUID
  +nomFichier: String
  +taille: long
  +typeMime: String
  +cheminStockage: String
}

class HistoriqueEtat {
  +id: UUID
  +ancienEtat: CodeEtatDemande
  +nouvelEtat: CodeEtatDemande
  +horodatage: Instant
}

class Commentaire {
  +id: UUID
  +texte: String
  +interne: boolean
  +horodatage: Instant
}

class Notification {
  +id: UUID
  +message: String
  +lue: boolean
  +horodatage: Instant
}

Utilisateur "1" - -> "0..*" Demande : crée / possède
Service "1" <- - "0..*" Demande : concerne
Demande "1" *- - "0..*" PieceJointe
Demande "1" *- - "0..*" HistoriqueEtat
Demande "1" *- - "0..*" Commentaire
Utilisateur "1" <- - "0..*" Notification : destinataire

note bottom of Demande
  Référence publique lisible + UUID interne.
  Les rôles sont des sous-classes de **Utilisateur** ;
  l'état courant est porté par **EtatDemande** (spécialisation de **Demande**).
end note
@enduml

PlantUML version 1.2022.7(Mon Aug 22 17:01:30 UTC 2022)
(GPL source distribution)
Java Runtime: OpenJDK Runtime Environment
JVM: OpenJDK 64-Bit Server VM
Default Encoding: UTF-8
Language: en
Country: null
--></g></svg>