<svg xmlns="http://www.w3.org/2000/svg" xmlns:xlink="http://www.w3.org/1999/xlink" contentStyleType="text/css" height="690px" preserveAspectRatio="none" style="width:824px;height:690px;background:#FFFFFF;" version="1.1" viewBox="0 0 824 690" width="824px" zoomAndPan="magnify"><defs/><g><rect fill="none" height="26.2969" id="_title" rx="4" ry="4" style="stroke:none;stroke-width:1.0;" width="496" x="157.25" y="5"/><text fill="#000000" font-family="sans-serif" font-size="14" font-weight="bold" lengthAdjust="spacing" textLength="486" x="162.25" y="22.9951">Diagramme de deploiement - E-Services (logique conteneurs)</text><!--MD5=[c018863fe2304e0ca952616611326b6e]
cluster Host--><g id="cluster_Host"><polygon fill="none" points="16,195.7969,26,185.7969,504,185.7969,504,663.7969,494,673.7969,16,673.7969,16,195.7969" style="stroke:#181818;stroke-width:1.0;"/><line style="stroke:#181818;stroke-width:1.0;" x1="494" x2="504" y1="195.7969" y2="185.7969"/><line style="stroke:#181818;stroke-width:1.0;" x1="16" x2="494" y1="195.7969" y2="195.7969"/><line style="stroke:#181818;stroke-width:1.0;" x1="494" x2="494" y1="195.7969" y2="673.7969"/><text fill="#000000" font-family="sans-serif" font-size="10" font-weight="bold" lengthAdjust="spacing" textLength="75" x="218.5" y="208.0791">Machine hote</text></g><!--MD5=[42591781c74864aa6bd8b9830e23a81c]
cluster Docker--><g id="cluster_Docker"><polygon fill="none" points="48,246.7969,58,236.7969,472,236.7969,472,631.7969,462,641.7969,48,641.7969,48,246.7969" style="stroke:#181818;stroke-width:1.0;"/><line style="stroke:#181818;stroke-width:1.0;" x1="462" x2="472" y1="246.7969" y2="236.7969"/><line style="stroke:#181818;stroke-width:1.0;" x1="48" x2="462" y1="246.7969" y2="246.7969"/><line style="stroke:#181818;stroke-width:1.0;" x1="462" x2="462" y1="246.7969" y2="641.7969"/><text fill="#000000" font-family="sans-serif" font-size="10" font-weight="bold" lengthAdjust="spacing" textLength="40" x="236" y="259.0791">Docker</text></g><!--MD5=[3193059314a247eafe92785e7a6ac74f]
entity Web--><g id="elem_Web"><rect fill="#F1F1F1" height="57.9219" rx="4" ry="4" style="stroke:#181818;stroke-width:0.5;" width="103" x="246.5" y="279.7969"/><polygon fill="#F1F1F1" points="332.5,284.7969,332.5,298.7969,344.5,298.7969,344.5,290.7969,338.5,284.7969,332.5,284.7969" style="stroke:#181818;stroke-width:0.5;"/><line style="stroke:#181818;stroke-width:0.5;" x1="338.5" x2="338.5" y1="284.7969" y2="290.7969"/><line style="stroke:#181818;stroke-width:0.5;" x1="344.5" x2="338.5" y1="290.7969" y2="290.7969"/><text fill="#000000" font-family="sans-serif" font-size="10" lengthAdjust="spacing" textLength="73" x="256.5" y="302.0791">e-services-web</text><text fill="#000000" font-family="sans-serif" font-size="10" lengthAdjust="spacing" textLength="42" x="256.5" y="313.7197">«image»</text><text fill="#000000" font-family="sans-serif" font-size="10" lengthAdjust="spacing" textLength="70" x="256.5" y="325.3604">React + Nginx</text></g><!--MD5=[4d17ebef18975ec1b63c6031f196eef0]
entity Api--><g id="elem_Api"><rect fill="#F1F1F1" height="57.9219" rx="4" ry="4" style="stroke:#181818;stroke-width:0.5;" width="97" x="249.5" y="422.7969"/><polygon fill="#F1F1F1" points="329.5,427.7969,329.5,441.7969,341.5,441.7969,341.5,433.7969,335.5,427.7969,329.5,427.7969" style="stroke:#181818;stroke-width:0.5;"/><line style="stroke:#181818;stroke-width:0.5;" x1="335.5" x2="335.5" y1="427.7969" y2="433.7969"/><line style="stroke:#181818;stroke-width:0.5;" x1="341.5" x2="335.5" y1="433.7969" y2="433.7969"/><text fill="#000000" font-family="sans-serif" font-size="10" lengthAdjust="spacing" textLength="67" x="259.5" y="445.0791">e-services-api</text><text fill="#000000" font-family="sans-serif" font-size="10" lengthAdjust="spacing" textLength="42" x="259.5" y="456.7197">«image»</text><text fill="#000000" font-family="sans-serif" font-size="10" lengthAdjust="spacing" textLength="57" x="259.5" y="468.3604">Spring Boot</text></g><!--MD5=[816a78354711787a9606403ecfc1fa2f]
entity Db--><g id="elem_Db"><path d="M130.5,575.7969 C130.5,565.7969 171,565.7969 171,565.7969 C171,565.7969 211.5,565.7969 211.5,575.7969 L211.5,608.0781 C211.5,618.0781 171,618.0781 171,618.0781 C171,618.0781 130.5,618.0781 130.5,608.0781 L130.5,575.7969 " fill="#F1F1F1" style="stroke:#181818;stroke-width:0.5;"/><path d="M130.5,575.7969 C130.5,585.7969 171,585.7969 171,585.7969 C171,585.7969 211.5,585.7969 211.5,575.7969 " fill="none" style="stroke:#181818;stroke-width:0.5;"/><text fill="#000000" font-family="sans-serif" font-size="10" lengthAdjust="spacing" textLength="59" x="140.5" y="599.0791">PostgreSQL</text><text fill="#000000" font-family="sans-serif" font-size="10" lengthAdjust="spacing" textLength="61" x="140.5" y="610.7197">«conteneur»</text></g><!--MD5=[bcc29f0c40ec4661b38cbc5a7de986bb]
entity VolData--><g id="elem_VolData"><rect fill="#F1F1F1" height="43.2813" rx="35" ry="35" style="stroke:#181818;stroke-width:0.5;" width="93" x="307.5" y="570.2969"/><text fill="#000000" font-family="sans-serif" font-size="10" lengthAdjust="spacing" textLength="73" x="317.5" y="589.5791">volume fichiers</text><text fill="#000000" font-family="sans-serif" font-size="10" lengthAdjust="spacing" textLength="64" x="317.5" y="601.2197">pieces jointes</text></g><!--MD5=[d29b5ed1be1e4ef9db93dd5ca391c772]
entity VolPg--><g id="elem_VolPg"><rect fill="#F1F1F1" height="43.2813" rx="35" ry="35" style="stroke:#181818;stroke-width:0.5;" width="100" x="72" y="430.2969"/><text fill="#000000" font-family="sans-serif" font-size="10" lengthAdjust="spacing" textLength="80" x="82" y="449.5791">volume donnees</text><text fill="#000000" font-family="sans-serif" font-size="10" lengthAdjust="spacing" textLength="59" x="82" y="461.2197">PostgreSQL</text></g><!--MD5=[3fcceccb8f5cae11017abed2c43d4ff7]
entity Nav--><g id="elem_Nav"><ellipse cx="298" cy="51.2969" fill="#F1F1F1" rx="8" ry="8" style="stroke:#181818;stroke-width:0.5;"/><path d="M298,59.2969 L298,86.2969 M285,67.2969 L311,67.2969 M298,86.2969 L285,101.2969 M298,86.2969 L311,101.2969 " fill="none" style="stroke:#181818;stroke-width:0.5;"/><text fill="#000000" font-family="sans-serif" font-size="10" lengthAdjust="spacing" textLength="54" x="271" y="112.0791">Navigateur</text></g><g id="elem_GMN33"><path d="M520.5,433.2969 L520.5,470.2188 A4,4 0 0 0 524.5,474.2188 L813.5,474.2188 A4,4 0 0 0 817.5,470.2188 L817.5,439.2969 L807.5,429.2969 L524.5,429.2969 A4,4 0 0 0 520.5,433.2969 " fill="#FEFFDD" style="stroke:#181818;stroke-width:0.5;"/><path d="M807.5,429.2969 L807.5,437.2969 A2,2 0 0 0 809.5,439.2969 L817.5,439.2969 L807.5,429.2969 " fill="#FEFFDD" style="stroke:#181818;stroke-width:1.0;"/><text fill="#000000" font-family="sans-serif" font-size="10" lengthAdjust="spacing" textLength="276" x="526.5" y="443.5791">Communication : reseau docker bridge entre conteneurs.</text><text fill="#000000" font-family="sans-serif" font-size="10" lengthAdjust="spacing" textLength="248" x="526.5" y="455.2197">Ports HTTP ou HTTPS exposes sur la machine hote.</text><text fill="#000000" font-family="sans-serif" font-size="10" lengthAdjust="spacing" textLength="260" x="526.5" y="466.8604">Secrets via variables environnement (non commites).</text></g><!--MD5=[a6605a9c76607a6eafe6bb023f3defc8]
link Nav to Web--><g id="link_Nav_Web"><path d="M298,114.9269 C298,158.3769 298,231.8169 298,274.4369 " fill="none" id="Nav-to-Web" style="stroke:#181818;stroke-width:1.0;"/><polygon fill="#181818" points="298,279.4769,302,270.4769,298,274.4769,294,270.4769,298,279.4769" style="stroke:#181818;stroke-width:1.0;"/><text fill="#000000" font-family="sans-serif" font-size="10" lengthAdjust="spacing" textLength="32" x="323" y="155.0791">HTTPS</text><text fill="#000000" font-family="sans-serif" font-size="10" lengthAdjust="spacing" textLength="80" x="299" y="166.7197">(cookies Secure)</text></g><!--MD5=[2c8dfb495d6350799a2162837fdb0775]
link Web to Api--><g id="link_Web_Api"><path d="M298,337.9869 C298,360.9469 298,393.4069 298,417.6169 " fill="none" id="Web-to-Api" style="stroke:#181818;stroke-width:1.0;"/><polygon fill="#181818" points="298,422.6469,302,413.6469,298,417.6469,294,413.6469,298,422.6469" style="stroke:#181818;stroke-width:1.0;"/><text fill="#000000" font-family="sans-serif" font-size="10" lengthAdjust="spacing" textLength="48" x="324" y="378.0791">proxy /api</text><text fill="#000000" font-family="sans-serif" font-size="10" lengthAdjust="spacing" textLength="98" x="299" y="389.7197">HTTP reseau interne</text></g><!--MD5=[5b50ff5d67aca50b74a2f0e91a9567cb]
link Api to Db--><g id="link_Api_Db"><path d="M261.05,481.0269 C250.23,490.0269 238.7,500.3769 229,510.7969 C214.58,526.2969 200.58,545.4369 189.95,561.1169 " fill="none" id="Api-to-Db" style="stroke:#181818;stroke-width:1.0;"/><polygon fill="#181818" points="187.05,565.4369,195.4037,560.2201,189.8498,561.2943,188.7756,555.7404,187.05,565.4369" style="stroke:#181818;stroke-width:1.0;"/><text fill="#000000" font-family="sans-serif" font-size="10" lengthAdjust="spacing" textLength="26" x="259" y="521.0791">JDBC</text><text fill="#000000" font-family="sans-serif" font-size="10" lengthAdjust="spacing" textLength="84" x="230" y="532.7197">port 5432 interne</text></g><!--MD5=[99baa168a4a1d19316f516150f8a3bd7]
link Api to VolData--><g id="link_Api_VolData"><path d="M309.47,481.0569 C319.51,505.7969 333.96,541.4069 343.65,565.2969 " fill="none" id="Api-to-VolData" style="stroke:#181818;stroke-width:1.0;"/><polygon fill="#181818" points="345.64,570.2069,345.9487,560.3629,343.7535,565.5764,338.54,563.3812,345.64,570.2069" style="stroke:#181818;stroke-width:1.0;"/><text fill="#000000" font-family="sans-serif" font-size="10" lengthAdjust="spacing" textLength="83" x="333.5" y="521.0791">montage volume</text><text fill="#000000" font-family="sans-serif" font-size="10" lengthAdjust="spacing" textLength="84" x="333" y="532.7197">fichiers utilisateur</text></g><!--MD5=[702406ef3583094c6de2254724ce16d3]
link VolPg to Db--><g id="link_VolPg_Db"><path d="M110.43,473.4169 C102.35,490.7469 94.55,515.8069 104,535.7969 C109.79,548.0369 119.79,558.4769 130.32,566.8569 " fill="none" id="VolPg-Db" style="stroke:#181818;stroke-width:1.0;stroke-dasharray:7.0,7.0;"/><text fill="#000000" font-family="sans-serif" font-size="10" lengthAdjust="spacing" textLength="79" x="105" y="527.0791">persistance SQL</text></g><!--MD5=[77dfb7b4a8d9f499121a6f94e275ccb4]
link Docker to GMN33--><g id="link_Docker_GMN33"><path d="M472.0411,315.3269 C472.5362,315.6676 473.0521,316.0224 473.5879,316.391 C474.6597,317.1283 475.8117,317.9207 477.0388,318.7648 C479.4931,320.453 482.2481,322.348 485.2639,324.4223 C497.3272,332.7197 513.5631,343.8863 531.4138,356.1631 C567.115,380.7169 609.275,409.7119 637.43,429.0769 " fill="none" id="Docker-GMN33" style="stroke:#181818;stroke-width:1.0;stroke-dasharray:7.0,7.0;"/></g><!--MD5=[8f24c91169dd5e35ee50ab8b291534e8]
@startuml
title Diagramme de deploiement - E-Services (logique conteneurs)

skinparam defaultFontSize 10
skinparam shadowing false
skinparam roundcorner 8

actor "Navigateur" as Nav

node "Machine hote" as Host {
  node "Docker" as Docker {
    artifact "e-services-web\n<<image>>\nReact + Nginx" as Web
    artifact "e-services-api\n<<image>>\nSpring Boot" as Api
    database "PostgreSQL\n<<conteneur>>" as Db
    storage "volume fichiers\npieces jointes" as VolData
    storage "volume donnees\nPostgreSQL" as VolPg
  }
}

Nav - -> Web : HTTPS\n(cookies Secure)

Web - -> Api : proxy /api\nHTTP reseau interne

Api - -> Db : JDBC\nport 5432 interne

Api - -> VolData : montage volume\nfichiers utilisateur

VolPg .. Db : persistance SQL

note bottom of Docker
  Communication : reseau docker bridge entre conteneurs.
  Ports HTTP ou HTTPS exposes sur la machine hote.
  Secrets via variables environnement (non commites).
end note
@enduml

PlantUML version 1.2022.7(Mon Aug 22 17:01:30 UTC 2022)
(GPL source distribution)
Java Runtime: OpenJDK Runtime Environment
JVM: OpenJDK 64-Bit Server VM
Default Encoding: UTF-8
Language: en
Country: null
--></g></svg>