<svg xmlns="http://www.w3.org/2000/svg" xmlns:xlink="http://www.w3.org/1999/xlink" contentStyleType="text/css" height="961.74px" preserveAspectRatio="none" style="width:442px;height:961px;background:#FFFFFF;" version="1.1" viewBox="0 0 442 961" width="442.26px" zoomAndPan="magnify"><defs/><g><rect fill="none" height="20.5116" id="_title" rx="3.12" ry="3.12" style="stroke:none;stroke-width:0.7799999999999999;" width="322.92" x="54.4062" y="3.9"/><text fill="#000000" font-family="sans-serif" font-size="10.92" font-weight="bold" lengthAdjust="spacing" textLength="315.12" x="58.3062" y="17.9362">Diagramme de composants - Plateforme E-Services</text><!--MD5=[c018863fe2304e0ca952616611326b6e]
cluster Host--><g id="cluster_Host"><rect fill="none" height="826.8" rx="3.12" ry="3.12" style="stroke:#181818;stroke-width:0.7799999999999999;" width="296.4" x="33.9846" y="130.8816"/><text fill="#000000" font-family="sans-serif" font-size="7.02" font-weight="bold" lengthAdjust="spacing" textLength="139.62" x="112.3746" y="138.9577">Hebergement (dev ou Docker / prod)</text></g><!--MD5=[62eda1da0d8d546c2cfebc9b6645c384]
cluster FE_PKG--><g id="cluster_FE_PKG"><path d="M62.0646,241.6416 L133.8246,241.6416 A4.68,4.68 0 0 1 136.9446,244.7616 L142.4046,262.665 L205.5846,262.665 A3.12,3.12 0 0 1 208.7046,265.785 L208.7046,420.2616 A3.12,3.12 0 0 1 205.5846,423.3816 L62.0646,423.3816 A3.12,3.12 0 0 1 58.9446,420.2616 L58.9446,244.7616 A3.12,3.12 0 0 1 62.0646,241.6416 " fill="#E8F4FC" style="stroke:#000000;stroke-width:1.17;"/><line style="stroke:#000000;stroke-width:1.17;" x1="58.9446" x2="142.4046" y1="262.665" y2="262.665"/><text fill="#000000" font-family="sans-serif" font-size="7.02" font-weight="bold" lengthAdjust="spacing" textLength="34.32" x="81.5646" y="249.7177">Frontend</text><text fill="#000000" font-family="sans-serif" font-size="7.02" font-weight="bold" lengthAdjust="spacing" textLength="73.32" x="62.0646" y="257.8894">&lt;&lt;React + Vite&gt;&gt;</text></g><!--MD5=[05168cdd0ebfb7ba9055180231c4caa1]
cluster BE_PKG--><g id="cluster_BE_PKG"><path d="M141.6246,477.9816 L205.5846,477.9816 A4.68,4.68 0 0 1 208.7046,481.1016 L214.1646,499.005 L302.3046,499.005 A3.12,3.12 0 0 1 305.4246,502.125 L305.4246,758.7816 A3.12,3.12 0 0 1 302.3046,761.9016 L141.6246,761.9016 A3.12,3.12 0 0 1 138.5046,758.7816 L138.5046,481.1016 A3.12,3.12 0 0 1 141.6246,477.9816 " fill="#FFF8E8" style="stroke:#000000;stroke-width:1.17;"/><line style="stroke:#000000;stroke-width:1.17;" x1="138.5046" x2="214.1646" y1="499.005" y2="499.005"/><text fill="#000000" font-family="sans-serif" font-size="7.02" font-weight="bold" lengthAdjust="spacing" textLength="46.8" x="150.9846" y="486.0577">Backend API</text><text fill="#000000" font-family="sans-serif" font-size="7.02" font-weight="bold" lengthAdjust="spacing" textLength="65.52" x="141.6246" y="494.2294">&lt;&lt;Laravel 12&gt;&gt;</text></g><!--MD5=[7bbb50bb6a1a4a16f3de7991aea95734]
entity RP--><g id="elem_RP"><rect fill="#F1F1F1" height="40.1152" rx="3.12" ry="3.12" style="stroke:#181818;stroke-width:0.38999999999999996;" width="109.98" x="131.0946" y="153.5016"/><text fill="#000000" font-family="sans-serif" font-size="7.02" lengthAdjust="spacing" textLength="52.26" x="138.8946" y="167.8177">Reverse proxy</text><text fill="#000000" font-family="sans-serif" font-size="7.02" lengthAdjust="spacing" textLength="30.42" x="138.8946" y="175.9894">«Nginx»</text><text fill="#000000" font-family="sans-serif" font-size="7.02" lengthAdjust="spacing" textLength="94.38" x="138.8946" y="184.1611">(optionnel TLS / routage)</text></g><!--MD5=[f9ba5bf973e7832d2ce5ed59077b93f7]
entity DB--><g id="elem_DB"><path d="M116.2746,818.0616 C116.2746,810.2616 161.1246,810.2616 161.1246,810.2616 C161.1246,810.2616 205.9746,810.2616 205.9746,818.0616 L205.9746,857.7684 C205.9746,865.5684 161.1246,865.5684 161.1246,865.5684 C161.1246,865.5684 116.2746,865.5684 116.2746,857.7684 L116.2746,818.0616 " fill="#F1F1F1" style="stroke:#181818;stroke-width:0.38999999999999996;"/><path d="M116.2746,818.0616 C116.2746,825.8616 161.1246,825.8616 161.1246,825.8616 C161.1246,825.8616 205.9746,825.8616 205.9746,818.0616 " fill="none" style="stroke:#181818;stroke-width:0.38999999999999996;"/><text fill="#000000" font-family="sans-serif" font-size="7.02" lengthAdjust="spacing" textLength="21.84" x="124.0746" y="835.4977">SGBD</text><text fill="#000000" font-family="sans-serif" font-size="7.02" lengthAdjust="spacing" textLength="74.1" x="124.0746" y="843.6694">&lt;&lt;SQLite / MySQL /</text><text fill="#000000" font-family="sans-serif" font-size="7.02" lengthAdjust="spacing" textLength="56.16" x="124.0746" y="851.8411">PostgreSQL&gt;&gt;</text><text fill="#000000" font-family="sans-serif" font-size="7.02" lengthAdjust="spacing" textLength="38.22" x="124.0746" y="860.0128">selon .env</text></g><!--MD5=[347edd1aec85f4afbcafa8953e40a06b]
entity VOL--><g id="elem_VOL"><path d="M148.2546,891.3816 L177.8946,891.3816 A4.68,4.68 0 0 1 181.0146,894.5016 L186.4746,907.7616 L247.3146,907.7616 A3.12,3.12 0 0 1 250.4346,910.8816 L250.4346,942.4167 A3.12,3.12 0 0 1 247.3146,945.5367 L148.2546,945.5367 A3.12,3.12 0 0 1 145.1346,942.4167 L145.1346,894.5016 A3.12,3.12 0 0 1 148.2546,891.3816 " fill="#F1F1F1" style="stroke:#181818;stroke-width:0.38999999999999996;"/><line style="stroke:#181818;stroke-width:0.38999999999999996;" x1="145.1346" x2="186.4746" y1="907.7616" y2="907.7616"/><text fill="#000000" font-family="sans-serif" font-size="7.02" lengthAdjust="spacing" textLength="66.3" x="152.9346" y="919.7377">Stockage fichiers</text><text fill="#000000" font-family="sans-serif" font-size="7.02" lengthAdjust="spacing" textLength="81.9" x="152.9346" y="927.9094">«disque storage/app»</text><text fill="#000000" font-family="sans-serif" font-size="7.02" lengthAdjust="spacing" textLength="53.04" x="152.9346" y="936.0811">pieces jointes</text></g><!--MD5=[c07081854fd6c8104da7ffce51ef9e78]
entity SPA--><g id="elem_SPA"><rect fill="#F1F1F1" height="31.9434" rx="3.12" ry="3.12" style="stroke:#181818;stroke-width:0.38999999999999996;" width="56.16" x="122.1246" y="278.3016"/><text fill="#000000" font-family="sans-serif" font-size="7.02" lengthAdjust="spacing" textLength="39" x="129.9246" y="292.6177">SPA React</text><text fill="#000000" font-family="sans-serif" font-size="7.02" lengthAdjust="spacing" textLength="40.56" x="129.9246" y="300.7894">(routes UI)</text></g><!--MD5=[671c1d835b3ffa09f35de2a2b8c6d5c8]
entity AX--><g id="elem_AX"><rect fill="#F1F1F1" height="40.1152" rx="3.12" ry="3.12" style="stroke:#181818;stroke-width:0.38999999999999996;" width="106.08" x="77.6646" y="364.8816"/><text fill="#000000" font-family="sans-serif" font-size="7.02" lengthAdjust="spacing" textLength="42.9" x="85.4646" y="379.1977">Client HTTP</text><text fill="#000000" font-family="sans-serif" font-size="7.02" lengthAdjust="spacing" textLength="28.86" x="85.4646" y="387.3694">«Axios»</text><text fill="#000000" font-family="sans-serif" font-size="7.02" lengthAdjust="spacing" textLength="90.48" x="85.4646" y="395.5411">withCredentials + CSRF</text></g><!--MD5=[21c4f067ea39b24444517ddbeba0b8e4]
entity RT--><g id="elem_RT"><rect fill="#F1F1F1" height="40.1152" rx="3.12" ry="3.12" style="stroke:#181818;stroke-width:0.38999999999999996;" width="117.78" x="166.1946" y="514.6416"/><text fill="#000000" font-family="sans-serif" font-size="7.02" lengthAdjust="spacing" textLength="70.2" x="173.9946" y="528.9577">Couche exposition</text><text fill="#000000" font-family="sans-serif" font-size="7.02" lengthAdjust="spacing" textLength="63.96" x="173.9946" y="537.1294">routes web + api</text><text fill="#000000" font-family="sans-serif" font-size="7.02" lengthAdjust="spacing" textLength="102.18" x="173.9946" y="545.3011">login / sanctum/csrf-cookie</text></g><!--MD5=[b3b47143243fa1deeb350c407ecae48b]
entity AUTH--><g id="elem_AUTH"><rect fill="#F1F1F1" height="40.1152" rx="3.12" ry="3.12" style="stroke:#181818;stroke-width:0.38999999999999996;" width="123.24" x="163.4646" y="580.1616"/><text fill="#000000" font-family="sans-serif" font-size="7.02" lengthAdjust="spacing" textLength="69.42" x="171.2646" y="594.4777">Auth et garde-fous</text><text fill="#000000" font-family="sans-serif" font-size="7.02" lengthAdjust="spacing" textLength="74.88" x="171.2646" y="602.6494">«Sanctum stateful»</text><text fill="#000000" font-family="sans-serif" font-size="7.02" lengthAdjust="spacing" textLength="107.64" x="171.2646" y="610.8211">RoleMiddleware / Permission</text></g><!--MD5=[aa33919f6aea5790bca91aa1fa7cb365]
entity CTRL--><g id="elem_CTRL"><rect fill="#F1F1F1" height="31.9434" rx="3.12" ry="3.12" style="stroke:#181818;stroke-width:0.38999999999999996;" width="117" x="168.9246" y="645.6816"/><text fill="#000000" font-family="sans-serif" font-size="7.02" lengthAdjust="spacing" textLength="64.74" x="176.7246" y="659.9977">Controleurs HTTP</text><text fill="#000000" font-family="sans-serif" font-size="7.02" lengthAdjust="spacing" textLength="101.4" x="176.7246" y="668.1694">Admin Client Staff Public...</text></g><!--MD5=[aea6d596231504cfe17125c90431b5a2]
entity SVC--><g id="elem_SVC"><rect fill="#F1F1F1" height="40.1152" rx="3.12" ry="3.12" style="stroke:#181818;stroke-width:0.38999999999999996;" width="90.48" x="187.6446" y="703.4016"/><text fill="#000000" font-family="sans-serif" font-size="7.02" lengthAdjust="spacing" textLength="74.88" x="195.4446" y="717.7177">Services applicatifs</text><text fill="#000000" font-family="sans-serif" font-size="7.02" lengthAdjust="spacing" textLength="67.86" x="195.4446" y="725.8894">notifications Mail,</text><text fill="#000000" font-family="sans-serif" font-size="7.02" lengthAdjust="spacing" textLength="71.76" x="195.4446" y="734.0611">regles demandes...</text></g><!--MD5=[3fcceccb8f5cae11017abed2c43d4ff7]
entity Nav--><g id="elem_Nav"><ellipse cx="227.4246" cy="40.0116" fill="#F1F1F1" rx="6.24" ry="6.24" style="stroke:#181818;stroke-width:0.38999999999999996;"/><path d="M227.4246,46.2516 L227.4246,67.3116 M217.2846,52.4916 L237.5646,52.4916 M227.4246,67.3116 L217.2846,79.0116 M227.4246,67.3116 L237.5646,79.0116 " fill="none" style="stroke:#181818;stroke-width:0.38999999999999996;"/><text fill="#000000" font-family="sans-serif" font-size="7.02" lengthAdjust="spacing" textLength="41.34" x="206.7546" y="86.6977">Navigateur</text><text fill="#000000" font-family="sans-serif" font-size="7.02" lengthAdjust="spacing" textLength="14.82" x="206.7546" y="94.8694">web</text></g><!--MD5=[b354e6c7d0270939bb0d08f4c1274b14]
entity EJS--><g id="elem_EJS"><path d="M349.956,367.8473 C352.2226,363.2005 357.1993,363.0341 360.1502,367.0413 C361.7594,361.5883 364.7228,360.7173 369.0847,364.3277 C371.981,357.9932 375.6067,357.5556 379.9887,362.9461 C381.3401,358.3674 385.5864,357.0784 388.8556,360.9285 C393.3981,357.8584 397.0544,357.9862 398.7954,363.9955 C402.2775,359.3585 405.724,360.9948 408.0034,365.242 C412.3736,360.3188 415.523,361.4489 418.5571,366.6367 C422.1323,362.2768 425.541,363.1816 427.8139,367.9565 C432.6288,368.5132 434.4196,372.485 430.9556,376.1978 C436.1669,377.775 437.1924,380.5552 434.143,385.0926 C436.8875,389.9304 436.328,393.4553 430.3979,395.0211 C433.2467,399.5846 432.0076,402.3054 427.0373,403.9141 C424.2991,408.4713 420.8823,408.1632 417.7262,404.3807 C416.4909,408.9739 412.3763,410.2676 408.9076,406.8346 C405.6531,412.4838 402.2318,413.0813 398.1926,407.5893 C396.6263,413.1184 393.8139,413.6139 389.3369,410.61 C385.4464,413.852 382.4411,413.6374 380.126,408.8114 C375.8152,412.9096 372.2994,411.966 370.41,406.3816 C365.8766,412.0699 362.4935,411.0844 359.1641,405.2106 C355.3758,409.0524 351.114,408.205 349.8702,402.6846 C345.8193,400.8208 345.3421,398.3464 348.2414,395.0079 C343.5919,394.0182 341.8322,389.8393 345.0802,386.0596 C340.997,382.0234 342.1718,378.3515 347.4549,376.6889 C343.8821,372.7259 344.9854,369.3936 349.956,367.8473 " fill="#F1F1F1" style="stroke:#181818;stroke-width:0.38999999999999996;"/><text fill="#000000" font-family="sans-serif" font-size="7.02" font-style="italic" lengthAdjust="spacing" textLength="38.22" x="368.9946" y="379.1977">«externe»</text><text fill="#000000" font-family="sans-serif" font-size="7.02" lengthAdjust="spacing" textLength="28.86" x="354.9546" y="387.3694">EmailJS</text><text fill="#000000" font-family="sans-serif" font-size="7.02" lengthAdjust="spacing" textLength="66.3" x="354.9546" y="395.5411">(api.emailjs.com)</text></g><!--MD5=[fc2c71aa2d4bb2c20cdd0d7e43ea6cdc]
entity SMTP--><g id="elem_SMTP"><path d="M350.4388,820.5312 C353.0647,815.7994 357.5193,815.8994 360.2578,820.4116 C361.8397,816.3258 365.4624,815.3553 368.5318,818.7708 C370.6959,812.4132 374.6635,812.5049 379.0746,816.4776 C381.2264,811.627 384.3561,811.6012 388.0541,814.7396 C391.1088,811.1331 395.6739,811.0498 397.3273,816.22 C401.5565,811.3934 405.2756,812.2548 407.8001,817.9214 C410.546,814.4905 415.012,814.3249 416.4861,819.2443 C420.9806,814.4487 424.0808,815.8431 426.4761,821.2915 C431.2578,822.5806 432.0807,825.8271 428.5883,829.2988 C433.493,831.1932 434.472,835.7985 429.8079,838.9074 C433.6643,842.646 432.5062,846.5945 427.4599,848.0456 C430.4184,851.4448 429.6571,854.0231 425.7569,855.9435 C423.9708,859.7136 420.2555,861.3589 417.281,857.2166 C414.9997,862.9057 411.0607,862.8908 406.8808,859.3576 C404.5172,864.0119 400.6104,863.9035 397.4068,860.324 C395.7005,865.271 391.3572,865.6747 387.8838,862.3611 C384.5083,866.4029 381.5954,865.5438 378.9133,861.5839 C375.0377,866.4734 370.3654,865.0533 368.2373,859.7531 C364.3555,863.9831 360.9863,862.3536 358.852,857.8708 C355.5199,862.5054 351.7582,860.7398 349.6937,856.5546 C345.5639,855.0215 344.111,850.9866 348.1508,847.9829 C343.7664,844.7498 344.648,841.1187 348.6833,838.3509 C344.2825,835.4841 344.716,832.0845 349.3544,829.9388 C345.7432,826.7886 345.6348,822.7115 350.4388,820.5312 " fill="#F1F1F1" style="stroke:#181818;stroke-width:0.38999999999999996;"/><text fill="#000000" font-family="sans-serif" font-size="7.02" font-style="italic" lengthAdjust="spacing" textLength="38.22" x="368.2146" y="832.3777">«externe»</text><text fill="#000000" font-family="sans-serif" font-size="7.02" lengthAdjust="spacing" textLength="65.52" x="354.5646" y="840.5494">Messagerie SMTP</text><text fill="#000000" font-family="sans-serif" font-size="7.02" lengthAdjust="spacing" textLength="47.58" x="354.5646" y="848.7211">(config .env)</text></g><!--MD5=[17fee3cd24ed221cd7f60345172bdef7]
link SPA to AX--><g id="link_SPA_AX"><path d="M146.8506,310.3596 C143.8164,324.1812 139.308,344.742 135.8292,360.6306 " fill="none" id="SPA-to-AX" style="stroke:#181818;stroke-width:0.7799999999999999;"/><polygon fill="#181818" points="134.9634,364.5618,139.5147,358.373,135.7988,360.7523,133.4196,357.0364,134.9634,364.5618" style="stroke:#181818;stroke-width:0.7799999999999999;"/><text fill="#000000" font-family="sans-serif" font-size="7.02" lengthAdjust="spacing" textLength="58.5" x="143.9646" y="338.2477">appels internes</text></g><!--MD5=[5d857a2f5d9aa3bdac779b91a2e2b0da]
link RT to AUTH--><g id="link_RT_AUTH"><path d="M225.0846,554.4996 C225.0846,561.27 225.0846,568.953 225.0846,576.0198 " fill="none" id="RT-to-AUTH" style="stroke:#181818;stroke-width:0.7799999999999999;"/><polygon fill="#181818" points="225.0846,580.0914,228.2046,573.0714,225.0846,576.1914,221.9646,573.0714,225.0846,580.0914" style="stroke:#181818;stroke-width:0.7799999999999999;"/></g><!--MD5=[68fadc4241601fdfe13dae37defc0d79]
link AUTH to CTRL--><g id="link_AUTH_CTRL"><path d="M225.8334,620.1678 C226.0986,626.9772 226.4028,634.6446 226.668,641.4618 " fill="none" id="AUTH-to-CTRL" style="stroke:#181818;stroke-width:0.7799999999999999;"/><polygon fill="#181818" points="226.824,645.588,229.6813,638.457,226.6792,641.6906,223.4456,638.6886,226.824,645.588" style="stroke:#181818;stroke-width:0.7799999999999999;"/></g><!--MD5=[5968470b3b117519e4c1f940cd6aeccc]
link CTRL to SVC--><g id="link_CTRL_SVC"><path d="M228.8286,677.919 C229.4214,684.432 230.1234,692.1462 230.7708,699.3144 " fill="none" id="CTRL-to-SVC" style="stroke:#181818;stroke-width:0.7799999999999999;"/><polygon fill="#181818" points="231.1296,703.2222,233.6163,695.9536,230.7845,699.3375,227.4007,696.5057,231.1296,703.2222" style="stroke:#181818;stroke-width:0.7799999999999999;"/></g><!--MD5=[82a711997d3ca86c7730f40f5e83e651]
link RP to FE_PKG--><!--MD5=[476ec47261d444bb2229d421d6de486e]
link FE_PKG to BE_PKG--><!--MD5=[51712f7fcff140b8b4e8822708f700af]
link BE_PKG to DB--><!--MD5=[f1f2b1cd1b42b70dc607403189206ab6]
link DB to VOL--><!--MD5=[aa90ce1e664d4f9b098f6623e0c4848d]
link Nav to RP--><g id="link_Nav_RP"><path d="M215.4672,96.663 C208.962,113.4798 201.0372,133.947 195.0624,149.391 " fill="none" id="Nav-to-RP" style="stroke:#181818;stroke-width:0.7799999999999999;"/><polygon fill="#181818" points="193.5882,153.2052,199.0236,147.7764,194.9905,149.566,193.2009,145.5328,193.5882,153.2052" style="stroke:#181818;stroke-width:0.7799999999999999;"/><text fill="#000000" font-family="sans-serif" font-size="7.02" lengthAdjust="spacing" textLength="23.4" x="211.0446" y="116.3377">HTTPS</text></g><!--MD5=[995d41c6f73b81f9c0f881c1ddafe863]
link RP to SPA--><g id="link_RP_SPA"><path d="M147.8568,193.4454 C143.8086,196.9944 140.2518,201.0894 137.7246,205.7616 C126.0948,227.2428 133.6842,255.8142 141.1254,274.4328 " fill="none" id="RP-to-SPA" style="stroke:#181818;stroke-width:0.7799999999999999;"/><polygon fill="#181818" points="142.7088,278.247,142.9006,270.5672,141.2143,274.6447,137.1369,272.9584,142.7088,278.247" style="stroke:#181818;stroke-width:0.7799999999999999;"/><text fill="#000000" font-family="sans-serif" font-size="7.02" lengthAdjust="spacing" textLength="61.62" x="138.5046" y="213.0577">assets statiques</text><text fill="#000000" font-family="sans-serif" font-size="7.02" lengthAdjust="spacing" textLength="54.6" x="142.0146" y="221.2294">(HTML JS CSS)</text></g><!--MD5=[dd9484882cc2d9954878d5ad63cd09fb]
link RP to RT--><g id="link_RP_RT"><path d="M201.3648,193.461 C203.8842,197.361 206.2164,201.5574 207.9246,205.7616 C211.8792,215.535 210.7248,218.6784 211.8246,229.1616 C222.7602,333.6192 224.7102,459.129 225.03,510.3126 " fill="none" id="RP-to-RT" style="stroke:#181818;stroke-width:0.7799999999999999;"/><polygon fill="#181818" points="225.0534,514.4466,228.1332,507.4088,225.0311,510.5466,221.8933,507.4445,225.0534,514.4466" style="stroke:#181818;stroke-width:0.7799999999999999;"/><text fill="#000000" font-family="sans-serif" font-size="7.02" lengthAdjust="spacing" textLength="23.4" x="246.9246" y="330.0577">HTTPS</text><text fill="#000000" font-family="sans-serif" font-size="7.02" lengthAdjust="spacing" textLength="48.36" x="234.4446" y="338.2294">prefixe /api/*</text><text fill="#000000" font-family="sans-serif" font-size="7.02" lengthAdjust="spacing" textLength="74.88" x="221.1846" y="346.4011">meme site ou CORS</text></g><!--MD5=[fd33872bcbf6cd19487256f957244c7c]
link Nav to SPA--><g id="link_Nav_SPA"><path d="M247.3614,96.8346 C267.111,131.958 290.2146,188.6718 258.6246,222.9216 C246.948,235.5732 195.6084,219.4428 181.4046,229.1616 C166.3194,239.481 158.2698,259.1994 154.1514,274.1052 " fill="none" id="Nav-to-SPA" style="stroke:#181818;stroke-width:0.7799999999999999;stroke-dasharray:7.0,7.0;"/><polygon fill="#181818" points="153.0906,278.169,157.8787,272.1615,154.0732,274.3948,151.84,270.5893,153.0906,278.169" style="stroke:#181818;stroke-width:0.7799999999999999;"/><text fill="#000000" font-family="sans-serif" font-size="7.02" lengthAdjust="spacing" textLength="63.18" x="274.2246" y="172.1077">acces direct dev</text><text fill="#000000" font-family="sans-serif" font-size="7.02" lengthAdjust="spacing" textLength="62.4" x="274.6146" y="180.2794">(localhost:5173)</text></g><!--MD5=[a28af3019b2e60ff4b6c1d3c131a4c52]
link AX to RT--><g id="link_AX_RT"><path d="M77.3604,401.7678 C41.5584,415.2462 4.68,435.9396 26.9646,459.2616 C37.4478,470.2362 149.7366,459.0198 163.4646,465.5016 C184.08,475.236 200.8734,495.3522 211.692,511.2408 " fill="none" id="AX-to-RT" style="stroke:#181818;stroke-width:0.7799999999999999;"/><polygon fill="#181818" points="213.9072,514.5636,212.6092,506.9919,211.7439,511.3186,207.4172,510.4532,213.9072,514.5636" style="stroke:#181818;stroke-width:0.7799999999999999;"/><text fill="#000000" font-family="sans-serif" font-size="7.02" lengthAdjust="spacing" textLength="63.18" x="42.5646" y="449.3977">JSON / FormData</text><text fill="#000000" font-family="sans-serif" font-size="7.02" lengthAdjust="spacing" textLength="92.82" x="27.7446" y="457.5694">Cookie session Sanctum</text></g><!--MD5=[15f9b02b5f6e4d148ef10a0092ca5f44]
link SVC to DB--><g id="link_SVC_DB"><path d="M218.4312,743.4312 C209.6718,753.9378 197.6676,766.3866 184.5246,774.3816 C176.1864,779.4594 169.4628,772.923 163.4646,780.6216 C157.911,787.743 156.0468,797.0484 155.9298,806.0418 " fill="none" id="SVC-to-DB" style="stroke:#181818;stroke-width:0.7799999999999999;"/><polygon fill="#181818" points="156,810.1368,159.0194,803.0729,155.9443,806.2372,152.78,803.162,156,810.1368" style="stroke:#181818;stroke-width:0.7799999999999999;"/><text fill="#000000" font-family="sans-serif" font-size="7.02" lengthAdjust="spacing" textLength="56.94" x="168.5346" y="787.9177">acces donnees</text><text fill="#000000" font-family="sans-serif" font-size="7.02" lengthAdjust="spacing" textLength="65.52" x="164.2446" y="796.0894">«Eloquent / PDO»</text></g><!--MD5=[ab64ee2e93a3b3d61a11f8cb26d06d7f]
link SVC to VOL--><g id="link_SVC_VOL"><path d="M233.3994,743.2596 C233.532,758.1888 233.1264,779.397 230.5446,797.7816 C226.2078,828.5916 221.676,835.6584 213.3846,865.6416 C211.4346,872.6772 209.235,880.212 207.1134,887.3022 " fill="none" id="SVC-to-VOL" style="stroke:#181818;stroke-width:0.7799999999999999;"/><polygon fill="#181818" points="205.9434,891.1866,210.957,885.366,207.0692,887.4526,204.9826,883.5648,205.9434,891.1866" style="stroke:#181818;stroke-width:0.7799999999999999;"/><text fill="#000000" font-family="sans-serif" font-size="7.02" lengthAdjust="spacing" textLength="68.64" x="229.3746" y="836.6677">upload / download</text><text fill="#000000" font-family="sans-serif" font-size="7.02" lengthAdjust="spacing" textLength="69.42" x="228.9846" y="844.8394">fichiers demandes</text></g><!--MD5=[934dc0f3057cbea77c7d1f6e82f45a43]
link SVC to SMTP--><g id="link_SVC_SMTP"><path d="M269.0142,743.283 C287.1024,753.501 308.9814,766.7922 327.2646,780.6216 C339.3702,789.7788 351.7566,801.0576 362.1072,811.1196 " fill="none" id="SVC-to-SMTP" style="stroke:#181818;stroke-width:0.7799999999999999;"/><polygon fill="#181818" points="364.9698,813.9276,362.1398,806.7857,362.1844,811.1978,357.7722,811.2424,364.9698,813.9276" style="stroke:#181818;stroke-width:0.7799999999999999;"/><text fill="#000000" font-family="sans-serif" font-size="7.02" lengthAdjust="spacing" textLength="54.6" x="346.7646" y="787.9177">«Laravel Mail»</text><text fill="#000000" font-family="sans-serif" font-size="7.02" lengthAdjust="spacing" textLength="35.88" x="356.1246" y="796.0894">Mailables</text></g><!--MD5=[4999cdb2db969b8fb1c17b5119b35f2c]
link SPA to EJS--><g id="link_SPA_EJS"><path d="M178.6044,309.4314 C179.5404,309.7434 180.4764,310.0242 181.4046,310.2816 C244.1166,327.6054 268.3122,295.2276 327.2646,322.7616 C343.785,330.4758 358.3476,344.6952 369.0804,357.4872 " fill="none" id="SPA-to-EJS" style="stroke:#181818;stroke-width:0.7799999999999999;stroke-dasharray:7.0,7.0;"/><polygon fill="#181818" points="371.7246,360.7008,369.6761,353.2968,369.2477,357.6883,364.8562,357.2599,371.7246,360.7008" style="stroke:#181818;stroke-width:0.7799999999999999;"/><text fill="#000000" font-family="sans-serif" font-size="7.02" lengthAdjust="spacing" textLength="23.4" x="384.9846" y="330.0577">HTTPS</text><text fill="#000000" font-family="sans-serif" font-size="7.02" lengthAdjust="spacing" textLength="71.76" x="360.8046" y="338.2294">formulaire Contact</text><text fill="#000000" font-family="sans-serif" font-size="7.02" lengthAdjust="spacing" textLength="53.04" x="370.1646" y="346.4011">(sans Laravel)</text></g><!--MD5=[4cfe3f836c4ee7b0efbd50097e50f718]
@startuml
title Diagramme de composants - Plateforme E-Services

top to bottom direction

skinparam defaultFontSize 9
skinparam shadowing false
skinparam roundcorner 8
skinparam nodesep 18
skinparam ranksep 32
skinparam componentStyle rectangle

scale 0.78

actor "Navigateur\nweb" as Nav

cloud "EmailJS\n(api.emailjs.com)" as EJS <<externe>>
cloud "Messagerie SMTP\n(config .env)" as SMTP <<externe>>

rectangle "Hebergement (dev ou Docker / prod)" as Host {

  component "Reverse proxy\n<<Nginx>>\n(optionnel TLS / routage)" as RP

  package "Frontend\n<<React + Vite>>" as FE_PKG #E8F4FC {
    component "SPA React\n(routes UI)" as SPA
    component "Client HTTP\n<<Axios>>\nwithCredentials + CSRF" as AX
    SPA - -> AX : appels internes
  }

  package "Backend API\n<<Laravel 12>>" as BE_PKG #FFF8E8 {
    component "Couche exposition\nroutes web + api\nlogin / sanctum/csrf-cookie" as RT
    component "Auth et garde-fous\n<<Sanctum stateful>>\nRoleMiddleware / Permission" as AUTH
    component "Controleurs HTTP\nAdmin Client Staff Public..." as CTRL
    component "Services applicatifs\nnotifications Mail,\nregles demandes..." as SVC
    RT - -> AUTH
    AUTH - -> CTRL
    CTRL - -> SVC
  }

  database "SGBD\n<<SQLite / MySQL /\nPostgreSQL>>\nselon .env" as DB

  folder "Stockage fichiers\n<<disque storage/app>>\npieces jointes" as VOL

  RP -[hidden]down- FE_PKG
  FE_PKG -[hidden]down- BE_PKG
  BE_PKG -[hidden]down- DB
  DB -[hidden]down- VOL
}

Nav - -> RP : HTTPS
RP - -> SPA : assets statiques\n(HTML JS CSS)
RP - -> RT : HTTPS\nprefixe /api/*\nmeme site ou CORS

Nav ..> SPA : acces direct dev\n(localhost:5173)

AX - -> RT : JSON / FormData\nCookie session Sanctum

SVC - -> DB : acces donnees\n<<Eloquent / PDO>>
SVC - -> VOL : upload / download\nfichiers demandes
SVC - -> SMTP : <<Laravel Mail>>\nMailables

SPA ..> EJS : HTTPS\nformulaire Contact\n(sans Laravel)
@enduml

PlantUML version 1.2022.7(Mon Aug 22 17:01:30 UTC 2022)
(GPL source distribution)
Java Runtime: OpenJDK Runtime Environment
JVM: OpenJDK 64-Bit Server VM
Default Encoding: UTF-8
Language: en
Country: null
--></g></svg>