<svg xmlns="http://www.w3.org/2000/svg" xmlns:xlink="http://www.w3.org/1999/xlink" contentStyleType="text/css" height="602px" preserveAspectRatio="none" style="width:769px;height:602px;background:#FFFFFF;" version="1.1" viewBox="0 0 769 602" width="769px" zoomAndPan="magnify"><defs/><g><rect fill="none" height="26.2969" id="_title" style="stroke:none;stroke-width:1.0;" width="425" x="165.25" y="5"/><text fill="#000000" font-family="sans-serif" font-size="14" font-weight="bold" lengthAdjust="spacing" textLength="415" x="170.25" y="22.9951">Diagramme de classes - Partie C (Demandes &amp; Suivi)</text><!--MD5=[3fd616f346a44cd59a91eb10b19e157c]
class User--><g id="elem_User"><rect codeLine="5" fill="#F1F1F1" height="72.5938" id="User" rx="2.5" ry="2.5" style="stroke:#181818;stroke-width:0.5;" width="111" x="414.5" y="481.7969"/><ellipse cx="450.65" cy="497.7969" fill="#ADD1B2" rx="11" ry="11" style="stroke:#181818;stroke-width:1.0;"/><path d="M453.6188,503.4375 Q453.0406,503.7344 452.4,503.875 Q451.7594,504.0313 451.0563,504.0313 Q448.5563,504.0313 447.2281,502.3906 Q445.9156,500.7344 445.9156,497.6094 Q445.9156,494.4844 447.2281,492.8281 Q448.5563,491.1719 451.0563,491.1719 Q451.7594,491.1719 452.4,491.3281 Q453.0563,491.4844 453.6188,491.7813 L453.6188,494.5 Q452.9938,493.9219 452.4,493.6563 Q451.8063,493.375 451.1813,493.375 Q449.8375,493.375 449.15,494.4531 Q448.4625,495.5156 448.4625,497.6094 Q448.4625,499.7031 449.15,500.7813 Q449.8375,501.8438 451.1813,501.8438 Q451.8063,501.8438 452.4,501.5781 Q452.9938,501.2969 453.6188,500.7188 L453.6188,503.4375 Z " fill="#000000"/><text fill="#000000" font-family="sans-serif" font-size="14" lengthAdjust="spacing" textLength="32" x="469.35" y="502.6436">User</text><line style="stroke:#181818;stroke-width:0.5;" x1="415.5" x2="524.5" y1="513.7969" y2="513.7969"/><text fill="#000000" font-family="sans-serif" font-size="14" lengthAdjust="spacing" textLength="71" x="420.5" y="530.792">+id: bigint</text><text fill="#000000" font-family="sans-serif" font-size="14" lengthAdjust="spacing" textLength="99" x="420.5" y="547.0889">+name: string</text></g><!--MD5=[dbb8b4f13c7b21394f9d757e58732f45]
class Service--><g id="elem_Service"><rect codeLine="10" fill="#F1F1F1" height="72.5938" id="Service" rx="2.5" ry="2.5" style="stroke:#181818;stroke-width:0.5;" width="111" x="59.5" y="481.7969"/><ellipse cx="87.55" cy="497.7969" fill="#ADD1B2" rx="11" ry="11" style="stroke:#181818;stroke-width:1.0;"/><path d="M90.5188,503.4375 Q89.9406,503.7344 89.3,503.875 Q88.6594,504.0313 87.9563,504.0313 Q85.4563,504.0313 84.1281,502.3906 Q82.8156,500.7344 82.8156,497.6094 Q82.8156,494.4844 84.1281,492.8281 Q85.4563,491.1719 87.9563,491.1719 Q88.6594,491.1719 89.3,491.3281 Q89.9563,491.4844 90.5188,491.7813 L90.5188,494.5 Q89.8938,493.9219 89.3,493.6563 Q88.7063,493.375 88.0813,493.375 Q86.7375,493.375 86.05,494.4531 Q85.3625,495.5156 85.3625,497.6094 Q85.3625,499.7031 86.05,500.7813 Q86.7375,501.8438 88.0813,501.8438 Q88.7063,501.8438 89.3,501.5781 Q89.8938,501.2969 90.5188,500.7188 L90.5188,503.4375 Z " fill="#000000"/><text fill="#000000" font-family="sans-serif" font-size="14" lengthAdjust="spacing" textLength="50" x="104.45" y="502.6436">Service</text><line style="stroke:#181818;stroke-width:0.5;" x1="60.5" x2="169.5" y1="513.7969" y2="513.7969"/><text fill="#000000" font-family="sans-serif" font-size="14" lengthAdjust="spacing" textLength="71" x="65.5" y="530.792">+id: bigint</text><text fill="#000000" font-family="sans-serif" font-size="14" lengthAdjust="spacing" textLength="99" x="65.5" y="547.0889">+name: string</text></g><!--MD5=[32e2df69179de289ec0c64420f20f0c2]
class ServiceField--><g id="elem_ServiceField"><rect codeLine="15" fill="#F1F1F1" height="72.5938" id="ServiceField" rx="2.5" ry="2.5" style="stroke:#181818;stroke-width:0.5;" width="114" x="37" y="258.7969"/><ellipse cx="52" cy="274.7969" fill="#ADD1B2" rx="11" ry="11" style="stroke:#181818;stroke-width:1.0;"/><path d="M54.9688,280.4375 Q54.3906,280.7344 53.75,280.875 Q53.1094,281.0313 52.4063,281.0313 Q49.9063,281.0313 48.5781,279.3906 Q47.2656,277.7344 47.2656,274.6094 Q47.2656,271.4844 48.5781,269.8281 Q49.9063,268.1719 52.4063,268.1719 Q53.1094,268.1719 53.75,268.3281 Q54.4063,268.4844 54.9688,268.7813 L54.9688,271.5 Q54.3438,270.9219 53.75,270.6563 Q53.1563,270.375 52.5313,270.375 Q51.1875,270.375 50.5,271.4531 Q49.8125,272.5156 49.8125,274.6094 Q49.8125,276.7031 50.5,277.7813 Q51.1875,278.8438 52.5313,278.8438 Q53.1563,278.8438 53.75,278.5781 Q54.3438,278.2969 54.9688,277.7188 L54.9688,280.4375 Z " fill="#000000"/><text fill="#000000" font-family="sans-serif" font-size="14" lengthAdjust="spacing" textLength="82" x="66" y="279.6436">ServiceField</text><line style="stroke:#181818;stroke-width:0.5;" x1="38" x2="150" y1="290.7969" y2="290.7969"/><text fill="#000000" font-family="sans-serif" font-size="14" lengthAdjust="spacing" textLength="71" x="43" y="307.792">+id: bigint</text><text fill="#000000" font-family="sans-serif" font-size="14" lengthAdjust="spacing" textLength="92" x="43" y="324.0889">+label: string</text></g><!--MD5=[0851f84a889f989e7bb0bebc385d0f09]
class Request--><g id="elem_Request"><rect codeLine="20" fill="#F1F1F1" height="137.7813" id="Request" rx="2.5" ry="2.5" style="stroke:#181818;stroke-width:0.5;" width="236" x="207" y="226.2969"/><ellipse cx="291.25" cy="242.2969" fill="#ADD1B2" rx="11" ry="11" style="stroke:#181818;stroke-width:1.0;"/><path d="M294.2188,247.9375 Q293.6406,248.2344 293,248.375 Q292.3594,248.5313 291.6563,248.5313 Q289.1563,248.5313 287.8281,246.8906 Q286.5156,245.2344 286.5156,242.1094 Q286.5156,238.9844 287.8281,237.3281 Q289.1563,235.6719 291.6563,235.6719 Q292.3594,235.6719 293,235.8281 Q293.6563,235.9844 294.2188,236.2813 L294.2188,239 Q293.5938,238.4219 293,238.1563 Q292.4063,237.875 291.7813,237.875 Q290.4375,237.875 289.75,238.9531 Q289.0625,240.0156 289.0625,242.1094 Q289.0625,244.2031 289.75,245.2813 Q290.4375,246.3438 291.7813,246.3438 Q292.4063,246.3438 293,246.0781 Q293.5938,245.7969 294.2188,245.2188 L294.2188,247.9375 Z " fill="#000000"/><text fill="#000000" font-family="sans-serif" font-size="14" lengthAdjust="spacing" textLength="59" x="311.75" y="247.1436">Request</text><line style="stroke:#181818;stroke-width:0.5;" x1="208" x2="442" y1="258.2969" y2="258.2969"/><text fill="#000000" font-family="sans-serif" font-size="14" lengthAdjust="spacing" textLength="71" x="213" y="275.292">+id: bigint</text><text fill="#000000" font-family="sans-serif" font-size="14" lengthAdjust="spacing" textLength="127" x="213" y="291.5889">+reference: string</text><text fill="#000000" font-family="sans-serif" font-size="14" lengthAdjust="spacing" textLength="109" x="213" y="307.8857">+user_id: bigint</text><text fill="#000000" font-family="sans-serif" font-size="14" lengthAdjust="spacing" textLength="127" x="213" y="324.1826">+service_id: bigint</text><text fill="#000000" font-family="sans-serif" font-size="14" lengthAdjust="spacing" textLength="150" x="213" y="340.4795">+assigned_to: bigint?</text><text fill="#000000" font-family="sans-serif" font-size="14" lengthAdjust="spacing" textLength="224" x="213" y="356.7764">+current_status: RequestStatus</text></g><!--MD5=[e886406dc7f3231e7c91de194cde4610]
class RequestFieldValue--><g id="elem_RequestFieldValue"><rect codeLine="29" fill="#F1F1F1" height="105.1875" id="RequestFieldValue" rx="2.5" ry="2.5" style="stroke:#181818;stroke-width:0.5;" width="174" x="7" y="52.2969"/><ellipse cx="27.85" cy="68.2969" fill="#ADD1B2" rx="11" ry="11" style="stroke:#181818;stroke-width:1.0;"/><path d="M30.8188,73.9375 Q30.2406,74.2344 29.6,74.375 Q28.9594,74.5313 28.2563,74.5313 Q25.7563,74.5313 24.4281,72.8906 Q23.1156,71.2344 23.1156,68.1094 Q23.1156,64.9844 24.4281,63.3281 Q25.7563,61.6719 28.2563,61.6719 Q28.9594,61.6719 29.6,61.8281 Q30.2563,61.9844 30.8188,62.2813 L30.8188,65 Q30.1938,64.4219 29.6,64.1563 Q29.0063,63.875 28.3813,63.875 Q27.0375,63.875 26.35,64.9531 Q25.6625,66.0156 25.6625,68.1094 Q25.6625,70.2031 26.35,71.2813 Q27.0375,72.3438 28.3813,72.3438 Q29.0063,72.3438 29.6,72.0781 Q30.1938,71.7969 30.8188,71.2188 L30.8188,73.9375 Z " fill="#000000"/><text fill="#000000" font-family="sans-serif" font-size="14" lengthAdjust="spacing" textLength="129" x="43.15" y="73.1436">RequestFieldValue</text><line style="stroke:#181818;stroke-width:0.5;" x1="8" x2="180" y1="84.2969" y2="84.2969"/><text fill="#000000" font-family="sans-serif" font-size="14" lengthAdjust="spacing" textLength="71" x="13" y="101.292">+id: bigint</text><text fill="#000000" font-family="sans-serif" font-size="14" lengthAdjust="spacing" textLength="132" x="13" y="117.5889">+request_id: bigint</text><text fill="#000000" font-family="sans-serif" font-size="14" lengthAdjust="spacing" textLength="162" x="13" y="133.8857">+service_field_id: bigint</text><text fill="#000000" font-family="sans-serif" font-size="14" lengthAdjust="spacing" textLength="83" x="13" y="150.1826">+value: text</text></g><!--MD5=[c6d569c449841a3c695fceb08e85a7d2]
class RequestDocument--><g id="elem_RequestDocument"><rect codeLine="36" fill="#F1F1F1" height="88.8906" id="RequestDocument" rx="2.5" ry="2.5" style="stroke:#181818;stroke-width:0.5;" width="164" x="216" y="60.2969"/><ellipse cx="231" cy="76.2969" fill="#ADD1B2" rx="11" ry="11" style="stroke:#181818;stroke-width:1.0;"/><path d="M233.9688,81.9375 Q233.3906,82.2344 232.75,82.375 Q232.1094,82.5313 231.4063,82.5313 Q228.9063,82.5313 227.5781,80.8906 Q226.2656,79.2344 226.2656,76.1094 Q226.2656,72.9844 227.5781,71.3281 Q228.9063,69.6719 231.4063,69.6719 Q232.1094,69.6719 232.75,69.8281 Q233.4063,69.9844 233.9688,70.2813 L233.9688,73 Q233.3438,72.4219 232.75,72.1563 Q232.1563,71.875 231.5313,71.875 Q230.1875,71.875 229.5,72.9531 Q228.8125,74.0156 228.8125,76.1094 Q228.8125,78.2031 229.5,79.2813 Q230.1875,80.3438 231.5313,80.3438 Q232.1563,80.3438 232.75,80.0781 Q233.3438,79.7969 233.9688,79.2188 L233.9688,81.9375 Z " fill="#000000"/><text fill="#000000" font-family="sans-serif" font-size="14" lengthAdjust="spacing" textLength="132" x="245" y="81.1436">RequestDocument</text><line style="stroke:#181818;stroke-width:0.5;" x1="217" x2="379" y1="92.2969" y2="92.2969"/><text fill="#000000" font-family="sans-serif" font-size="14" lengthAdjust="spacing" textLength="71" x="222" y="109.292">+id: bigint</text><text fill="#000000" font-family="sans-serif" font-size="14" lengthAdjust="spacing" textLength="132" x="222" y="125.5889">+request_id: bigint</text><text fill="#000000" font-family="sans-serif" font-size="14" lengthAdjust="spacing" textLength="91" x="222" y="141.8857">+path: string</text></g><!--MD5=[790cc82d6eb37d7107f708f280e2b799]
class RequestComment--><g id="elem_RequestComment"><rect codeLine="42" fill="#F1F1F1" height="105.1875" id="RequestComment" rx="2.5" ry="2.5" style="stroke:#181818;stroke-width:0.5;" width="159" x="415.5" y="52.2969"/><ellipse cx="430.5" cy="68.2969" fill="#ADD1B2" rx="11" ry="11" style="stroke:#181818;stroke-width:1.0;"/><path d="M433.4688,73.9375 Q432.8906,74.2344 432.25,74.375 Q431.6094,74.5313 430.9063,74.5313 Q428.4063,74.5313 427.0781,72.8906 Q425.7656,71.2344 425.7656,68.1094 Q425.7656,64.9844 427.0781,63.3281 Q428.4063,61.6719 430.9063,61.6719 Q431.6094,61.6719 432.25,61.8281 Q432.9063,61.9844 433.4688,62.2813 L433.4688,65 Q432.8438,64.4219 432.25,64.1563 Q431.6563,63.875 431.0313,63.875 Q429.6875,63.875 429,64.9531 Q428.3125,66.0156 428.3125,68.1094 Q428.3125,70.2031 429,71.2813 Q429.6875,72.3438 431.0313,72.3438 Q431.6563,72.3438 432.25,72.0781 Q432.8438,71.7969 433.4688,71.2188 L433.4688,73.9375 Z " fill="#000000"/><text fill="#000000" font-family="sans-serif" font-size="14" lengthAdjust="spacing" textLength="127" x="444.5" y="73.1436">RequestComment</text><line style="stroke:#181818;stroke-width:0.5;" x1="416.5" x2="573.5" y1="84.2969" y2="84.2969"/><text fill="#000000" font-family="sans-serif" font-size="14" lengthAdjust="spacing" textLength="71" x="421.5" y="101.292">+id: bigint</text><text fill="#000000" font-family="sans-serif" font-size="14" lengthAdjust="spacing" textLength="132" x="421.5" y="117.5889">+request_id: bigint</text><text fill="#000000" font-family="sans-serif" font-size="14" lengthAdjust="spacing" textLength="109" x="421.5" y="133.8857">+user_id: bigint</text><text fill="#000000" font-family="sans-serif" font-size="14" lengthAdjust="spacing" textLength="113" x="421.5" y="150.1826">+comment: text</text></g><!--MD5=[1a90647201e582536f3d7e33ff44c212]
class RequestHistory--><g id="elem_RequestHistory"><rect codeLine="49" fill="#F1F1F1" height="121.4844" id="RequestHistory" rx="2.5" ry="2.5" style="stroke:#181818;stroke-width:0.5;" width="153" x="609.5" y="44.2969"/><ellipse cx="631.25" cy="60.2969" fill="#ADD1B2" rx="11" ry="11" style="stroke:#181818;stroke-width:1.0;"/><path d="M634.2188,65.9375 Q633.6406,66.2344 633,66.375 Q632.3594,66.5313 631.6563,66.5313 Q629.1563,66.5313 627.8281,64.8906 Q626.5156,63.2344 626.5156,60.1094 Q626.5156,56.9844 627.8281,55.3281 Q629.1563,53.6719 631.6563,53.6719 Q632.3594,53.6719 633,53.8281 Q633.6563,53.9844 634.2188,54.2813 L634.2188,57 Q633.5938,56.4219 633,56.1563 Q632.4063,55.875 631.7813,55.875 Q630.4375,55.875 629.75,56.9531 Q629.0625,58.0156 629.0625,60.1094 Q629.0625,62.2031 629.75,63.2813 Q630.4375,64.3438 631.7813,64.3438 Q632.4063,64.3438 633,64.0781 Q633.5938,63.7969 634.2188,63.2188 L634.2188,65.9375 Z " fill="#000000"/><text fill="#000000" font-family="sans-serif" font-size="14" lengthAdjust="spacing" textLength="106" x="646.75" y="65.1436">RequestHistory</text><line style="stroke:#181818;stroke-width:0.5;" x1="610.5" x2="761.5" y1="76.2969" y2="76.2969"/><text fill="#000000" font-family="sans-serif" font-size="14" lengthAdjust="spacing" textLength="71" x="615.5" y="93.292">+id: bigint</text><text fill="#000000" font-family="sans-serif" font-size="14" lengthAdjust="spacing" textLength="132" x="615.5" y="109.5889">+request_id: bigint</text><text fill="#000000" font-family="sans-serif" font-size="14" lengthAdjust="spacing" textLength="116" x="615.5" y="125.8857">+user_id: bigint?</text><text fill="#000000" font-family="sans-serif" font-size="14" lengthAdjust="spacing" textLength="141" x="615.5" y="142.1826">+from_status: string</text><text fill="#000000" font-family="sans-serif" font-size="14" lengthAdjust="spacing" textLength="124" x="615.5" y="158.4795">+to_status: string</text></g><!--MD5=[9a9b09fa8617134b1b2615b408c4fd7b]
class RequestStatus--><g id="elem_RequestStatus"><rect codeLine="57" fill="#F1F1F1" height="154.0781" id="RequestStatus" rx="2.5" ry="2.5" style="stroke:#181818;stroke-width:0.5;" width="135" x="205.5" y="441.2969"/><ellipse cx="220.5" cy="457.2969" fill="#EB937F" rx="11" ry="11" style="stroke:#181818;stroke-width:1.0;"/><path d="M224.6094,463.2969 L216.8906,463.2969 L216.8906,450.9063 L224.6094,450.9063 L224.6094,453.0625 L219.3438,453.0625 L219.3438,455.7344 L224.1094,455.7344 L224.1094,457.8906 L219.3438,457.8906 L219.3438,461.1406 L224.6094,461.1406 L224.6094,463.2969 Z " fill="#000000"/><text fill="#000000" font-family="sans-serif" font-size="14" lengthAdjust="spacing" textLength="103" x="234.5" y="462.1436">RequestStatus</text><line style="stroke:#181818;stroke-width:0.5;" x1="206.5" x2="339.5" y1="473.2969" y2="473.2969"/><text fill="#000000" font-family="sans-serif" font-size="14" lengthAdjust="spacing" textLength="47" x="211.5" y="490.292">DRAFT</text><text fill="#000000" font-family="sans-serif" font-size="14" lengthAdjust="spacing" textLength="82" x="211.5" y="506.5889">SUBMITTED</text><text fill="#000000" font-family="sans-serif" font-size="14" lengthAdjust="spacing" textLength="73" x="211.5" y="522.8857">IN_REVIEW</text><text fill="#000000" font-family="sans-serif" font-size="14" lengthAdjust="spacing" textLength="87" x="211.5" y="539.1826">NEEDS_INFO</text><text fill="#000000" font-family="sans-serif" font-size="14" lengthAdjust="spacing" textLength="77" x="211.5" y="555.4795">APPROVED</text><text fill="#000000" font-family="sans-serif" font-size="14" lengthAdjust="spacing" textLength="70" x="211.5" y="571.7764">REJECTED</text><text fill="#000000" font-family="sans-serif" font-size="14" lengthAdjust="spacing" textLength="57" x="211.5" y="588.0732">CLOSED</text></g><!--MD5=[9410e01709ca4e6e633b4efc917c14c2]
link Request to User--><g id="link_Request_User"><path codeLine="67" d="M316.89,364.5069 C317.6,380.5569 320.65,397.1069 328,411.2969 C333.01,420.9769 376,452.4269 413.38,478.5869 " fill="none" id="Request-to-User" style="stroke:#181818;stroke-width:1.0;"/><polygon fill="#181818" points="417.91,481.7469,412.813,473.3195,413.8078,478.8882,408.2391,479.883,417.91,481.7469" style="stroke:#181818;stroke-width:1.0;"/><text fill="#000000" font-family="sans-serif" font-size="13" lengthAdjust="spacing" textLength="34" x="329" y="407.3638">client</text><text fill="#000000" font-family="sans-serif" font-size="13" lengthAdjust="spacing" textLength="23" x="291.9596" y="384.1422">0..*</text><text fill="#000000" font-family="sans-serif" font-size="13" lengthAdjust="spacing" textLength="8" x="399.5684" y="470.7417">1</text></g><!--MD5=[9410e01709ca4e6e633b4efc917c14c2]
link Request to User--><g id="link_Request_User"><path codeLine="69" d="M369.69,364.4069 C393.88,401.2769 422.94,445.5669 443.54,476.9669 " fill="none" id="Request-to-User-1" style="stroke:#181818;stroke-width:1.0;"/><polygon fill="#181818" points="446.51,481.4969,444.9076,471.7793,443.763,477.3191,438.2231,476.1745,446.51,481.4969" style="stroke:#181818;stroke-width:1.0;"/><text fill="#000000" font-family="sans-serif" font-size="13" lengthAdjust="spacing" textLength="77" x="399" y="407.3638">assigned_to</text><text fill="#000000" font-family="sans-serif" font-size="13" lengthAdjust="spacing" textLength="23" x="349.9571" y="384.0324">0..*</text><text fill="#000000" font-family="sans-serif" font-size="13" lengthAdjust="spacing" textLength="24" x="416.1883" y="470.7208">0..1</text></g><!--MD5=[5ca31c2674ab687c36d639b58388d71e]
link Request to Service--><g id="link_Request_Service"><path codeLine="68" d="M260.28,364.4069 C224.96,401.5769 182.47,446.2969 152.59,477.7369 " fill="none" id="Request-to-Service" style="stroke:#181818;stroke-width:1.0;"/><polygon fill="#181818" points="149.01,481.4969,158.1064,477.7212,152.4515,477.8697,152.303,472.2148,149.01,481.4969" style="stroke:#181818;stroke-width:1.0;"/><text fill="#000000" font-family="sans-serif" font-size="13" lengthAdjust="spacing" textLength="23" x="229.7771" y="384.0324">0..*</text><text fill="#000000" font-family="sans-serif" font-size="13" lengthAdjust="spacing" textLength="8" x="146.3555" y="470.7208">1</text></g><!--MD5=[96e48006258750890ded9d16524ed7f8]
link RequestFieldValue to Request--><g id="link_RequestFieldValue_Request"><path codeLine="71" d="M157.12,157.3069 C181.95,177.5669 210.87,201.1669 237.65,223.0169 " fill="none" id="RequestFieldValue-to-Request" style="stroke:#181818;stroke-width:1.0;"/><polygon fill="#181818" points="241.58,226.2269,237.1368,217.4372,237.7064,223.0653,232.0783,223.635,241.58,226.2269" style="stroke:#181818;stroke-width:1.0;"/><text fill="#000000" font-family="sans-serif" font-size="13" lengthAdjust="spacing" textLength="23" x="141.0564" y="177.4339">0..*</text><text fill="#000000" font-family="sans-serif" font-size="13" lengthAdjust="spacing" textLength="8" x="224.5648" y="215.4156">1</text></g><!--MD5=[6f03c99cc5f1eacf724f867d8cf3c481]
link RequestFieldValue to ServiceField--><g id="link_RequestFieldValue_ServiceField"><path codeLine="72" d="M94,157.3069 C94,187.5769 94,225.3169 94,253.5069 " fill="none" id="RequestFieldValue-to-ServiceField" style="stroke:#181818;stroke-width:1.0;"/><polygon fill="#181818" points="94,258.6569,98,249.6569,94,253.6569,90,249.6569,94,258.6569" style="stroke:#181818;stroke-width:1.0;"/><text fill="#000000" font-family="sans-serif" font-size="13" lengthAdjust="spacing" textLength="23" x="69.4547" y="177.4339">0..*</text><text fill="#000000" font-family="sans-serif" font-size="13" lengthAdjust="spacing" textLength="8" x="85.2625" y="247.6352">1</text></g><!--MD5=[f6b58d574ad97ab64d145fdeacd7a214]
link RequestDocument to Request--><g id="link_RequestDocument_Request"><path codeLine="73" d="M304.26,149.5169 C307.3,170.7369 311.04,196.8069 314.5,220.9569 " fill="none" id="RequestDocument-to-Request" style="stroke:#181818;stroke-width:1.0;"/><polygon fill="#181818" points="315.23,226.0769,317.9017,216.5973,314.5149,221.1283,309.9839,217.7415,315.23,226.0769" style="stroke:#181818;stroke-width:1.0;"/><text fill="#000000" font-family="sans-serif" font-size="13" lengthAdjust="spacing" textLength="23" x="280.4904" y="169.2714">0..*</text><text fill="#000000" font-family="sans-serif" font-size="13" lengthAdjust="spacing" textLength="8" x="305.81" y="215.2501">1</text></g><!--MD5=[4c46ea369578a3bf5633b8471c518b26]
link RequestComment to Request--><g id="link_RequestComment_Request"><path codeLine="74" d="M448.55,157.3069 C430.42,177.3969 409.34,200.7769 389.77,222.4769 " fill="none" id="RequestComment-to-Request" style="stroke:#181818;stroke-width:1.0;"/><polygon fill="#181818" points="386.39,226.2269,395.3839,222.2131,389.7348,222.5104,389.4375,216.8614,386.39,226.2269" style="stroke:#181818;stroke-width:1.0;"/><text fill="#000000" font-family="sans-serif" font-size="13" lengthAdjust="spacing" textLength="23" x="417.763" y="177.4339">0..*</text><text fill="#000000" font-family="sans-serif" font-size="13" lengthAdjust="spacing" textLength="8" x="384.3083" y="215.4156">1</text></g><!--MD5=[7966fc9ce3629ba3069ac49a70a72aba]
link RequestComment to User--><g id="link_RequestComment_User"><path codeLine="75" d="M495,157.5169 C494.62,218.3569 492.73,322.3469 485,411.2969 C483.12,432.8869 479.85,456.7969 476.83,476.4269 " fill="none" id="RequestComment-to-User" style="stroke:#181818;stroke-width:1.0;"/><polygon fill="#181818" points="476.03,481.5869,481.37,473.3113,476.801,476.6467,473.4657,472.0777,476.03,481.5869" style="stroke:#181818;stroke-width:1.0;"/><text fill="#000000" font-family="sans-serif" font-size="13" lengthAdjust="spacing" textLength="23" x="470.4547" y="177.6722">0..*</text><text fill="#000000" font-family="sans-serif" font-size="13" lengthAdjust="spacing" textLength="8" x="468.3916" y="470.8269">1</text></g><!--MD5=[90eaf9d6265664d44ee36d0113dc6726]
link RequestHistory to Request--><g id="link_RequestHistory_Request"><path codeLine="76" d="M609.48,155.2269 C603.61,158.7169 597.74,162.1069 592,165.2969 C545.78,190.9869 493.66,216.8269 447.82,238.5669 " fill="none" id="RequestHistory-to-Request" style="stroke:#181818;stroke-width:1.0;"/><polygon fill="#181818" points="443.12,240.7869,452.9658,240.541,447.6369,238.6428,449.5352,233.3139,443.12,240.7869" style="stroke:#181818;stroke-width:1.0;"/><text fill="#000000" font-family="sans-serif" font-size="13" lengthAdjust="spacing" textLength="23" x="578.3657" y="156.2352">0..*</text><text fill="#000000" font-family="sans-serif" font-size="13" lengthAdjust="spacing" textLength="8" x="450.9433" y="233.8925">1</text></g><!--MD5=[d0f4a21aa1a412539387edd4e16b46cc]
link RequestHistory to User--><g id="link_RequestHistory_User"><path codeLine="77" d="M654.59,165.6369 C609.94,250.6969 529.3,404.3269 491.13,477.0469 " fill="none" id="RequestHistory-to-User" style="stroke:#181818;stroke-width:1.0;"/><polygon fill="#181818" points="488.67,481.7169,496.399,475.6125,490.997,477.2914,489.3181,471.8894,488.67,481.7169" style="stroke:#181818;stroke-width:1.0;"/><text fill="#000000" font-family="sans-serif" font-size="13" lengthAdjust="spacing" textLength="23" x="626.3603" y="186.0113">0..*</text><text fill="#000000" font-family="sans-serif" font-size="13" lengthAdjust="spacing" textLength="24" x="494.3248" y="470.7062">0..1</text></g><!--MD5=[7a8a99763a833e89819b0c86e7b6d38a]
link Request to RequestStatus--><g id="link_Request_RequestStatus"><path codeLine="78" d="M302.96,364.5469 C300.09,374.4769 297.34,384.6069 295,394.2969 C291.76,407.7269 288.77,422.0869 286.1,436.0769 " fill="none" id="Request-to-RequestStatus" style="stroke:#181818;stroke-width:1.0;stroke-dasharray:7.0,7.0;"/><polygon fill="#181818" points="285.13,441.2169,290.7315,433.116,286.0583,436.3038,282.8706,431.6307,285.13,441.2169" style="stroke:#181818;stroke-width:1.0;"/></g><!--MD5=[5375fe3e6df5aa9eebbcd7de9d75490a]
@startuml
title Diagramme de classes - Partie C (Demandes & Suivi)
skinparam classAttributeIconSize 0
hide methods

class User {
  +id: bigint
  +name: string
}

class Service {
  +id: bigint
  +name: string
}

class ServiceField {
  +id: bigint
  +label: string
}

class Request {
  +id: bigint
  +reference: string
  +user_id: bigint
  +service_id: bigint
  +assigned_to: bigint?
  +current_status: RequestStatus
}

class RequestFieldValue {
  +id: bigint
  +request_id: bigint
  +service_field_id: bigint
  +value: text
}

class RequestDocument {
  +id: bigint
  +request_id: bigint
  +path: string
}

class RequestComment {
  +id: bigint
  +request_id: bigint
  +user_id: bigint
  +comment: text
}

class RequestHistory {
  +id: bigint
  +request_id: bigint
  +user_id: bigint?
  +from_status: string
  +to_status: string
}

enum RequestStatus {
  DRAFT
  SUBMITTED
  IN_REVIEW
  NEEDS_INFO
  APPROVED
  REJECTED
  CLOSED
}

Request "0..*" - -> "1" User : client
Request "0..*" - -> "1" Service
Request "0..*" - -> "0..1" User : assigned_to

RequestFieldValue "0..*" - -> "1" Request
RequestFieldValue "0..*" - -> "1" ServiceField
RequestDocument "0..*" - -> "1" Request
RequestComment "0..*" - -> "1" Request
RequestComment "0..*" - -> "1" User
RequestHistory "0..*" - -> "1" Request
RequestHistory "0..*" - -> "0..1" User
Request ..> RequestStatus
@enduml

PlantUML version 1.2022.7(Mon Aug 22 17:01:30 UTC 2022)
(GPL source distribution)
Java Runtime: OpenJDK Runtime Environment
JVM: OpenJDK 64-Bit Server VM
Default Encoding: UTF-8
Language: en
Country: null
--></g></svg>