<svg xmlns="http://www.w3.org/2000/svg" xmlns:xlink="http://www.w3.org/1999/xlink" contentStyleType="text/css" height="949px" preserveAspectRatio="none" style="width:808px;height:949px;background:#FFFFFF;" version="1.1" viewBox="0 0 808 949" width="808px" zoomAndPan="magnify"><defs/><g><rect fill="none" height="26.2969" id="_title" rx="4" ry="4" style="stroke:none;stroke-width:1.0;" width="360" x="220" y="10"/><text fill="#000000" font-family="sans-serif" font-size="14" font-weight="bold" lengthAdjust="spacing" textLength="350" x="225" y="27.9951">DS v03 - Mot de passe oublie (code + reset)</text><rect fill="#FFFFFF" height="308.6875" style="stroke:#181818;stroke-width:1.0;" width="10" x="228.5" y="181.2188"/><rect fill="#FFFFFF" height="308.0469" style="stroke:#181818;stroke-width:1.0;" width="10" x="228.5" y="555.1875"/><rect fill="#FFFFFF" height="245.7656" style="stroke:#181818;stroke-width:1.0;" width="10" x="422.5" y="218.5"/><rect fill="#FFFFFF" height="85.9219" style="stroke:#181818;stroke-width:1.0;" width="10" x="422.5" y="592.4688"/><rect fill="#FFFFFF" height="14" style="stroke:#181818;stroke-width:1.0;" width="10" x="605.5" y="343.0625"/><rect fill="#FFFFFF" height="14" style="stroke:#181818;stroke-width:1.0;" width="10" x="605.5" y="618.1094"/><rect fill="#FFFFFF" height="14" style="stroke:#181818;stroke-width:1.0;" width="10" x="605.5" y="782.9531"/><rect fill="#FFFFFF" height="14" style="stroke:#181818;stroke-width:1.0;" width="10" x="686.5" y="405.9844"/><rect fill="#FFFFFF" height="14" style="stroke:#181818;stroke-width:1.0;" width="10" x="758" y="244.1406"/><rect fill="#FFFFFF" height="14" style="stroke:#181818;stroke-width:1.0;" width="10" x="758" y="743.3125"/><rect fill="none" height="154.8438" rx="4" ry="4" style="stroke:#000000;stroke-width:1.5;" width="396" x="349" y="273.1406"/><rect fill="none" height="209.125" rx="4" ry="4" style="stroke:#000000;stroke-width:1.5;" width="781" x="10" y="647.1094"/><line style="stroke:#181818;stroke-width:0.5;stroke-dasharray:5.0,5.0;" x1="47" x2="47" y1="113.9375" y2="873.2344"/><line style="stroke:#181818;stroke-width:0.5;stroke-dasharray:5.0,5.0;" x1="233.5" x2="233.5" y1="113.9375" y2="873.2344"/><line style="stroke:#181818;stroke-width:0.5;stroke-dasharray:5.0,5.0;" x1="427" x2="427" y1="113.9375" y2="873.2344"/><line style="stroke:#181818;stroke-width:0.5;stroke-dasharray:5.0,5.0;" x1="610" x2="610" y1="113.9375" y2="873.2344"/><line style="stroke:#181818;stroke-width:0.5;stroke-dasharray:5.0,5.0;" x1="691" x2="691" y1="113.9375" y2="873.2344"/><line style="stroke:#181818;stroke-width:0.5;stroke-dasharray:5.0,5.0;" x1="763" x2="763" y1="113.9375" y2="873.2344"/><text fill="#000000" font-family="sans-serif" font-size="10" lengthAdjust="spacing" textLength="49" x="20" y="111.5791">Utilisateur</text><ellipse cx="47.5" cy="50.7969" fill="#E2E2F0" rx="8" ry="8" style="stroke:#181818;stroke-width:0.5;"/><path d="M47.5,58.7969 L47.5,85.7969 M34.5,66.7969 L60.5,66.7969 M47.5,85.7969 L34.5,100.7969 M47.5,85.7969 L60.5,100.7969 " fill="none" style="stroke:#181818;stroke-width:0.5;"/><text fill="#000000" font-family="sans-serif" font-size="10" lengthAdjust="spacing" textLength="49" x="20" y="881.5166">Utilisateur</text><ellipse cx="47.5" cy="892.375" fill="#E2E2F0" rx="8" ry="8" style="stroke:#181818;stroke-width:0.5;"/><path d="M47.5,900.375 L47.5,927.375 M34.5,908.375 L60.5,908.375 M47.5,927.375 L34.5,942.375 M47.5,927.375 L60.5,942.375 " fill="none" style="stroke:#181818;stroke-width:0.5;"/><rect fill="#E2E2F0" height="25.6406" rx="4" ry="4" style="stroke:#181818;stroke-width:0.5;" width="66" x="200.5" y="87.2969"/><text fill="#000000" font-family="sans-serif" font-size="10" lengthAdjust="spacing" textLength="52" x="207.5" y="103.5791">SPA React</text><rect fill="#E2E2F0" height="25.6406" rx="4" ry="4" style="stroke:#181818;stroke-width:0.5;" width="66" x="200.5" y="872.2344"/><text fill="#000000" font-family="sans-serif" font-size="10" lengthAdjust="spacing" textLength="52" x="207.5" y="888.5166">SPA React</text><rect fill="#E2E2F0" height="37.2813" rx="4" ry="4" style="stroke:#181818;stroke-width:0.5;" width="137" x="359" y="75.6563"/><text fill="#000000" font-family="sans-serif" font-size="10" lengthAdjust="spacing" textLength="123" x="366" y="91.9385">PasswordResetController</text><text fill="#000000" font-family="sans-serif" font-size="10" lengthAdjust="spacing" textLength="104" x="375.5" y="103.5791">POST /api/password/*</text><rect fill="#E2E2F0" height="37.2813" rx="4" ry="4" style="stroke:#181818;stroke-width:0.5;" width="137" x="359" y="872.2344"/><text fill="#000000" font-family="sans-serif" font-size="10" lengthAdjust="spacing" textLength="123" x="366" y="888.5166">PasswordResetController</text><text fill="#000000" font-family="sans-serif" font-size="10" lengthAdjust="spacing" textLength="104" x="375.5" y="900.1572">POST /api/password/*</text><rect fill="#E2E2F0" height="37.2813" rx="4" ry="4" style="stroke:#181818;stroke-width:0.5;" width="55" x="583" y="75.6563"/><text fill="#000000" font-family="sans-serif" font-size="10" lengthAdjust="spacing" textLength="31" x="595" y="91.9385">Cache</text><text fill="#000000" font-family="sans-serif" font-size="10" lengthAdjust="spacing" textLength="41" x="590" y="103.5791">(15 min)</text><rect fill="#E2E2F0" height="37.2813" rx="4" ry="4" style="stroke:#181818;stroke-width:0.5;" width="55" x="583" y="872.2344"/><text fill="#000000" font-family="sans-serif" font-size="10" lengthAdjust="spacing" textLength="31" x="595" y="888.5166">Cache</text><text fill="#000000" font-family="sans-serif" font-size="10" lengthAdjust="spacing" textLength="41" x="590" y="900.1572">(15 min)</text><rect fill="#E2E2F0" height="37.2813" rx="4" ry="4" style="stroke:#181818;stroke-width:0.5;" width="87" x="648" y="75.6563"/><text fill="#000000" font-family="sans-serif" font-size="10" lengthAdjust="spacing" textLength="70" x="656.5" y="91.9385">EmailJsSender</text><text fill="#000000" font-family="sans-serif" font-size="10" lengthAdjust="spacing" textLength="73" x="655" y="103.5791">ou Laravel Mail</text><rect fill="#E2E2F0" height="37.2813" rx="4" ry="4" style="stroke:#181818;stroke-width:0.5;" width="87" x="648" y="872.2344"/><text fill="#000000" font-family="sans-serif" font-size="10" lengthAdjust="spacing" textLength="70" x="656.5" y="888.5166">EmailJsSender</text><text fill="#000000" font-family="sans-serif" font-size="10" lengthAdjust="spacing" textLength="73" x="655" y="900.1572">ou Laravel Mail</text><text fill="#000000" font-family="sans-serif" font-size="10" lengthAdjust="spacing" textLength="30" x="745" y="111.5791">SGBD</text><path d="M745,66.2969 C745,56.2969 763,56.2969 763,56.2969 C763,56.2969 781,56.2969 781,66.2969 L781,92.2969 C781,102.2969 763,102.2969 763,102.2969 C763,102.2969 745,102.2969 745,92.2969 L745,66.2969 " fill="#E2E2F0" style="stroke:#181818;stroke-width:1.5;"/><path d="M745,66.2969 C745,76.2969 763,76.2969 763,76.2969 C763,76.2969 781,76.2969 781,66.2969 " fill="none" style="stroke:#181818;stroke-width:1.5;"/><text fill="#000000" font-family="sans-serif" font-size="10" lengthAdjust="spacing" textLength="30" x="745" y="881.5166">SGBD</text><path d="M745,893.875 C745,883.875 763,883.875 763,883.875 C763,883.875 781,883.875 781,893.875 L781,919.875 C781,929.875 763,929.875 763,929.875 C763,929.875 745,929.875 745,919.875 L745,893.875 " fill="#E2E2F0" style="stroke:#181818;stroke-width:1.5;"/><path d="M745,893.875 C745,903.875 763,903.875 763,903.875 C763,903.875 781,903.875 781,893.875 " fill="none" style="stroke:#181818;stroke-width:1.5;"/><rect fill="#FFFFFF" height="308.6875" style="stroke:#181818;stroke-width:1.0;" width="10" x="228.5" y="181.2188"/><rect fill="#FFFFFF" height="308.0469" style="stroke:#181818;stroke-width:1.0;" width="10" x="228.5" y="555.1875"/><rect fill="#FFFFFF" height="245.7656" style="stroke:#181818;stroke-width:1.0;" width="10" x="422.5" y="218.5"/><rect fill="#FFFFFF" height="85.9219" style="stroke:#181818;stroke-width:1.0;" width="10" x="422.5" y="592.4688"/><rect fill="#FFFFFF" height="14" style="stroke:#181818;stroke-width:1.0;" width="10" x="605.5" y="343.0625"/><rect fill="#FFFFFF" height="14" style="stroke:#181818;stroke-width:1.0;" width="10" x="605.5" y="618.1094"/><rect fill="#FFFFFF" height="14" style="stroke:#181818;stroke-width:1.0;" width="10" x="605.5" y="782.9531"/><rect fill="#FFFFFF" height="14" style="stroke:#181818;stroke-width:1.0;" width="10" x="686.5" y="405.9844"/><rect fill="#FFFFFF" height="14" style="stroke:#181818;stroke-width:1.0;" width="10" x="758" y="244.1406"/><rect fill="#FFFFFF" height="14" style="stroke:#181818;stroke-width:1.0;" width="10" x="758" y="743.3125"/><rect fill="#EEEEEE" height="3" rx="4" ry="4" style="stroke:#EEEEEE;stroke-width:1.0;" width="801" x="0" y="142.7578"/><line style="stroke:#000000;stroke-width:1.0;" x1="0" x2="801" y1="142.7578" y2="142.7578"/><line style="stroke:#000000;stroke-width:1.0;" x1="0" x2="801" y1="145.7578" y2="145.7578"/><rect fill="#EEEEEE" height="19.6406" rx="4" ry="4" style="stroke:#000000;stroke-width:2.0;" width="118" x="341.5" y="133.9375"/><text fill="#000000" font-family="sans-serif" font-size="10" font-weight="bold" lengthAdjust="spacing" textLength="101" x="347.5" y="147.2197">Demande de code</text><polygon fill="#181818" points="216.5,177.2188,226.5,181.2188,216.5,185.2188,220.5,181.2188" style="stroke:#181818;stroke-width:1.0;"/><line style="stroke:#181818;stroke-width:1.0;" x1="47.5" x2="222.5" y1="181.2188" y2="181.2188"/><text fill="#000000" font-family="sans-serif" font-size="10" lengthAdjust="spacing" textLength="58" x="109" y="176.8604">Email oublie</text><polygon fill="#181818" points="410.5,214.5,420.5,218.5,410.5,222.5,414.5,218.5" style="stroke:#181818;stroke-width:1.0;"/><line style="stroke:#181818;stroke-width:1.0;" x1="238.5" x2="416.5" y1="218.5" y2="218.5"/><text fill="#000000" font-family="sans-serif" font-size="10" lengthAdjust="spacing" textLength="129" x="266" y="202.501">POST /api/password/forgot</text><text fill="#000000" font-family="sans-serif" font-size="10" lengthAdjust="spacing" textLength="44" x="308.5" y="214.1416">{ email }</text><polygon fill="#181818" points="746,240.1406,756,244.1406,746,248.1406,750,244.1406" style="stroke:#181818;stroke-width:1.0;"/><line style="stroke:#181818;stroke-width:1.0;" x1="432.5" x2="752" y1="244.1406" y2="244.1406"/><text fill="#000000" font-family="sans-serif" font-size="10" lengthAdjust="spacing" textLength="114" x="538.25" y="239.7822">chercher user par email</text><polygon fill="#181818" points="443.5,254.1406,433.5,258.1406,443.5,262.1406,439.5,258.1406" style="stroke:#181818;stroke-width:1.0;"/><line style="stroke:#181818;stroke-width:1.0;stroke-dasharray:2.0,2.0;" x1="437.5" x2="762" y1="258.1406" y2="258.1406"/><path d="M353,273.1406 L413,273.1406 L413,276.7813 L403,286.7813 L349,286.7813 L349,277.1406 A4,4 0 0 1 353,273.1406 " fill="#EEEEEE" style="stroke:#000000;stroke-width:1.5;"/><rect fill="none" height="154.8438" rx="4" ry="4" style="stroke:#000000;stroke-width:1.5;" width="396" x="349" y="273.1406"/><text fill="#000000" font-family="sans-serif" font-size="10" font-weight="bold" lengthAdjust="spacing" textLength="19" x="364" y="283.4229">opt</text><text fill="#000000" font-family="sans-serif" font-size="10" font-weight="bold" lengthAdjust="spacing" textLength="107" x="428" y="284.4229">[Utilisateur existe]</text><line style="stroke:#181818;stroke-width:1.0;" x1="432.5" x2="474.5" y1="304.4219" y2="304.4219"/><line style="stroke:#181818;stroke-width:1.0;" x1="474.5" x2="474.5" y1="304.4219" y2="317.4219"/><line style="stroke:#181818;stroke-width:1.0;" x1="433.5" x2="474.5" y1="317.4219" y2="317.4219"/><polygon fill="#181818" points="443.5,313.4219,433.5,317.4219,443.5,321.4219,439.5,317.4219" style="stroke:#181818;stroke-width:1.0;"/><text fill="#000000" font-family="sans-serif" font-size="10" lengthAdjust="spacing" textLength="112" x="439.5" y="300.0635">generer code 6 chiffres</text><polygon fill="#181818" points="593.5,339.0625,603.5,343.0625,593.5,347.0625,597.5,343.0625" style="stroke:#181818;stroke-width:1.0;"/><line style="stroke:#181818;stroke-width:1.0;" x1="432.5" x2="599.5" y1="343.0625" y2="343.0625"/><text fill="#000000" font-family="sans-serif" font-size="10" lengthAdjust="spacing" textLength="154" x="442" y="338.7041">stocker code + TTL + tentatives</text><polygon fill="#181818" points="443.5,353.0625,433.5,357.0625,443.5,361.0625,439.5,357.0625" style="stroke:#181818;stroke-width:1.0;"/><line style="stroke:#181818;stroke-width:1.0;stroke-dasharray:2.0,2.0;" x1="437.5" x2="609.5" y1="357.0625" y2="357.0625"/><polygon fill="#181818" points="674.5,401.9844,684.5,405.9844,674.5,409.9844,678.5,405.9844" style="stroke:#181818;stroke-width:1.0;"/><line style="stroke:#181818;stroke-width:1.0;" x1="432.5" x2="680.5" y1="405.9844" y2="405.9844"/><text fill="#000000" font-family="sans-serif" font-size="10" lengthAdjust="spacing" textLength="133" x="493" y="378.3447">deliverPasswordResetCode</text><text fill="#000000" font-family="sans-serif" font-size="10" lengthAdjust="spacing" textLength="102" x="508.5" y="389.9854">(EmailJS si configure,</text><text fill="#000000" font-family="sans-serif" font-size="10" lengthAdjust="spacing" textLength="102" x="508.5" y="401.626">sinon Mailable SMTP)</text><polygon fill="#181818" points="443.5,415.9844,433.5,419.9844,443.5,423.9844,439.5,419.9844" style="stroke:#181818;stroke-width:1.0;"/><line style="stroke:#181818;stroke-width:1.0;stroke-dasharray:2.0,2.0;" x1="437.5" x2="690.5" y1="419.9844" y2="419.9844"/><polygon fill="#181818" points="249.5,460.2656,239.5,464.2656,249.5,468.2656,245.5,464.2656" style="stroke:#181818;stroke-width:1.0;"/><line style="stroke:#181818;stroke-width:1.0;stroke-dasharray:2.0,2.0;" x1="243.5" x2="426.5" y1="464.2656" y2="464.2656"/><text fill="#000000" font-family="sans-serif" font-size="10" lengthAdjust="spacing" textLength="120" x="273" y="448.2666">200 (message generique</text><text fill="#000000" font-family="sans-serif" font-size="10" lengthAdjust="spacing" textLength="87" x="289.5" y="459.9072">anti enumeration)</text><polygon fill="#181818" points="58.5,485.9063,48.5,489.9063,58.5,493.9063,54.5,489.9063" style="stroke:#181818;stroke-width:1.0;"/><line style="stroke:#181818;stroke-width:1.0;stroke-dasharray:2.0,2.0;" x1="52.5" x2="232.5" y1="489.9063" y2="489.9063"/><text fill="#000000" font-family="sans-serif" font-size="10" lengthAdjust="spacing" textLength="157" x="62" y="485.5479">Indication envoi si compte existe</text><rect fill="#EEEEEE" height="3" rx="4" ry="4" style="stroke:#EEEEEE;stroke-width:1.0;" width="801" x="0" y="516.7266"/><line style="stroke:#000000;stroke-width:1.0;" x1="0" x2="801" y1="516.7266" y2="516.7266"/><line style="stroke:#000000;stroke-width:1.0;" x1="0" x2="801" y1="519.7266" y2="519.7266"/><rect fill="#EEEEEE" height="19.6406" rx="4" ry="4" style="stroke:#000000;stroke-width:2.0;" width="146" x="327.5" y="507.9063"/><text fill="#000000" font-family="sans-serif" font-size="10" font-weight="bold" lengthAdjust="spacing" textLength="129" x="333.5" y="521.1885">Nouveau mot de passe</text><polygon fill="#181818" points="216.5,551.1875,226.5,555.1875,216.5,559.1875,220.5,555.1875" style="stroke:#181818;stroke-width:1.0;"/><line style="stroke:#181818;stroke-width:1.0;" x1="47.5" x2="222.5" y1="555.1875" y2="555.1875"/><text fill="#000000" font-family="sans-serif" font-size="10" lengthAdjust="spacing" textLength="131" x="72.5" y="550.8291">Code + nouveau password</text><polygon fill="#181818" points="410.5,588.4688,420.5,592.4688,410.5,596.4688,414.5,592.4688" style="stroke:#181818;stroke-width:1.0;"/><line style="stroke:#181818;stroke-width:1.0;" x1="238.5" x2="416.5" y1="592.4688" y2="592.4688"/><text fill="#000000" font-family="sans-serif" font-size="10" lengthAdjust="spacing" textLength="124" x="268.5" y="576.4697">POST /api/password/reset</text><text fill="#000000" font-family="sans-serif" font-size="10" lengthAdjust="spacing" textLength="165" x="248" y="588.1104">email code password confirmation</text><polygon fill="#181818" points="593.5,614.1094,603.5,618.1094,593.5,622.1094,597.5,618.1094" style="stroke:#181818;stroke-width:1.0;"/><line style="stroke:#181818;stroke-width:1.0;" x1="432.5" x2="599.5" y1="618.1094" y2="618.1094"/><text fill="#000000" font-family="sans-serif" font-size="10" lengthAdjust="spacing" textLength="60" x="489" y="613.751">verifier code</text><polygon fill="#181818" points="443.5,628.1094,433.5,632.1094,443.5,636.1094,439.5,632.1094" style="stroke:#181818;stroke-width:1.0;"/><line style="stroke:#181818;stroke-width:1.0;stroke-dasharray:2.0,2.0;" x1="437.5" x2="609.5" y1="632.1094" y2="632.1094"/><path d="M14,647.1094 L70,647.1094 L70,650.75 L60,660.75 L10,660.75 L10,651.1094 A4,4 0 0 1 14,647.1094 " fill="#EEEEEE" style="stroke:#000000;stroke-width:1.5;"/><rect fill="none" height="209.125" rx="4" ry="4" style="stroke:#000000;stroke-width:1.5;" width="781" x="10" y="647.1094"/><text fill="#000000" font-family="sans-serif" font-size="10" font-weight="bold" lengthAdjust="spacing" textLength="15" x="25" y="657.3916">alt</text><text fill="#000000" font-family="sans-serif" font-size="10" font-weight="bold" lengthAdjust="spacing" textLength="141" x="85" y="658.3916">[Code invalide ou expire]</text><polygon fill="#181818" points="249.5,674.3906,239.5,678.3906,249.5,682.3906,245.5,678.3906" style="stroke:#181818;stroke-width:1.0;"/><line style="stroke:#181818;stroke-width:1.0;stroke-dasharray:2.0,2.0;" x1="243.5" x2="426.5" y1="678.3906" y2="678.3906"/><text fill="#000000" font-family="sans-serif" font-size="10" lengthAdjust="spacing" textLength="18" x="324" y="674.0322">422</text><polygon fill="#181818" points="58.5,700.0313,48.5,704.0313,58.5,708.0313,54.5,704.0313" style="stroke:#181818;stroke-width:1.0;"/><line style="stroke:#181818;stroke-width:1.0;stroke-dasharray:2.0,2.0;" x1="52.5" x2="227.5" y1="704.0313" y2="704.0313"/><text fill="#000000" font-family="sans-serif" font-size="10" lengthAdjust="spacing" textLength="31" x="122.5" y="699.6729">Erreur</text><line style="stroke:#000000;stroke-width:1.0;stroke-dasharray:2.0,2.0;" x1="10" x2="791" y1="713.0313" y2="713.0313"/><text fill="#000000" font-family="sans-serif" font-size="10" font-weight="bold" lengthAdjust="spacing" textLength="25" x="15" y="722.3135">[OK]</text><polygon fill="#181818" points="746,739.3125,756,743.3125,746,747.3125,750,743.3125" style="stroke:#181818;stroke-width:1.0;"/><line style="stroke:#181818;stroke-width:1.0;" x1="427.5" x2="752" y1="743.3125" y2="743.3125"/><text fill="#000000" font-family="sans-serif" font-size="10" lengthAdjust="spacing" textLength="117" x="534.25" y="738.9541">UPDATE password hash</text><polygon fill="#181818" points="438.5,753.3125,428.5,757.3125,438.5,761.3125,434.5,757.3125" style="stroke:#181818;stroke-width:1.0;"/><line style="stroke:#181818;stroke-width:1.0;stroke-dasharray:2.0,2.0;" x1="432.5" x2="762" y1="757.3125" y2="757.3125"/><polygon fill="#181818" points="593.5,778.9531,603.5,782.9531,593.5,786.9531,597.5,782.9531" style="stroke:#181818;stroke-width:1.0;"/><line style="stroke:#181818;stroke-width:1.0;" x1="427.5" x2="599.5" y1="782.9531" y2="782.9531"/><text fill="#000000" font-family="sans-serif" font-size="10" lengthAdjust="spacing" textLength="66" x="483.5" y="778.5947">invalider code</text><polygon fill="#181818" points="438.5,792.9531,428.5,796.9531,438.5,800.9531,434.5,796.9531" style="stroke:#181818;stroke-width:1.0;"/><line style="stroke:#181818;stroke-width:1.0;stroke-dasharray:2.0,2.0;" x1="432.5" x2="609.5" y1="796.9531" y2="796.9531"/><polygon fill="#181818" points="249.5,818.5938,239.5,822.5938,249.5,826.5938,245.5,822.5938" style="stroke:#181818;stroke-width:1.0;"/><line style="stroke:#181818;stroke-width:1.0;stroke-dasharray:2.0,2.0;" x1="243.5" x2="426.5" y1="822.5938" y2="822.5938"/><text fill="#000000" font-family="sans-serif" font-size="10" lengthAdjust="spacing" textLength="137" x="264.5" y="818.2354">200 mot de passe mis a jour</text><polygon fill="#181818" points="58.5,844.2344,48.5,848.2344,58.5,852.2344,54.5,848.2344" style="stroke:#181818;stroke-width:1.0;"/><line style="stroke:#181818;stroke-width:1.0;stroke-dasharray:2.0,2.0;" x1="52.5" x2="227.5" y1="848.2344" y2="848.2344"/><text fill="#000000" font-family="sans-serif" font-size="10" lengthAdjust="spacing" textLength="34" x="121" y="843.876">Succes</text><!--MD5=[1649655df61a41cdb360665befa7cabf]
@startuml
title DS v03 - Mot de passe oublie (code + reset)

skinparam defaultFontSize 10
skinparam shadowing false
skinparam roundcorner 8
skinparam sequenceMessageAlign center

actor "Utilisateur" as U
participant "SPA React" as FE
participant "PasswordResetController\nPOST /api/password/*" as PRC
participant "Cache\n(15 min)" as CA
participant "EmailJsSender\nou Laravel Mail" as MAIL
database "SGBD" as DB

== Demande de code ==

U -> FE : Email oublie
activate FE

FE -> PRC : POST /api/password/forgot\n{ email }
activate PRC

PRC -> DB : chercher user par email
activate DB
DB - -> PRC
deactivate DB

opt Utilisateur existe
  PRC -> PRC : generer code 6 chiffres
  PRC -> CA : stocker code + TTL + tentatives
  activate CA
  CA - -> PRC
  deactivate CA
  PRC -> MAIL : deliverPasswordResetCode\n(EmailJS si configure,\nsinon Mailable SMTP)
  activate MAIL
  MAIL - -> PRC
  deactivate MAIL
end

PRC - -> FE : 200 (message generique\nanti enumeration)
deactivate PRC
FE - -> U : Indication envoi si compte existe
deactivate FE

== Nouveau mot de passe ==

U -> FE : Code + nouveau password
activate FE

FE -> PRC : POST /api/password/reset\nemail code password confirmation
activate PRC

PRC -> CA : verifier code
activate CA
CA - -> PRC
deactivate CA

alt Code invalide ou expire
  PRC - -> FE : 422
  deactivate PRC
  FE - -> U : Erreur
else OK
  PRC -> DB : UPDATE password hash
  activate DB
  DB - -> PRC
  deactivate DB
  PRC -> CA : invalider code
  activate CA
  CA - -> PRC
  deactivate CA
  PRC - -> FE : 200 mot de passe mis a jour
  deactivate PRC
  FE - -> U : Succes
end

deactivate FE
@enduml

PlantUML version 1.2022.7(Mon Aug 22 17:01:30 UTC 2022)
(GPL source distribution)
Java Runtime: OpenJDK Runtime Environment
JVM: OpenJDK 64-Bit Server VM
Default Encoding: UTF-8
Language: en
Country: null
--></g></svg>