<svg xmlns="http://www.w3.org/2000/svg" xmlns:xlink="http://www.w3.org/1999/xlink" contentStyleType="text/css" height="1088px" preserveAspectRatio="none" style="width:617px;height:1088px;background:#FFFFFF;" version="1.1" viewBox="0 0 617 1088" width="617px" zoomAndPan="magnify"><defs/><g><rect fill="none" height="26.2969" id="_title" rx="4" ry="4" style="stroke:none;stroke-width:1.0;" width="478" x="65.75" y="10"/><text fill="#000000" font-family="sans-serif" font-size="14" font-weight="bold" lengthAdjust="spacing" textLength="468" x="70.75" y="27.9951">DS v05 - Demande publique sans compte (jeton de reprise)</text><rect fill="#FFFFFF" height="160.4844" style="stroke:#181818;stroke-width:1.0;" width="10" x="209.5" y="192.8594"/><rect fill="#FFFFFF" height="291.6875" style="stroke:#181818;stroke-width:1.0;" width="10" x="209.5" y="667.6719"/><rect fill="#FFFFFF" height="97.5625" style="stroke:#181818;stroke-width:1.0;" width="10" x="391.5" y="230.1406"/><rect fill="#FFFFFF" height="97.5625" style="stroke:#181818;stroke-width:1.0;" width="10" x="391.5" y="704.9531"/><rect fill="#FFFFFF" height="14" style="stroke:#181818;stroke-width:1.0;" width="10" x="567.5" y="267.4219"/><rect fill="#FFFFFF" height="93.2813" style="stroke:#181818;stroke-width:1.0;" width="10" x="567.5" y="427.5469"/><rect fill="#FFFFFF" height="14" style="stroke:#181818;stroke-width:1.0;" width="10" x="567.5" y="742.2344"/><rect fill="#FFFFFF" height="14" style="stroke:#181818;stroke-width:1.0;" width="10" x="567.5" y="879.0781"/><rect fill="none" height="306.9688" rx="4" ry="4" style="stroke:#000000;stroke-width:1.5;" width="590.5" x="10" y="296.4219"/><rect fill="none" height="181.125" rx="4" ry="4" style="stroke:#000000;stroke-width:1.5;" width="590.5" x="10" y="771.2344"/><line style="stroke:#181818;stroke-width:0.5;stroke-dasharray:5.0,5.0;" x1="50" x2="50" y1="125.5781" y2="1001"/><line style="stroke:#181818;stroke-width:0.5;stroke-dasharray:5.0,5.0;" x1="214" x2="214" y1="125.5781" y2="1001"/><line style="stroke:#181818;stroke-width:0.5;stroke-dasharray:5.0,5.0;" x1="396.5" x2="396.5" y1="125.5781" y2="1001"/><line style="stroke:#181818;stroke-width:0.5;stroke-dasharray:5.0,5.0;" x1="572.5" x2="572.5" y1="125.5781" y2="1001"/><text fill="#000000" font-family="sans-serif" font-size="10" lengthAdjust="spacing" textLength="35" x="30" y="111.5791">Usager</text><text fill="#000000" font-family="sans-serif" font-size="10" lengthAdjust="spacing" textLength="55" x="20" y="123.2197">(sans login)</text><ellipse cx="50.5" cy="50.7969" fill="#E2E2F0" rx="8" ry="8" style="stroke:#181818;stroke-width:0.5;"/><path d="M50.5,58.7969 L50.5,85.7969 M37.5,66.7969 L63.5,66.7969 M50.5,85.7969 L37.5,100.7969 M50.5,85.7969 L63.5,100.7969 " fill="none" style="stroke:#181818;stroke-width:0.5;"/><text fill="#000000" font-family="sans-serif" font-size="10" lengthAdjust="spacing" textLength="35" x="30" y="1009.2822">Usager</text><text fill="#000000" font-family="sans-serif" font-size="10" lengthAdjust="spacing" textLength="55" x="20" y="1020.9229">(sans login)</text><ellipse cx="50.5" cy="1031.7813" fill="#E2E2F0" rx="8" ry="8" style="stroke:#181818;stroke-width:0.5;"/><path d="M50.5,1039.7813 L50.5,1066.7813 M37.5,1047.7813 L63.5,1047.7813 M50.5,1066.7813 L37.5,1081.7813 M50.5,1066.7813 L63.5,1081.7813 " fill="none" style="stroke:#181818;stroke-width:0.5;"/><rect fill="#E2E2F0" height="37.2813" rx="4" ry="4" style="stroke:#181818;stroke-width:0.5;" width="69" x="180" y="87.2969"/><text fill="#000000" font-family="sans-serif" font-size="10" lengthAdjust="spacing" textLength="55" x="187" y="103.5791">SPA ou lien</text><text fill="#000000" font-family="sans-serif" font-size="10" lengthAdjust="spacing" textLength="53" x="188" y="115.2197">avec token</text><rect fill="#E2E2F0" height="37.2813" rx="4" ry="4" style="stroke:#181818;stroke-width:0.5;" width="69" x="180" y="1000"/><text fill="#000000" font-family="sans-serif" font-size="10" lengthAdjust="spacing" textLength="55" x="187" y="1016.2822">SPA ou lien</text><text fill="#000000" font-family="sans-serif" font-size="10" lengthAdjust="spacing" textLength="53" x="188" y="1027.9229">avec token</text><rect fill="#E2E2F0" height="37.2813" rx="4" ry="4" style="stroke:#181818;stroke-width:0.5;" width="136" x="328.5" y="87.2969"/><text fill="#000000" font-family="sans-serif" font-size="10" lengthAdjust="spacing" textLength="117" x="338" y="103.5791">GuestRequestController</text><text fill="#000000" font-family="sans-serif" font-size="10" lengthAdjust="spacing" textLength="122" x="335.5" y="115.2197">POST /api/public/requests</text><rect fill="#E2E2F0" height="37.2813" rx="4" ry="4" style="stroke:#181818;stroke-width:0.5;" width="136" x="328.5" y="1000"/><text fill="#000000" font-family="sans-serif" font-size="10" lengthAdjust="spacing" textLength="117" x="338" y="1016.2822">GuestRequestController</text><text fill="#000000" font-family="sans-serif" font-size="10" lengthAdjust="spacing" textLength="122" x="335.5" y="1027.9229">POST /api/public/requests</text><text fill="#000000" font-family="sans-serif" font-size="10" lengthAdjust="spacing" textLength="30" x="554.5" y="123.2197">SGBD</text><path d="M554.5,77.9375 C554.5,67.9375 572.5,67.9375 572.5,67.9375 C572.5,67.9375 590.5,67.9375 590.5,77.9375 L590.5,103.9375 C590.5,113.9375 572.5,113.9375 572.5,113.9375 C572.5,113.9375 554.5,113.9375 554.5,103.9375 L554.5,77.9375 " fill="#E2E2F0" style="stroke:#181818;stroke-width:1.5;"/><path d="M554.5,77.9375 C554.5,87.9375 572.5,87.9375 572.5,87.9375 C572.5,87.9375 590.5,87.9375 590.5,77.9375 " fill="none" style="stroke:#181818;stroke-width:1.5;"/><text fill="#000000" font-family="sans-serif" font-size="10" lengthAdjust="spacing" textLength="30" x="554.5" y="1009.2822">SGBD</text><path d="M554.5,1021.6406 C554.5,1011.6406 572.5,1011.6406 572.5,1011.6406 C572.5,1011.6406 590.5,1011.6406 590.5,1021.6406 L590.5,1047.6406 C590.5,1057.6406 572.5,1057.6406 572.5,1057.6406 C572.5,1057.6406 554.5,1057.6406 554.5,1047.6406 L554.5,1021.6406 " fill="#E2E2F0" style="stroke:#181818;stroke-width:1.5;"/><path d="M554.5,1021.6406 C554.5,1031.6406 572.5,1031.6406 572.5,1031.6406 C572.5,1031.6406 590.5,1031.6406 590.5,1021.6406 " fill="none" style="stroke:#181818;stroke-width:1.5;"/><rect fill="#FFFFFF" height="160.4844" style="stroke:#181818;stroke-width:1.0;" width="10" x="209.5" y="192.8594"/><rect fill="#FFFFFF" height="291.6875" style="stroke:#181818;stroke-width:1.0;" width="10" x="209.5" y="667.6719"/><rect fill="#FFFFFF" height="97.5625" style="stroke:#181818;stroke-width:1.0;" width="10" x="391.5" y="230.1406"/><rect fill="#FFFFFF" height="97.5625" style="stroke:#181818;stroke-width:1.0;" width="10" x="391.5" y="704.9531"/><rect fill="#FFFFFF" height="14" style="stroke:#181818;stroke-width:1.0;" width="10" x="567.5" y="267.4219"/><rect fill="#FFFFFF" height="93.2813" style="stroke:#181818;stroke-width:1.0;" width="10" x="567.5" y="427.5469"/><rect fill="#FFFFFF" height="14" style="stroke:#181818;stroke-width:1.0;" width="10" x="567.5" y="742.2344"/><rect fill="#FFFFFF" height="14" style="stroke:#181818;stroke-width:1.0;" width="10" x="567.5" y="879.0781"/><rect fill="#EEEEEE" height="3" rx="4" ry="4" style="stroke:#EEEEEE;stroke-width:1.0;" width="610.5" x="0" y="154.3984"/><line style="stroke:#000000;stroke-width:1.0;" x1="0" x2="610.5" y1="154.3984" y2="154.3984"/><line style="stroke:#000000;stroke-width:1.0;" x1="0" x2="610.5" y1="157.3984" y2="157.3984"/><rect fill="#EEEEEE" height="19.6406" rx="4" ry="4" style="stroke:#000000;stroke-width:2.0;" width="160" x="225.25" y="145.5781"/><text fill="#000000" font-family="sans-serif" font-size="10" font-weight="bold" lengthAdjust="spacing" textLength="143" x="231.25" y="158.8604">Creation brouillon + jeton</text><polygon fill="#181818" points="197.5,188.8594,207.5,192.8594,197.5,196.8594,201.5,192.8594" style="stroke:#181818;stroke-width:1.0;"/><line style="stroke:#181818;stroke-width:1.0;" x1="50.5" x2="203.5" y1="192.8594" y2="192.8594"/><text fill="#000000" font-family="sans-serif" font-size="10" lengthAdjust="spacing" textLength="122" x="69" y="188.501">Choisir service + champs</text><polygon fill="#181818" points="379.5,226.1406,389.5,230.1406,379.5,234.1406,383.5,230.1406" style="stroke:#181818;stroke-width:1.0;"/><line style="stroke:#181818;stroke-width:1.0;" x1="219.5" x2="385.5" y1="230.1406" y2="230.1406"/><text fill="#000000" font-family="sans-serif" font-size="10" lengthAdjust="spacing" textLength="122" x="244.5" y="214.1416">POST /api/public/requests</text><text fill="#000000" font-family="sans-serif" font-size="10" lengthAdjust="spacing" textLength="127" x="242" y="225.7822">{ service_id, field_values }</text><polygon fill="#181818" points="555.5,263.4219,565.5,267.4219,555.5,271.4219,559.5,267.4219" style="stroke:#181818;stroke-width:1.0;"/><line style="stroke:#181818;stroke-width:1.0;" x1="401.5" x2="561.5" y1="267.4219" y2="267.4219"/><text fill="#000000" font-family="sans-serif" font-size="10" lengthAdjust="spacing" textLength="95" x="437" y="251.4229">verifier service actif</text><text fill="#000000" font-family="sans-serif" font-size="10" lengthAdjust="spacing" textLength="147" x="411" y="263.0635">+ dates publication / echeance</text><polygon fill="#181818" points="412.5,277.4219,402.5,281.4219,412.5,285.4219,408.5,281.4219" style="stroke:#181818;stroke-width:1.0;"/><line style="stroke:#181818;stroke-width:1.0;stroke-dasharray:2.0,2.0;" x1="406.5" x2="571.5" y1="281.4219" y2="281.4219"/><path d="M14,296.4219 L70,296.4219 L70,300.0625 L60,310.0625 L10,310.0625 L10,300.4219 A4,4 0 0 1 14,296.4219 " fill="#EEEEEE" style="stroke:#000000;stroke-width:1.5;"/><rect fill="none" height="306.9688" rx="4" ry="4" style="stroke:#000000;stroke-width:1.5;" width="590.5" x="10" y="296.4219"/><text fill="#000000" font-family="sans-serif" font-size="10" font-weight="bold" lengthAdjust="spacing" textLength="15" x="25" y="306.7041">alt</text><text fill="#000000" font-family="sans-serif" font-size="10" font-weight="bold" lengthAdjust="spacing" textLength="108" x="85" y="307.7041">[Champs invalides]</text><polygon fill="#181818" points="230.5,323.7031,220.5,327.7031,230.5,331.7031,226.5,327.7031" style="stroke:#181818;stroke-width:1.0;"/><line style="stroke:#181818;stroke-width:1.0;stroke-dasharray:2.0,2.0;" x1="224.5" x2="395.5" y1="327.7031" y2="327.7031"/><text fill="#000000" font-family="sans-serif" font-size="10" lengthAdjust="spacing" textLength="18" x="299" y="323.3447">422</text><polygon fill="#181818" points="61.5,349.3438,51.5,353.3438,61.5,357.3438,57.5,353.3438" style="stroke:#181818;stroke-width:1.0;"/><line style="stroke:#181818;stroke-width:1.0;stroke-dasharray:2.0,2.0;" x1="55.5" x2="213.5" y1="353.3438" y2="353.3438"/><text fill="#000000" font-family="sans-serif" font-size="10" lengthAdjust="spacing" textLength="31" x="117" y="348.9854">Erreur</text><line style="stroke:#000000;stroke-width:1.0;stroke-dasharray:2.0,2.0;" x1="10" x2="600.5" y1="362.3438" y2="362.3438"/><text fill="#000000" font-family="sans-serif" font-size="10" font-weight="bold" lengthAdjust="spacing" textLength="25" x="15" y="371.626">[OK]</text><polygon fill="#181818" points="555.5,423.5469,565.5,427.5469,555.5,431.5469,559.5,427.5469" style="stroke:#181818;stroke-width:1.0;"/><line style="stroke:#181818;stroke-width:1.0;" x1="396.5" x2="561.5" y1="427.5469" y2="427.5469"/><text fill="#000000" font-family="sans-serif" font-size="10" lengthAdjust="spacing" textLength="33" x="465.5" y="388.2666">BEGIN</text><text fill="#000000" font-family="sans-serif" font-size="10" lengthAdjust="spacing" textLength="82" x="441" y="399.9072">INSERT requests</text><text fill="#000000" font-family="sans-serif" font-size="10" lengthAdjust="spacing" textLength="131" x="416.5" y="411.5479">user_id null, token aleatoire</text><text fill="#000000" font-family="sans-serif" font-size="10" lengthAdjust="spacing" textLength="118" x="423" y="423.1885">reference ADD-YYYY-...</text><polygon fill="#181818" points="407.5,437.5469,397.5,441.5469,407.5,445.5469,403.5,441.5469" style="stroke:#181818;stroke-width:1.0;"/><line style="stroke:#181818;stroke-width:1.0;stroke-dasharray:2.0,2.0;" x1="401.5" x2="566.5" y1="441.5469" y2="441.5469"/><polygon fill="#181818" points="555.5,463.1875,565.5,467.1875,555.5,471.1875,559.5,467.1875" style="stroke:#181818;stroke-width:1.0;"/><line style="stroke:#181818;stroke-width:1.0;" x1="396.5" x2="561.5" y1="467.1875" y2="467.1875"/><text fill="#000000" font-family="sans-serif" font-size="10" lengthAdjust="spacing" textLength="96" x="434" y="462.8291">INSERT field_values</text><polygon fill="#181818" points="407.5,477.1875,397.5,481.1875,407.5,485.1875,403.5,481.1875" style="stroke:#181818;stroke-width:1.0;"/><line style="stroke:#181818;stroke-width:1.0;stroke-dasharray:2.0,2.0;" x1="401.5" x2="566.5" y1="481.1875" y2="481.1875"/><polygon fill="#181818" points="555.5,502.8281,565.5,506.8281,555.5,510.8281,559.5,506.8281" style="stroke:#181818;stroke-width:1.0;"/><line style="stroke:#181818;stroke-width:1.0;" x1="396.5" x2="561.5" y1="506.8281" y2="506.8281"/><text fill="#000000" font-family="sans-serif" font-size="10" lengthAdjust="spacing" textLength="42" x="461" y="502.4697">COMMIT</text><polygon fill="#181818" points="407.5,516.8281,397.5,520.8281,407.5,524.8281,403.5,520.8281" style="stroke:#181818;stroke-width:1.0;"/><line style="stroke:#181818;stroke-width:1.0;stroke-dasharray:2.0,2.0;" x1="401.5" x2="571.5" y1="520.8281" y2="520.8281"/><polygon fill="#181818" points="225.5,554.1094,215.5,558.1094,225.5,562.1094,221.5,558.1094" style="stroke:#181818;stroke-width:1.0;"/><line style="stroke:#181818;stroke-width:1.0;stroke-dasharray:2.0,2.0;" x1="219.5" x2="395.5" y1="558.1094" y2="558.1094"/><text fill="#000000" font-family="sans-serif" font-size="10" lengthAdjust="spacing" textLength="149" x="231" y="542.1104">201 + public_submission_token</text><text fill="#000000" font-family="sans-serif" font-size="10" lengthAdjust="spacing" textLength="68" x="271.5" y="553.751">+ id demande</text><polygon fill="#181818" points="61.5,591.3906,51.5,595.3906,61.5,599.3906,57.5,595.3906" style="stroke:#181818;stroke-width:1.0;"/><line style="stroke:#181818;stroke-width:1.0;stroke-dasharray:2.0,2.0;" x1="55.5" x2="213.5" y1="595.3906" y2="595.3906"/><text fill="#000000" font-family="sans-serif" font-size="10" lengthAdjust="spacing" textLength="89" x="88" y="579.3916">Conserver le jeton</text><text fill="#000000" font-family="sans-serif" font-size="10" lengthAdjust="spacing" textLength="140" x="62.5" y="591.0322">(lien / header X-Public-Token)</text><rect fill="#EEEEEE" height="3" rx="4" ry="4" style="stroke:#EEEEEE;stroke-width:1.0;" width="610.5" x="0" y="629.2109"/><line style="stroke:#000000;stroke-width:1.0;" x1="0" x2="610.5" y1="629.2109" y2="629.2109"/><line style="stroke:#000000;stroke-width:1.0;" x1="0" x2="610.5" y1="632.2109" y2="632.2109"/><rect fill="#EEEEEE" height="19.6406" rx="4" ry="4" style="stroke:#000000;stroke-width:2.0;" width="215" x="197.75" y="620.3906"/><text fill="#000000" font-family="sans-serif" font-size="10" font-weight="bold" lengthAdjust="spacing" textLength="198" x="203.75" y="633.6729">Reprise : mise a jour ou soumission</text><polygon fill="#181818" points="197.5,663.6719,207.5,667.6719,197.5,671.6719,201.5,667.6719" style="stroke:#181818;stroke-width:1.0;"/><line style="stroke:#181818;stroke-width:1.0;" x1="50.5" x2="203.5" y1="667.6719" y2="667.6719"/><text fill="#000000" font-family="sans-serif" font-size="10" lengthAdjust="spacing" textLength="107" x="76.5" y="663.3135">Reprendre avec token</text><polygon fill="#181818" points="379.5,700.9531,389.5,704.9531,379.5,708.9531,383.5,704.9531" style="stroke:#181818;stroke-width:1.0;"/><line style="stroke:#181818;stroke-width:1.0;" x1="219.5" x2="385.5" y1="704.9531" y2="704.9531"/><text fill="#000000" font-family="sans-serif" font-size="10" lengthAdjust="spacing" textLength="113" x="249" y="688.9541">PUT ou POST .../submit</text><text fill="#000000" font-family="sans-serif" font-size="10" lengthAdjust="spacing" textLength="153" x="229" y="700.5947">+ token (query / header / body)</text><polygon fill="#181818" points="555.5,738.2344,565.5,742.2344,555.5,746.2344,559.5,742.2344" style="stroke:#181818;stroke-width:1.0;"/><line style="stroke:#181818;stroke-width:1.0;" x1="401.5" x2="561.5" y1="742.2344" y2="742.2344"/><text fill="#000000" font-family="sans-serif" font-size="10" lengthAdjust="spacing" textLength="92" x="438.5" y="726.2354">resoudre demande</text><text fill="#000000" font-family="sans-serif" font-size="10" lengthAdjust="spacing" textLength="116" x="426.5" y="737.876">id + token + user_id null</text><polygon fill="#181818" points="412.5,752.2344,402.5,756.2344,412.5,760.2344,408.5,756.2344" style="stroke:#181818;stroke-width:1.0;"/><line style="stroke:#181818;stroke-width:1.0;stroke-dasharray:2.0,2.0;" x1="406.5" x2="571.5" y1="756.2344" y2="756.2344"/><path d="M14,771.2344 L70,771.2344 L70,774.875 L60,784.875 L10,784.875 L10,775.2344 A4,4 0 0 1 14,771.2344 " fill="#EEEEEE" style="stroke:#000000;stroke-width:1.5;"/><rect fill="none" height="181.125" rx="4" ry="4" style="stroke:#000000;stroke-width:1.5;" width="590.5" x="10" y="771.2344"/><text fill="#000000" font-family="sans-serif" font-size="10" font-weight="bold" lengthAdjust="spacing" textLength="15" x="25" y="781.5166">alt</text><text fill="#000000" font-family="sans-serif" font-size="10" font-weight="bold" lengthAdjust="spacing" textLength="145" x="85" y="782.5166">[Jeton absent ou invalide]</text><polygon fill="#181818" points="230.5,798.5156,220.5,802.5156,230.5,806.5156,226.5,802.5156" style="stroke:#181818;stroke-width:1.0;"/><line style="stroke:#181818;stroke-width:1.0;stroke-dasharray:2.0,2.0;" x1="224.5" x2="395.5" y1="802.5156" y2="802.5156"/><text fill="#000000" font-family="sans-serif" font-size="10" lengthAdjust="spacing" textLength="45" x="285.5" y="798.1572">401 / 404</text><polygon fill="#181818" points="61.5,824.1563,51.5,828.1563,61.5,832.1563,57.5,828.1563" style="stroke:#181818;stroke-width:1.0;"/><line style="stroke:#181818;stroke-width:1.0;stroke-dasharray:2.0,2.0;" x1="55.5" x2="208.5" y1="828.1563" y2="828.1563"/><text fill="#000000" font-family="sans-serif" font-size="10" lengthAdjust="spacing" textLength="62" x="99" y="823.7979">Acces refuse</text><line style="stroke:#000000;stroke-width:1.0;stroke-dasharray:2.0,2.0;" x1="10" x2="600.5" y1="837.1563" y2="837.1563"/><text fill="#000000" font-family="sans-serif" font-size="10" font-weight="bold" lengthAdjust="spacing" textLength="25" x="15" y="846.4385">[OK]</text><polygon fill="#181818" points="555.5,875.0781,565.5,879.0781,555.5,883.0781,559.5,879.0781" style="stroke:#181818;stroke-width:1.0;"/><line style="stroke:#181818;stroke-width:1.0;" x1="396.5" x2="561.5" y1="879.0781" y2="879.0781"/><text fill="#000000" font-family="sans-serif" font-size="10" lengthAdjust="spacing" textLength="54" x="455" y="863.0791">transaction</text><text fill="#000000" font-family="sans-serif" font-size="10" lengthAdjust="spacing" textLength="100" x="432" y="874.7197">maj statut / donnees</text><polygon fill="#181818" points="407.5,889.0781,397.5,893.0781,407.5,897.0781,403.5,893.0781" style="stroke:#181818;stroke-width:1.0;"/><line style="stroke:#181818;stroke-width:1.0;stroke-dasharray:2.0,2.0;" x1="401.5" x2="571.5" y1="893.0781" y2="893.0781"/><polygon fill="#181818" points="230.5,914.7188,220.5,918.7188,230.5,922.7188,226.5,918.7188" style="stroke:#181818;stroke-width:1.0;"/><line style="stroke:#181818;stroke-width:1.0;stroke-dasharray:2.0,2.0;" x1="224.5" x2="395.5" y1="918.7188" y2="918.7188"/><text fill="#000000" font-family="sans-serif" font-size="10" lengthAdjust="spacing" textLength="18" x="299" y="914.3604">200</text><polygon fill="#181818" points="61.5,940.3594,51.5,944.3594,61.5,948.3594,57.5,944.3594" style="stroke:#181818;stroke-width:1.0;"/><line style="stroke:#181818;stroke-width:1.0;stroke-dasharray:2.0,2.0;" x1="55.5" x2="208.5" y1="944.3594" y2="944.3594"/><text fill="#000000" font-family="sans-serif" font-size="10" lengthAdjust="spacing" textLength="83" x="88.5" y="940.001">Demande traitee</text><path d="M295,968.3594 L295,981.3594 A4,4 0 0 0 299,985.3594 L493,985.3594 A4,4 0 0 0 497,981.3594 L497,974.3594 L487,964.3594 L299,964.3594 A4,4 0 0 0 295,968.3594 " fill="#FEFFDD" style="stroke:#181818;stroke-width:0.5;"/><path d="M487,964.3594 L487,972.3594 A2,2 0 0 0 489,974.3594 L497,974.3594 L487,964.3594 " fill="#FEFFDD" style="stroke:#181818;stroke-width:0.5;"/><text fill="#000000" font-family="sans-serif" font-size="10" lengthAdjust="spacing" textLength="181" x="301" y="978.6416">Throttle 60/min sur prefixe /api/public.</text><!--MD5=[9c0a345bf189147037538f475bf02134]
@startuml
title DS v05 - Demande publique sans compte (jeton de reprise)

skinparam defaultFontSize 10
skinparam shadowing false
skinparam roundcorner 8
skinparam sequenceMessageAlign center

actor "Usager\n(sans login)" as U
participant "SPA ou lien\navec token" as FE
participant "GuestRequestController\nPOST /api/public/requests" as GRC
database "SGBD" as DB

== Creation brouillon + jeton ==

U -> FE : Choisir service + champs
activate FE

FE -> GRC : POST /api/public/requests\n{ service_id, field_values }
activate GRC

GRC -> DB : verifier service actif\n+ dates publication / echeance
activate DB
DB - -> GRC
deactivate DB

alt Champs invalides
  GRC - -> FE : 422
  deactivate GRC
  FE - -> U : Erreur
  deactivate FE
else OK
  GRC -> DB : BEGIN\nINSERT requests\nuser_id null, token aleatoire\nreference ADD-YYYY-...
  activate DB
  DB - -> GRC
  GRC -> DB : INSERT field_values
  DB - -> GRC
  GRC -> DB : COMMIT
  DB - -> GRC
  deactivate DB

  GRC - -> FE : 201 + public_submission_token\n+ id demande
  deactivate GRC
  FE - -> U : Conserver le jeton\n(lien / header X-Public-Token)
  deactivate FE
end

== Reprise : mise a jour ou soumission ==

U -> FE : Reprendre avec token
activate FE

FE -> GRC : PUT ou POST .../submit\n+ token (query / header / body)
activate GRC

GRC -> DB : resoudre demande\nid + token + user_id null
activate DB
DB - -> GRC
deactivate DB

alt Jeton absent ou invalide
  GRC - -> FE : 401 / 404
  deactivate GRC
  FE - -> U : Acces refuse
else OK
  GRC -> DB : transaction\nmaj statut / donnees
  activate DB
  DB - -> GRC
  deactivate DB
  GRC - -> FE : 200
  deactivate GRC
  FE - -> U : Demande traitee
end

deactivate FE

note over GRC
  Throttle 60/min sur prefixe /api/public.
end note
@enduml

PlantUML version 1.2022.7(Mon Aug 22 17:01:30 UTC 2022)
(GPL source distribution)
Java Runtime: OpenJDK Runtime Environment
JVM: OpenJDK 64-Bit Server VM
Default Encoding: UTF-8
Language: en
Country: null
--></g></svg>