<svg xmlns="http://www.w3.org/2000/svg" xmlns:xlink="http://www.w3.org/1999/xlink" contentStyleType="text/css" height="1049px" preserveAspectRatio="none" style="width:705px;height:1049px;background:#FFFFFF;" version="1.1" viewBox="0 0 705 1049" width="705px" zoomAndPan="magnify"><defs/><g><rect fill="none" height="26.2969" id="_title" rx="4" ry="4" style="stroke:none;stroke-width:1.0;" width="479" x="106.5" y="10"/><text fill="#000000" font-family="sans-serif" font-size="14" font-weight="bold" lengthAdjust="spacing" textLength="469" x="111.5" y="27.9951">DS v06 - Admin / agent : consultation, assignation, decision</text><rect fill="#FFFFFF" height="128.2031" style="stroke:#181818;stroke-width:1.0;" width="10" x="224.5" y="153.2188"/><rect fill="#FFFFFF" height="90.9219" style="stroke:#181818;stroke-width:1.0;" width="10" x="224.5" y="346.7031"/><rect fill="#FFFFFF" height="114.2031" style="stroke:#181818;stroke-width:1.0;" width="10" x="224.5" y="502.9063"/><rect fill="#FFFFFF" height="229.7656" style="stroke:#181818;stroke-width:1.0;" width="10" x="224.5" y="682.3906"/><rect fill="#FFFFFF" height="65.2813" style="stroke:#181818;stroke-width:1.0;" width="10" x="409.5" y="190.5"/><rect fill="#FFFFFF" height="65.2813" style="stroke:#181818;stroke-width:1.0;" width="10" x="409.5" y="372.3438"/><rect fill="#FFFFFF" height="76.9219" style="stroke:#181818;stroke-width:1.0;" width="10" x="409.5" y="540.1875"/><rect fill="#FFFFFF" height="166.8438" style="stroke:#181818;stroke-width:1.0;" width="10" x="409.5" y="719.6719"/><rect fill="#FFFFFF" height="14" style="stroke:#181818;stroke-width:1.0;" width="10" x="564.5" y="846.875"/><rect fill="#FFFFFF" height="14" style="stroke:#181818;stroke-width:1.0;" width="10" x="665" y="216.1406"/><rect fill="#FFFFFF" height="14" style="stroke:#181818;stroke-width:1.0;" width="10" x="665" y="397.9844"/><rect fill="#FFFFFF" height="14" style="stroke:#181818;stroke-width:1.0;" width="10" x="665" y="577.4688"/><rect fill="#FFFFFF" height="14" style="stroke:#181818;stroke-width:1.0;" width="10" x="665" y="807.2344"/><line style="stroke:#181818;stroke-width:0.5;stroke-dasharray:5.0,5.0;" x1="39" x2="39" y1="125.5781" y2="961.7969"/><line style="stroke:#181818;stroke-width:0.5;stroke-dasharray:5.0,5.0;" x1="229.5" x2="229.5" y1="125.5781" y2="961.7969"/><line style="stroke:#181818;stroke-width:0.5;stroke-dasharray:5.0,5.0;" x1="414.5" x2="414.5" y1="125.5781" y2="961.7969"/><line style="stroke:#181818;stroke-width:0.5;stroke-dasharray:5.0,5.0;" x1="569" x2="569" y1="125.5781" y2="961.7969"/><line style="stroke:#181818;stroke-width:0.5;stroke-dasharray:5.0,5.0;" x1="670" x2="670" y1="125.5781" y2="961.7969"/><text fill="#000000" font-family="sans-serif" font-size="10" lengthAdjust="spacing" textLength="44" x="14.5" y="111.5791">Agent ou</text><text fill="#000000" font-family="sans-serif" font-size="10" lengthAdjust="spacing" textLength="63" x="5" y="123.2197">admin / resp.</text><ellipse cx="39.5" cy="50.7969" fill="#E2E2F0" rx="8" ry="8" style="stroke:#181818;stroke-width:0.5;"/><path d="M39.5,58.7969 L39.5,85.7969 M26.5,66.7969 L52.5,66.7969 M39.5,85.7969 L26.5,100.7969 M39.5,85.7969 L52.5,100.7969 " fill="none" style="stroke:#181818;stroke-width:0.5;"/><text fill="#000000" font-family="sans-serif" font-size="10" lengthAdjust="spacing" textLength="44" x="14.5" y="970.0791">Agent ou</text><text fill="#000000" font-family="sans-serif" font-size="10" lengthAdjust="spacing" textLength="63" x="5" y="981.7197">admin / resp.</text><ellipse cx="39.5" cy="992.5781" fill="#E2E2F0" rx="8" ry="8" style="stroke:#181818;stroke-width:0.5;"/><path d="M39.5,1000.5781 L39.5,1027.5781 M26.5,1008.5781 L52.5,1008.5781 M39.5,1027.5781 L26.5,1042.5781 M39.5,1027.5781 L52.5,1042.5781 " fill="none" style="stroke:#181818;stroke-width:0.5;"/><rect fill="#E2E2F0" height="37.2813" rx="4" ry="4" style="stroke:#181818;stroke-width:0.5;" width="66" x="196.5" y="87.2969"/><text fill="#000000" font-family="sans-serif" font-size="10" lengthAdjust="spacing" textLength="52" x="203.5" y="103.5791">SPA React</text><text fill="#000000" font-family="sans-serif" font-size="10" lengthAdjust="spacing" textLength="38" x="210.5" y="115.2197">(admin)</text><rect fill="#E2E2F0" height="37.2813" rx="4" ry="4" style="stroke:#181818;stroke-width:0.5;" width="66" x="196.5" y="960.7969"/><text fill="#000000" font-family="sans-serif" font-size="10" lengthAdjust="spacing" textLength="52" x="203.5" y="977.0791">SPA React</text><text fill="#000000" font-family="sans-serif" font-size="10" lengthAdjust="spacing" textLength="38" x="210.5" y="988.7197">(admin)</text><rect fill="#E2E2F0" height="37.2813" rx="4" ry="4" style="stroke:#181818;stroke-width:0.5;" width="140" x="344.5" y="87.2969"/><text fill="#000000" font-family="sans-serif" font-size="10" lengthAdjust="spacing" textLength="88" x="370.5" y="103.5791">RequestController</text><text fill="#000000" font-family="sans-serif" font-size="10" lengthAdjust="spacing" textLength="126" x="351.5" y="115.2197">prefix /api/admin/requests</text><rect fill="#E2E2F0" height="37.2813" rx="4" ry="4" style="stroke:#181818;stroke-width:0.5;" width="140" x="344.5" y="960.7969"/><text fill="#000000" font-family="sans-serif" font-size="10" lengthAdjust="spacing" textLength="88" x="370.5" y="977.0791">RequestController</text><text fill="#000000" font-family="sans-serif" font-size="10" lengthAdjust="spacing" textLength="126" x="351.5" y="988.7197">prefix /api/admin/requests</text><rect fill="#E2E2F0" height="25.6406" rx="4" ry="4" style="stroke:#181818;stroke-width:0.5;" width="145" x="497" y="98.9375"/><text fill="#000000" font-family="sans-serif" font-size="10" lengthAdjust="spacing" textLength="131" x="504" y="115.2197">RequestNotificationService</text><rect fill="#E2E2F0" height="25.6406" rx="4" ry="4" style="stroke:#181818;stroke-width:0.5;" width="145" x="497" y="960.7969"/><text fill="#000000" font-family="sans-serif" font-size="10" lengthAdjust="spacing" textLength="131" x="504" y="977.0791">RequestNotificationService</text><text fill="#000000" font-family="sans-serif" font-size="10" lengthAdjust="spacing" textLength="30" x="652" y="123.2197">SGBD</text><path d="M652,77.9375 C652,67.9375 670,67.9375 670,67.9375 C670,67.9375 688,67.9375 688,77.9375 L688,103.9375 C688,113.9375 670,113.9375 670,113.9375 C670,113.9375 652,113.9375 652,103.9375 L652,77.9375 " fill="#E2E2F0" style="stroke:#181818;stroke-width:1.5;"/><path d="M652,77.9375 C652,87.9375 670,87.9375 670,87.9375 C670,87.9375 688,87.9375 688,77.9375 " fill="none" style="stroke:#181818;stroke-width:1.5;"/><text fill="#000000" font-family="sans-serif" font-size="10" lengthAdjust="spacing" textLength="30" x="652" y="970.0791">SGBD</text><path d="M652,982.4375 C652,972.4375 670,972.4375 670,972.4375 C670,972.4375 688,972.4375 688,982.4375 L688,1008.4375 C688,1018.4375 670,1018.4375 670,1018.4375 C670,1018.4375 652,1018.4375 652,1008.4375 L652,982.4375 " fill="#E2E2F0" style="stroke:#181818;stroke-width:1.5;"/><path d="M652,982.4375 C652,992.4375 670,992.4375 670,992.4375 C670,992.4375 688,992.4375 688,982.4375 " fill="none" style="stroke:#181818;stroke-width:1.5;"/><rect fill="#FFFFFF" height="128.2031" style="stroke:#181818;stroke-width:1.0;" width="10" x="224.5" y="153.2188"/><rect fill="#FFFFFF" height="90.9219" style="stroke:#181818;stroke-width:1.0;" width="10" x="224.5" y="346.7031"/><rect fill="#FFFFFF" height="114.2031" style="stroke:#181818;stroke-width:1.0;" width="10" x="224.5" y="502.9063"/><rect fill="#FFFFFF" height="229.7656" style="stroke:#181818;stroke-width:1.0;" width="10" x="224.5" y="682.3906"/><rect fill="#FFFFFF" height="65.2813" style="stroke:#181818;stroke-width:1.0;" width="10" x="409.5" y="190.5"/><rect fill="#FFFFFF" height="65.2813" style="stroke:#181818;stroke-width:1.0;" width="10" x="409.5" y="372.3438"/><rect fill="#FFFFFF" height="76.9219" style="stroke:#181818;stroke-width:1.0;" width="10" x="409.5" y="540.1875"/><rect fill="#FFFFFF" height="166.8438" style="stroke:#181818;stroke-width:1.0;" width="10" x="409.5" y="719.6719"/><rect fill="#FFFFFF" height="14" style="stroke:#181818;stroke-width:1.0;" width="10" x="564.5" y="846.875"/><rect fill="#FFFFFF" height="14" style="stroke:#181818;stroke-width:1.0;" width="10" x="665" y="216.1406"/><rect fill="#FFFFFF" height="14" style="stroke:#181818;stroke-width:1.0;" width="10" x="665" y="397.9844"/><rect fill="#FFFFFF" height="14" style="stroke:#181818;stroke-width:1.0;" width="10" x="665" y="577.4688"/><rect fill="#FFFFFF" height="14" style="stroke:#181818;stroke-width:1.0;" width="10" x="665" y="807.2344"/><polygon fill="#181818" points="212.5,149.2188,222.5,153.2188,212.5,157.2188,216.5,153.2188" style="stroke:#181818;stroke-width:1.0;"/><line style="stroke:#181818;stroke-width:1.0;" x1="39.5" x2="218.5" y1="153.2188" y2="153.2188"/><text fill="#000000" font-family="sans-serif" font-size="10" lengthAdjust="spacing" textLength="67" x="98.5" y="148.8604">Ouvrir dossier</text><polygon fill="#181818" points="397.5,186.5,407.5,190.5,397.5,194.5,401.5,190.5" style="stroke:#181818;stroke-width:1.0;"/><line style="stroke:#181818;stroke-width:1.0;" x1="234.5" x2="403.5" y1="190.5" y2="190.5"/><text fill="#000000" font-family="sans-serif" font-size="10" lengthAdjust="spacing" textLength="141" x="251.5" y="174.501">GET /api/admin/requests/{id}</text><text fill="#000000" font-family="sans-serif" font-size="10" lengthAdjust="spacing" textLength="156" x="244" y="186.1416">Cookie + role admin|agent|resp.</text><polygon fill="#181818" points="653,212.1406,663,216.1406,653,220.1406,657,216.1406" style="stroke:#181818;stroke-width:1.0;"/><line style="stroke:#181818;stroke-width:1.0;" x1="419.5" x2="659" y1="216.1406" y2="216.1406"/><text fill="#000000" font-family="sans-serif" font-size="10" lengthAdjust="spacing" textLength="141" x="471.75" y="211.7822">charger demande + relations</text><polygon fill="#181818" points="430.5,226.1406,420.5,230.1406,430.5,234.1406,426.5,230.1406" style="stroke:#181818;stroke-width:1.0;"/><line style="stroke:#181818;stroke-width:1.0;stroke-dasharray:2.0,2.0;" x1="424.5" x2="669" y1="230.1406" y2="230.1406"/><polygon fill="#181818" points="245.5,251.7813,235.5,255.7813,245.5,259.7813,241.5,255.7813" style="stroke:#181818;stroke-width:1.0;"/><line style="stroke:#181818;stroke-width:1.0;stroke-dasharray:2.0,2.0;" x1="239.5" x2="413.5" y1="255.7813" y2="255.7813"/><text fill="#000000" font-family="sans-serif" font-size="10" lengthAdjust="spacing" textLength="84" x="282.5" y="251.4229">200 JSON dossier</text><polygon fill="#181818" points="50.5,277.4219,40.5,281.4219,50.5,285.4219,46.5,281.4219" style="stroke:#181818;stroke-width:1.0;"/><line style="stroke:#181818;stroke-width:1.0;stroke-dasharray:2.0,2.0;" x1="44.5" x2="228.5" y1="281.4219" y2="281.4219"/><text fill="#000000" font-family="sans-serif" font-size="10" lengthAdjust="spacing" textLength="46" x="111.5" y="277.0635">Affichage</text><rect fill="#EEEEEE" height="3" rx="4" ry="4" style="stroke:#EEEEEE;stroke-width:1.0;" width="693" x="0" y="308.2422"/><line style="stroke:#000000;stroke-width:1.0;" x1="0" x2="693" y1="308.2422" y2="308.2422"/><line style="stroke:#000000;stroke-width:1.0;" x1="0" x2="693" y1="311.2422" y2="311.2422"/><rect fill="#EEEEEE" height="19.6406" rx="4" ry="4" style="stroke:#000000;stroke-width:2.0;" width="81" x="306" y="299.4219"/><text fill="#000000" font-family="sans-serif" font-size="10" font-weight="bold" lengthAdjust="spacing" textLength="64" x="312" y="312.7041">Marquer vu</text><polygon fill="#181818" points="212.5,342.7031,222.5,346.7031,212.5,350.7031,216.5,346.7031" style="stroke:#181818;stroke-width:1.0;"/><line style="stroke:#181818;stroke-width:1.0;" x1="39.5" x2="218.5" y1="346.7031" y2="346.7031"/><text fill="#000000" font-family="sans-serif" font-size="10" lengthAdjust="spacing" textLength="96" x="84" y="342.3447">Marquer comme vu</text><polygon fill="#181818" points="397.5,368.3438,407.5,372.3438,397.5,376.3438,401.5,372.3438" style="stroke:#181818;stroke-width:1.0;"/><line style="stroke:#181818;stroke-width:1.0;" x1="234.5" x2="403.5" y1="372.3438" y2="372.3438"/><text fill="#000000" font-family="sans-serif" font-size="10" lengthAdjust="spacing" textLength="105" x="269.5" y="367.9854">POST .../mark-viewed</text><polygon fill="#181818" points="653,393.9844,663,397.9844,653,401.9844,657,397.9844" style="stroke:#181818;stroke-width:1.0;"/><line style="stroke:#181818;stroke-width:1.0;" x1="419.5" x2="659" y1="397.9844" y2="397.9844"/><text fill="#000000" font-family="sans-serif" font-size="10" lengthAdjust="spacing" textLength="117" x="483.75" y="393.626">INSERT history VIEWED</text><polygon fill="#181818" points="430.5,407.9844,420.5,411.9844,430.5,415.9844,426.5,411.9844" style="stroke:#181818;stroke-width:1.0;"/><line style="stroke:#181818;stroke-width:1.0;stroke-dasharray:2.0,2.0;" x1="424.5" x2="669" y1="411.9844" y2="411.9844"/><polygon fill="#181818" points="240.5,433.625,230.5,437.625,240.5,441.625,236.5,437.625" style="stroke:#181818;stroke-width:1.0;"/><line style="stroke:#181818;stroke-width:1.0;stroke-dasharray:2.0,2.0;" x1="234.5" x2="413.5" y1="437.625" y2="437.625"/><text fill="#000000" font-family="sans-serif" font-size="10" lengthAdjust="spacing" textLength="18" x="313" y="433.2666">200</text><rect fill="#EEEEEE" height="3" rx="4" ry="4" style="stroke:#EEEEEE;stroke-width:1.0;" width="693" x="0" y="464.4453"/><line style="stroke:#000000;stroke-width:1.0;" x1="0" x2="693" y1="464.4453" y2="464.4453"/><line style="stroke:#000000;stroke-width:1.0;" x1="0" x2="693" y1="467.4453" y2="467.4453"/><rect fill="#EEEEEE" height="19.6406" rx="4" ry="4" style="stroke:#000000;stroke-width:2.0;" width="67" x="313" y="455.625"/><text fill="#000000" font-family="sans-serif" font-size="10" font-weight="bold" lengthAdjust="spacing" textLength="50" x="319" y="468.9072">Assigner</text><polygon fill="#181818" points="212.5,498.9063,222.5,502.9063,212.5,506.9063,216.5,502.9063" style="stroke:#181818;stroke-width:1.0;"/><line style="stroke:#181818;stroke-width:1.0;" x1="39.5" x2="218.5" y1="502.9063" y2="502.9063"/><text fill="#000000" font-family="sans-serif" font-size="10" lengthAdjust="spacing" textLength="96" x="84" y="498.5479">Assigner a un agent</text><polygon fill="#181818" points="397.5,536.1875,407.5,540.1875,397.5,544.1875,401.5,540.1875" style="stroke:#181818;stroke-width:1.0;"/><line style="stroke:#181818;stroke-width:1.0;" x1="234.5" x2="403.5" y1="540.1875" y2="540.1875"/><text fill="#000000" font-family="sans-serif" font-size="10" lengthAdjust="spacing" textLength="72" x="286" y="524.1885">POST .../assign</text><text fill="#000000" font-family="sans-serif" font-size="10" lengthAdjust="spacing" textLength="75" x="284.5" y="535.8291">{ assigned_to }</text><polygon fill="#181818" points="653,573.4688,663,577.4688,653,581.4688,657,577.4688" style="stroke:#181818;stroke-width:1.0;"/><line style="stroke:#181818;stroke-width:1.0;" x1="419.5" x2="659" y1="577.4688" y2="577.4688"/><text fill="#000000" font-family="sans-serif" font-size="10" lengthAdjust="spacing" textLength="102" x="491.25" y="561.4697">UPDATE assigned_to</text><text fill="#000000" font-family="sans-serif" font-size="10" lengthAdjust="spacing" textLength="99" x="492.75" y="573.1104">+ historique si prevu</text><polygon fill="#181818" points="430.5,587.4688,420.5,591.4688,430.5,595.4688,426.5,591.4688" style="stroke:#181818;stroke-width:1.0;"/><line style="stroke:#181818;stroke-width:1.0;stroke-dasharray:2.0,2.0;" x1="424.5" x2="669" y1="591.4688" y2="591.4688"/><polygon fill="#181818" points="240.5,613.1094,230.5,617.1094,240.5,621.1094,236.5,617.1094" style="stroke:#181818;stroke-width:1.0;"/><line style="stroke:#181818;stroke-width:1.0;stroke-dasharray:2.0,2.0;" x1="234.5" x2="413.5" y1="617.1094" y2="617.1094"/><text fill="#000000" font-family="sans-serif" font-size="10" lengthAdjust="spacing" textLength="18" x="313" y="612.751">200</text><rect fill="#EEEEEE" height="3" rx="4" ry="4" style="stroke:#EEEEEE;stroke-width:1.0;" width="693" x="0" y="643.9297"/><line style="stroke:#000000;stroke-width:1.0;" x1="0" x2="693" y1="643.9297" y2="643.9297"/><line style="stroke:#000000;stroke-width:1.0;" x1="0" x2="693" y1="646.9297" y2="646.9297"/><rect fill="#EEEEEE" height="19.6406" rx="4" ry="4" style="stroke:#000000;stroke-width:2.0;" width="139" x="277" y="635.1094"/><text fill="#000000" font-family="sans-serif" font-size="10" font-weight="bold" lengthAdjust="spacing" textLength="122" x="283" y="648.3916">Approuver ou refuser</text><polygon fill="#181818" points="212.5,678.3906,222.5,682.3906,212.5,686.3906,216.5,682.3906" style="stroke:#181818;stroke-width:1.0;"/><line style="stroke:#181818;stroke-width:1.0;" x1="39.5" x2="218.5" y1="682.3906" y2="682.3906"/><text fill="#000000" font-family="sans-serif" font-size="10" lengthAdjust="spacing" textLength="166" x="49" y="678.0322">Decision + commentaire optionnel</text><polygon fill="#181818" points="397.5,715.6719,407.5,719.6719,397.5,723.6719,401.5,719.6719" style="stroke:#181818;stroke-width:1.0;"/><line style="stroke:#181818;stroke-width:1.0;" x1="234.5" x2="403.5" y1="719.6719" y2="719.6719"/><text fill="#000000" font-family="sans-serif" font-size="10" lengthAdjust="spacing" textLength="82" x="281" y="703.6729">POST .../approve</text><text fill="#000000" font-family="sans-serif" font-size="10" lengthAdjust="spacing" textLength="84" x="280" y="715.3135">ou POST .../reject</text><line style="stroke:#181818;stroke-width:1.0;" x1="419.5" x2="461.5" y1="745.3125" y2="745.3125"/><line style="stroke:#181818;stroke-width:1.0;" x1="461.5" x2="461.5" y1="745.3125" y2="758.3125"/><line style="stroke:#181818;stroke-width:1.0;" x1="420.5" x2="461.5" y1="758.3125" y2="758.3125"/><polygon fill="#181818" points="430.5,754.3125,420.5,758.3125,430.5,762.3125,426.5,758.3125" style="stroke:#181818;stroke-width:1.0;"/><text fill="#000000" font-family="sans-serif" font-size="10" lengthAdjust="spacing" textLength="111" x="426.5" y="740.9541">canTransitionTo(statut)</text><polygon fill="#181818" points="653,803.2344,663,807.2344,653,811.2344,657,807.2344" style="stroke:#181818;stroke-width:1.0;"/><line style="stroke:#181818;stroke-width:1.0;" x1="419.5" x2="659" y1="807.2344" y2="807.2344"/><text fill="#000000" font-family="sans-serif" font-size="10" lengthAdjust="spacing" textLength="115" x="484.75" y="779.5947">UPDATE current_status</text><text fill="#000000" font-family="sans-serif" font-size="10" lengthAdjust="spacing" textLength="133" x="475.75" y="791.2354">+ INSERT request_histories</text><text fill="#000000" font-family="sans-serif" font-size="10" lengthAdjust="spacing" textLength="136" x="474.25" y="802.876">(APPROVED ou REJECTED)</text><polygon fill="#181818" points="430.5,817.2344,420.5,821.2344,430.5,825.2344,426.5,821.2344" style="stroke:#181818;stroke-width:1.0;"/><line style="stroke:#181818;stroke-width:1.0;stroke-dasharray:2.0,2.0;" x1="424.5" x2="669" y1="821.2344" y2="821.2344"/><polygon fill="#181818" points="552.5,842.875,562.5,846.875,552.5,850.875,556.5,846.875" style="stroke:#181818;stroke-width:1.0;"/><line style="stroke:#181818;stroke-width:1.0;" x1="419.5" x2="558.5" y1="846.875" y2="846.875"/><text fill="#000000" font-family="sans-serif" font-size="10" lengthAdjust="spacing" textLength="126" x="429" y="842.5166">notifyClientStatusChange</text><polygon fill="#181818" points="430.5,856.875,420.5,860.875,430.5,864.875,426.5,860.875" style="stroke:#181818;stroke-width:1.0;"/><line style="stroke:#181818;stroke-width:1.0;stroke-dasharray:2.0,2.0;" x1="424.5" x2="568.5" y1="860.875" y2="860.875"/><polygon fill="#181818" points="245.5,882.5156,235.5,886.5156,245.5,890.5156,241.5,886.5156" style="stroke:#181818;stroke-width:1.0;"/><line style="stroke:#181818;stroke-width:1.0;stroke-dasharray:2.0,2.0;" x1="239.5" x2="413.5" y1="886.5156" y2="886.5156"/><text fill="#000000" font-family="sans-serif" font-size="10" lengthAdjust="spacing" textLength="18" x="315.5" y="882.1572">200</text><polygon fill="#181818" points="50.5,908.1563,40.5,912.1563,50.5,916.1563,46.5,912.1563" style="stroke:#181818;stroke-width:1.0;"/><line style="stroke:#181818;stroke-width:1.0;stroke-dasharray:2.0,2.0;" x1="44.5" x2="228.5" y1="912.1563" y2="912.1563"/><text fill="#000000" font-family="sans-serif" font-size="10" lengthAdjust="spacing" textLength="64" x="102.5" y="907.7979">Confirmation</text><path d="M254,929.1563 L254,942.1563 A4,4 0 0 0 258,946.1563 L571,946.1563 A4,4 0 0 0 575,942.1563 L575,935.1563 L565,925.1563 L258,925.1563 A4,4 0 0 0 254,929.1563 " fill="#FEFFDD" style="stroke:#181818;stroke-width:0.5;"/><path d="M565,925.1563 L565,933.1563 A2,2 0 0 0 567,935.1563 L575,935.1563 L565,925.1563 " fill="#FEFFDD" style="stroke:#181818;stroke-width:0.5;"/><text fill="#000000" font-family="sans-serif" font-size="10" lengthAdjust="spacing" textLength="300" x="260" y="939.4385">Middleware auth:sanctum + role:\nadmin, agent, responsable.</text><!--MD5=[ab4d007d8111d9930ec5fcf90406fe57]
@startuml
title DS v06 - Admin / agent : consultation, assignation, decision

skinparam defaultFontSize 10
skinparam shadowing false
skinparam roundcorner 8
skinparam sequenceMessageAlign center

actor "Agent ou\nadmin / resp." as U
participant "SPA React\n(admin)" as FE
participant "RequestController\nprefix /api/admin/requests" as ARC
participant "RequestNotificationService" as NS
database "SGBD" as DB

U -> FE : Ouvrir dossier
activate FE

FE -> ARC : GET /api/admin/requests/{id}\nCookie + role admin|agent|resp.
activate ARC

ARC -> DB : charger demande + relations
activate DB
DB - -> ARC
deactivate DB

ARC - -> FE : 200 JSON dossier
deactivate ARC
FE - -> U : Affichage
deactivate FE

== Marquer vu ==

U -> FE : Marquer comme vu
activate FE
FE -> ARC : POST .../mark-viewed
activate ARC
ARC -> DB : INSERT history VIEWED
activate DB
DB - -> ARC
deactivate DB
ARC - -> FE : 200
deactivate ARC
deactivate FE

== Assigner ==

U -> FE : Assigner a un agent
activate FE
FE -> ARC : POST .../assign\n{ assigned_to }
activate ARC
ARC -> DB : UPDATE assigned_to\n+ historique si prevu
activate DB
DB - -> ARC
deactivate DB
ARC - -> FE : 200
deactivate ARC
deactivate FE

== Approuver ou refuser ==

U -> FE : Decision + commentaire optionnel
activate FE
FE -> ARC : POST .../approve\nou POST .../reject
activate ARC

ARC -> ARC : canTransitionTo(statut)
ARC -> DB : UPDATE current_status\n+ INSERT request_histories\n(APPROVED ou REJECTED)
activate DB
DB - -> ARC
deactivate DB

ARC -> NS : notifyClientStatusChange
activate NS
NS - -> ARC
deactivate NS

ARC - -> FE : 200
deactivate ARC
FE - -> U : Confirmation
deactivate FE

note over ARC
  Middleware auth:sanctum + role:\nadmin, agent, responsable.
end note
@enduml

PlantUML version 1.2022.7(Mon Aug 22 17:01:30 UTC 2022)
(GPL source distribution)
Java Runtime: OpenJDK Runtime Environment
JVM: OpenJDK 64-Bit Server VM
Default Encoding: UTF-8
Language: en
Country: null
--></g></svg>