<svg xmlns="http://www.w3.org/2000/svg" xmlns:xlink="http://www.w3.org/1999/xlink" contentStyleType="text/css" height="480.7px" preserveAspectRatio="none" style="width:632px;height:480px;background:#FFFFFF;" version="1.1" viewBox="0 0 632 480" width="632.7px" zoomAndPan="magnify"><defs/><g><rect fill="none" height="24.982" id="_title" rx="2.85" ry="2.85" style="stroke:none;stroke-width:0.9499999999999998;" width="226.1" x="196.65" y="4.75"/><text fill="#000000" font-family="sans-serif" font-size="13.3" font-weight="bold" lengthAdjust="spacing" textLength="216.6" x="201.4" y="21.8454">DCU - Responsable d agence</text><!--MD5=[18fd512145f79b26563a3d0fdf1666bf]
cluster Plateforme E-Services--><g id="cluster_Plateforme E-Services"><rect fill="none" height="433.2" rx="2.85" ry="2.85" style="stroke:#181818;stroke-width:0.9499999999999998;" width="433.2" x="108.3" y="42.082"/><text fill="#000000" font-family="sans-serif" font-size="8.55" font-weight="bold" lengthAdjust="spacing" textLength="102.6" x="273.6" y="51.9183">Plateforme E-Services</text></g><g id="elem_U_SVC"><ellipse cx="208.4591" cy="89.3788" fill="#F1F1F1" rx="84.9591" ry="19.2718" style="stroke:#181818;stroke-width:0.4749999999999999;"/><text fill="#000000" font-family="sans-serif" font-size="7.6" lengthAdjust="spacing" textLength="122.55" x="147.1841" y="85.0333">Services + champs dynamiques</text><text fill="#000000" font-family="sans-serif" font-size="7.6" lengthAdjust="spacing" textLength="92.15" x="162.3841" y="94.5333">/admin/services + fields</text></g><g id="elem_U_STOG"><ellipse cx="208.6576" cy="159.0671" fill="#F1F1F1" rx="63.3076" ry="16.285" style="stroke:#181818;stroke-width:0.4749999999999999;"/><text fill="#000000" font-family="sans-serif" font-size="7.6" lengthAdjust="spacing" textLength="74.1" x="171.6076" y="154.7216">Toggle service actif</text><text fill="#000000" font-family="sans-serif" font-size="7.6" lengthAdjust="spacing" textLength="60.8" x="178.2576" y="164.2216">.../toggle-active</text></g><g id="elem_U_AGL"><ellipse cx="208.3316" cy="224.6171" fill="#F1F1F1" rx="68.6816" ry="16.285" style="stroke:#181818;stroke-width:0.4749999999999999;"/><text fill="#000000" font-family="sans-serif" font-size="7.6" lengthAdjust="spacing" textLength="51.3" x="182.6816" y="220.2716">Liste agences</text><text fill="#000000" font-family="sans-serif" font-size="7.6" lengthAdjust="spacing" textLength="81.7" x="167.4816" y="229.7716">admin + responsable</text></g><g id="elem_U_DASH"><ellipse cx="208.3359" cy="292.9392" fill="#F1F1F1" rx="81.5109" ry="18.5822" style="stroke:#181818;stroke-width:0.4749999999999999;"/><text fill="#000000" font-family="sans-serif" font-size="7.6" lengthAdjust="spacing" textLength="68.4" x="174.1359" y="288.5937">Dashboard + liste</text><text fill="#000000" font-family="sans-serif" font-size="7.6" lengthAdjust="spacing" textLength="114" x="151.3359" y="298.0937">/admin/dashboard + requests</text></g><g id="elem_U_TRT"><ellipse cx="208.5621" cy="363.1895" fill="#F1F1F1" rx="78.8871" ry="18.0574" style="stroke:#181818;stroke-width:0.4749999999999999;"/><text fill="#000000" font-family="sans-serif" font-size="7.6" lengthAdjust="spacing" textLength="54.15" x="181.4871" y="358.8439">Traiter dossier</text><text fill="#000000" font-family="sans-serif" font-size="7.6" lengthAdjust="spacing" textLength="107.35" x="154.8871" y="368.3439">assign vue approve reject...</text></g><g id="elem_U_STF"><ellipse cx="208.6914" cy="437.4846" fill="#F1F1F1" rx="66.6664" ry="23.0025" style="stroke:#181818;stroke-width:0.4749999999999999;"/><text fill="#000000" font-family="sans-serif" font-size="7.6" lengthAdjust="spacing" textLength="57" x="180.1914" y="428.3891">Emails client +</text><text fill="#000000" font-family="sans-serif" font-size="7.6" lengthAdjust="spacing" textLength="78.85" x="169.2664" y="437.8891">nouvelles demandes</text><text fill="#000000" font-family="sans-serif" font-size="7.6" lengthAdjust="spacing" textLength="40.85" x="188.2664" y="447.3891">/api/staff/*</text></g><g id="elem_U_MAIL"><ellipse cx="462.0294" cy="261.6671" fill="#F1F1F1" rx="63.9794" ry="16.285" style="stroke:#181818;stroke-width:0.4749999999999999;"/><text fill="#000000" font-family="sans-serif" font-size="7.6" lengthAdjust="spacing" textLength="75.05" x="424.5044" y="257.3216">E-mail automatique</text><text fill="#000000" font-family="sans-serif" font-size="7.6" lengthAdjust="spacing" textLength="55.1" x="434.4794" y="266.8216">Mail + EmailJS</text></g><!--MD5=[d4c63efc849c138da47c28c0daf11e88]
entity RAG--><g id="elem_RAG"><ellipse cx="34.675" cy="235.882" fill="#F1F1F1" rx="7.6" ry="7.6" style="stroke:#181818;stroke-width:0.4749999999999999;"/><path d="M34.675,243.482 L34.675,269.132 M22.325,251.082 L47.025,251.082 M34.675,269.132 L22.325,283.382 M34.675,269.132 L47.025,283.382 " fill="none" style="stroke:#181818;stroke-width:0.4749999999999999;"/><text fill="#000000" font-family="sans-serif" font-size="8.55" lengthAdjust="spacing" textLength="57.95" x="5.7" y="292.7433">Responsable</text><text fill="#000000" font-family="sans-serif" font-size="8.55" lengthAdjust="spacing" textLength="42.75" x="5.7" y="302.6961">d agence</text></g><!--MD5=[fa92c0c292cdeae80e2f3763d35ba241]
entity SYS--><g id="elem_SYS"><ellipse cx="606.1" cy="231.132" fill="#F1F1F1" rx="7.6" ry="7.6" style="stroke:#181818;stroke-width:0.4749999999999999;"/><path d="M606.1,238.732 L606.1,264.382 M593.75,246.332 L618.45,246.332 M606.1,264.382 L593.75,278.632 M606.1,264.382 L618.45,278.632 " fill="none" style="stroke:#181818;stroke-width:0.4749999999999999;"/><text fill="#000000" font-family="sans-serif" font-size="8.55" lengthAdjust="spacing" textLength="39.9" x="586.15" y="287.9933">Systeme</text><text fill="#000000" font-family="sans-serif" font-size="8.55" lengthAdjust="spacing" textLength="36.1" x="586.15" y="297.9461">(e-mail)</text></g><!--MD5=[c43986714d70c7ed27215fec80a052ab]
link RAG to U_SVC--><g id="link_RAG_U_SVC"><path d="M44.4125,227.788 C53.4945,196.2765 70.68,152.6335 100.7,125.682 C111.435,116.0395 124.849,108.962 138.5005,103.7655 " fill="none" id="RAG-to-U_SVC" style="stroke:#181818;stroke-width:0.9499999999999998;"/><polygon fill="#181818" points="143.1365,102.0745,133.802,101.4343,138.6741,103.7022,136.4062,108.5742,143.1365,102.0745" style="stroke:#181818;stroke-width:0.9499999999999998;"/></g><!--MD5=[96c5ac7c8b5a3067ce2c22c5dc0a4b6c]
link RAG to U_STOG--><g id="link_RAG_U_STOG"><path d="M62.225,227.4745 C72.8745,214.3835 86.0795,200.7035 100.7,191.232 C115.938,181.352 134.3395,174.379 151.544,169.5055 " fill="none" id="RAG-to-U_STOG" style="stroke:#181818;stroke-width:0.9499999999999998;"/><polygon fill="#181818" points="156.3605,168.1945,147.1116,166.7804,151.7782,169.4455,149.1131,174.1121,156.3605,168.1945" style="stroke:#181818;stroke-width:0.9499999999999998;"/></g><!--MD5=[75f3b0f08dafd9a6adfb2c5b14f68654]
link RAG to U_AGL--><g id="link_RAG_U_AGL"><path d="M64.0205,259.3755 C88.7395,253.3715 125.21,244.508 155.2015,237.212 " fill="none" id="RAG-to-U_AGL" style="stroke:#181818;stroke-width:0.9499999999999998;"/><polygon fill="#181818" points="159.961,236.053,150.7584,234.3635,155.3434,237.1667,152.5402,241.7517,159.961,236.053" style="stroke:#181818;stroke-width:0.9499999999999998;"/></g><!--MD5=[b48c3052b15000f9e107f1ffc5c48b0c]
link RAG to U_DASH--><g id="link_RAG_U_DASH"><path d="M64.0205,270.671 C83.5905,273.7015 110.542,277.872 135.8025,281.7765 " fill="none" id="RAG-to-U_DASH" style="stroke:#181818;stroke-width:0.9499999999999998;"/><polygon fill="#181818" points="140.505,282.508,132.6289,277.4573,135.8098,281.7888,131.4782,284.9696,140.505,282.508" style="stroke:#181818;stroke-width:0.9499999999999998;"/></g><!--MD5=[a6bcecb40d3e5da36826351240f5d828]
link RAG to U_TRT--><g id="link_RAG_U_TRT"><path d="M63.7735,298.2305 C74.4705,308.88 87.3335,320.0425 100.7,328.032 C115.3395,336.772 132.4205,343.6405 148.58,348.894 " fill="none" id="RAG-to-U_TRT" style="stroke:#181818;stroke-width:0.9499999999999998;"/><polygon fill="#181818" points="153.102,350.338,146.1074,344.1237,148.5758,348.8973,143.8022,351.3656,153.102,350.338" style="stroke:#181818;stroke-width:0.9499999999999998;"/></g><!--MD5=[340dacd93a86b926f3541f4d90d48485]
link RAG to U_STF--><g id="link_RAG_U_STF"><path d="M46.284,304.9375 C56.088,333.9315 73.3305,372.7105 100.7,397.382 C113.81,409.2 130.7485,417.6265 147.25,423.5925 " fill="none" id="RAG-to-U_STF" style="stroke:#181818;stroke-width:0.9499999999999998;"/><polygon fill="#181818" points="151.8955,425.2075,145.0662,418.812,147.4086,423.6486,142.5719,425.991,151.8955,425.2075" style="stroke:#181818;stroke-width:0.9499999999999998;"/></g><!--MD5=[0f601cf8970748c3e4171c6c741f67b7]
link U_TRT to U_MAIL--><g id="link_U_TRT_U_MAIL"><path d="M248.2635,347.526 C295.697,328.374 375.4875,296.15 422.769,277.055 " fill="none" id="U_TRT-to-U_MAIL" style="stroke:#181818;stroke-width:0.9499999999999998;stroke-dasharray:7.0,7.0;"/><polygon fill="#181818" points="427.2435,275.25,417.8928,274.922,422.8379,277.0258,420.7341,281.9709,427.2435,275.25" style="stroke:#181818;stroke-width:0.9499999999999998;"/><text fill="#000000" font-family="sans-serif" font-size="8.55" lengthAdjust="spacing" textLength="45.6" x="323" y="297.9683">«include»</text></g><!--MD5=[4e42d55df284407305a7392ac4d65c0e]
link U_STOG to U_MAIL--><g id="link_U_STOG_U_MAIL"><path d="M244.7485,172.213 C259.825,177.9605 277.59,184.8195 293.55,191.232 C338.827,209.415 390.545,231.265 424.4315,245.7335 " fill="none" id="U_STOG-to-U_MAIL" style="stroke:#181818;stroke-width:0.9499999999999998;stroke-dasharray:7.0,7.0;"/><polygon fill="#181818" points="428.887,247.6335,422.5329,240.7656,424.5232,245.7575,419.5313,247.7477,428.887,247.6335" style="stroke:#181818;stroke-width:0.9499999999999998;"/><text fill="#000000" font-family="sans-serif" font-size="8.55" lengthAdjust="spacing" textLength="45.6" x="323" y="202.0183">«include»</text></g><!--MD5=[313b465c6f7e8fd2a5538f3b939e0f08]
link U_MAIL to SYS--><g id="link_U_MAIL_SYS"><path d="M526.661,261.532 C546.0315,261.532 566.162,261.532 581.1815,261.532 " fill="none" id="U_MAIL-to-SYS" style="stroke:#181818;stroke-width:0.9499999999999998;stroke-dasharray:7.0,7.0;"/><polygon fill="#181818" points="586.074,261.532,577.524,257.732,581.324,261.532,577.524,265.332,586.074,261.532" style="stroke:#181818;stroke-width:0.9499999999999998;"/></g><!--MD5=[a68cf22ca959eeaa3c76c4c95bed96db]
@startuml
title DCU - Responsable d agence

left to right direction
skinparam defaultFontSize 9
skinparam shadowing false
skinparam roundcorner 6
skinparam usecaseFontSize 8
scale 0.95

actor "Responsable\nd agence" as RAG

rectangle "Plateforme E-Services" {
  usecase "Services + champs dynamiques\n/admin/services + fields" as U_SVC
  usecase "Toggle service actif\n.../toggle-active" as U_STOG
  usecase "Liste agences\nadmin + responsable" as U_AGL
  usecase "Dashboard + liste\n/admin/dashboard + requests" as U_DASH
  usecase "Traiter dossier\nassign vue approve reject..." as U_TRT
  usecase "Emails client +\nnouvelles demandes\n/api/staff/*" as U_STF
  usecase "E-mail automatique\nMail + EmailJS" as U_MAIL
}

actor "Systeme\n(e-mail)" as SYS

RAG - -> U_SVC
RAG - -> U_STOG
RAG - -> U_AGL
RAG - -> U_DASH
RAG - -> U_TRT
RAG - -> U_STF

U_TRT ..> U_MAIL : <<include>>
U_STOG ..> U_MAIL : <<include>>
U_MAIL ..> SYS
@enduml

PlantUML version 1.2022.7(Mon Aug 22 17:01:30 UTC 2022)
(GPL source distribution)
Java Runtime: OpenJDK Runtime Environment
JVM: OpenJDK 64-Bit Server VM
Default Encoding: UTF-8
Language: en
Country: null
--></g></svg>